<svg width="62" height="68" viewBox="0 0 62 68" fill="none" xmlns="http://www.w3.org/2000/svg">
<g clip-path="url(#clip0_8_5513)">
<path d="M37.2637 62C33.1495 62 29.4319 60.8722 26.1108 58.6167C22.8393 56.3611 20.2617 53.0852 18.3781 48.7889C16.4945 44.4389 15.5527 39.1759 15.5527 33C15.5527 26.8241 16.4945 21.588 18.3781 17.2917C20.2617 12.9417 22.8393 9.63889 26.1108 7.38333C29.4319 5.12778 33.1495 4 37.2637 4C41.4274 4 45.145 5.12778 48.4166 7.38333C51.6881 9.63889 54.2656 12.9417 56.1492 17.2917C58.0824 21.588 59.049 26.8241 59.049 33C59.049 39.1759 58.0824 44.4389 56.1492 48.7889C54.2656 53.0852 51.6881 56.3611 48.4166 58.6167C45.145 60.8722 41.4274 62 37.2637 62ZM37.2637 52.8972C39.6925 52.8972 41.7992 52.1991 43.5836 50.8028C45.3681 49.3528 46.756 47.1509 47.7474 44.1972C48.7883 41.2435 49.3088 37.5111 49.3088 33C49.3088 28.4352 48.7883 24.7028 47.7474 21.8028C46.756 18.8491 45.3681 16.6741 43.5836 15.2778C41.7992 13.8278 39.6925 13.1028 37.2637 13.1028C34.934 13.1028 32.8521 13.8278 31.0181 15.2778C29.2336 16.6741 27.8209 18.8491 26.78 21.8028C25.7886 24.7028 25.2929 28.4352 25.2929 33C25.2929 37.5111 25.7886 41.2435 26.78 44.1972C27.8209 47.1509 29.2336 49.3528 31.0181 50.8028C32.8521 52.1991 34.934 52.8972 37.2637 52.8972Z" fill="#F8F8F8"/>
<path d="M2.95535 61.1943V8.8332L7.19345 13.586H-8.04883V4.80542H12.6212V61.1943H2.95535Z" fill="#F8F8F8"/>
</g>
<defs>
<clipPath id="clip0_8_5513">
<path d="M0 0H62V68H10C4.47715 68 0 63.5228 0 58V0Z" fill="white"/>
</clipPath>
</defs>
</svg>
