<svg width="38" height="68" viewBox="0 0 38 68" fill="none" xmlns="http://www.w3.org/2000/svg">
<g clip-path="url(#clip0_8_5435)">
<path d="M-5.71271 62V54.7704L17.8379 32.8324C19.8146 31.0042 21.283 29.3977 22.2431 28.0127C23.2032 26.6277 23.8244 25.3535 24.1068 24.1901C24.4457 22.9714 24.6151 21.8357 24.6151 20.7831C24.6151 18.1239 23.6832 16.0742 21.8195 14.6338C19.9558 13.138 17.2167 12.3901 13.6022 12.3901C10.7219 12.3901 8.09576 12.8887 5.72376 13.8859C3.40823 14.8831 1.40331 16.4066 -0.290976 18.4563L-8 12.6394C-5.68447 9.59249 -2.57827 7.23803 1.3186 5.57606C5.27195 3.85869 9.6771 3 14.5341 3C18.8263 3 22.5537 3.69249 25.7164 5.07746C28.9355 6.40704 31.3923 8.31831 33.0866 10.8113C34.8373 13.3042 35.7127 16.2681 35.7127 19.7028C35.7127 21.5864 35.4586 23.47 34.9503 25.3535C34.442 27.1817 33.4819 29.1207 32.07 31.1704C30.6581 33.2202 28.5967 35.5192 25.8858 38.0676L5.63904 56.931L3.35175 52.8592H38V62H-5.71271Z" fill="#F8F8F8"/>
</g>
<defs>
<clipPath id="clip0_8_5435">
<path d="M0 0H38V68H10C4.47715 68 0 63.5228 0 58V0Z" fill="white"/>
</clipPath>
</defs>
</svg>
