<svg width="38" height="68" viewBox="0 0 38 68" fill="none" xmlns="http://www.w3.org/2000/svg">
<g clip-path="url(#clip0_8_5446)">
<path d="M15.4296 59C11.4099 59 7.47161 58.4183 3.61481 57.2549C-0.187654 56.0361 -3.39259 54.3742 -6 52.269L-1.43704 43.8761C0.62716 45.5934 3.12593 46.9784 6.05926 48.031C8.99259 49.0836 12.0617 49.6099 15.2667 49.6099C19.0691 49.6099 22.0296 48.8343 24.1481 47.2831C26.2667 45.6765 27.3259 43.516 27.3259 40.8014C27.3259 38.1423 26.3481 36.0371 24.3926 34.4859C22.437 32.9347 19.2864 32.1592 14.9407 32.1592H9.72593V24.7634L26.0222 4.98591L27.4074 9.05775H-3.22963V0H35.637V7.22958L19.3407 27.007L13.8 23.6831H16.9778C23.9852 23.6831 29.2272 25.2897 32.7037 28.5028C36.2346 31.6606 38 35.7324 38 40.7183C38 43.9869 37.1852 47.0061 35.5556 49.7761C33.9259 52.546 31.4272 54.7897 28.0593 56.507C24.7457 58.169 20.5358 59 15.4296 59Z" fill="#F8F8F8"/>
</g>
<defs>
<clipPath id="clip0_8_5446">
<path d="M0 0H38V68H10C4.47715 68 0 63.5228 0 58V0Z" fill="white"/>
</clipPath>
</defs>
</svg>
