<svg width="36" height="61" viewBox="0 0 36 61" fill="none" xmlns="http://www.w3.org/2000/svg">
<path d="M11.8907 61C7.59691 61 3.39013 60.3986 -0.729628 59.1958C-4.79136 57.9357 -8.21481 56.2174 -11 54.0408L-6.21296 45.3634C-4.00802 47.139 -1.33889 48.5709 1.79445 49.6592C4.9858 50.7474 8.29321 51.2915 11.7167 51.2915C15.7204 51.2915 18.8537 50.461 21.1167 48.8C23.4377 47.139 24.5981 44.9052 24.5981 42.0986C24.5981 40.2085 24.1049 38.5474 23.1185 37.1155C22.1901 35.6836 20.5074 34.5953 18.0704 33.8507C15.6914 33.1061 12.413 32.7338 8.23519 32.7338H-6.47407L-3.34074 0H32.4315V9.36479H0.837038L6.75556 4.03803L4.40556 28.5239L-1.51296 23.2831H10.7593C16.7938 23.2831 21.6389 24.085 25.2944 25.6887C29.008 27.2352 31.7062 29.4117 33.3889 32.2183C35.1296 34.9676 36 38.1178 36 41.669C36 45.1629 35.1296 48.3704 33.3889 51.2915C31.6481 54.2127 28.979 56.561 25.3815 58.3366C21.842 60.1122 17.3451 61 11.8907 61Z" fill="#F8F8F8"/>
</svg>
