<svg width="36" height="59" viewBox="0 0 36 59" fill="none" xmlns="http://www.w3.org/2000/svg">
<path d="M15.3918 59C10.2934 59 5.9195 57.9074 2.27013 55.7222C-1.37925 53.4824 -4.16995 50.2593 -6.10197 46.0528C-8.03399 41.8463 -9 36.6565 -9 30.4833C-9 23.9278 -7.84615 18.3829 -5.53846 13.8486C-3.1771 9.31435 0.069767 5.87269 4.20215 3.52361C8.38819 1.17454 13.1914 0 18.6118 0C21.4562 0 24.1664 0.300462 26.7424 0.901386C29.3721 1.50231 31.5993 2.43102 33.424 3.6875L29.5599 11.7181C28.0036 10.6801 26.3131 9.96991 24.4884 9.5875C22.7174 9.15047 20.839 8.93195 18.8533 8.93195C13.5403 8.93195 9.32737 10.5982 6.21467 13.9306C3.10197 17.263 1.54562 22.1796 1.54562 28.6806C1.54562 29.7185 1.57245 30.9477 1.62612 32.3681C1.67978 33.7338 1.86762 35.1269 2.18962 36.5472L-1.03041 32.9417C-0.0644007 30.7019 1.25045 28.8444 2.91413 27.3694C4.63148 25.8398 6.644 24.6926 8.9517 23.9278C11.3131 23.163 13.8623 22.7806 16.5993 22.7806C20.3023 22.7806 23.6029 23.5181 26.5009 24.9931C29.3989 26.4134 31.7066 28.462 33.424 31.1389C35.1413 33.7611 36 36.8477 36 40.3986C36 44.1681 35.0877 47.4458 33.263 50.2319C31.4383 53.0181 28.9696 55.1759 25.8569 56.7056C22.7442 58.2352 19.2558 59 15.3918 59ZM14.8283 50.6417C16.975 50.6417 18.8801 50.2593 20.5438 49.4944C22.2075 48.675 23.4955 47.5278 24.4079 46.0528C25.3739 44.5778 25.8569 42.8569 25.8569 40.8903C25.8569 37.8856 24.8372 35.5093 22.7979 33.7611C20.7585 32.013 18.0215 31.1389 14.5868 31.1389C12.3327 31.1389 10.347 31.5759 8.62969 32.45C6.96601 33.2694 5.62433 34.4167 4.60465 35.8917C3.63864 37.3667 3.15563 39.0602 3.15563 40.9722C3.15563 42.7204 3.61181 44.3319 4.52415 45.8069C5.43649 47.2819 6.75134 48.4565 8.46869 49.3306C10.2397 50.2046 12.3596 50.6417 14.8283 50.6417Z" fill="#F8F8F8"/>
</svg>
