<svg width="38" height="68" viewBox="0 0 38 68" fill="none" xmlns="http://www.w3.org/2000/svg">
<g clip-path="url(#clip0_8_5495)">
<path d="M9.41783 63C4.6521 63 0.516317 62.2898 -2.98951 60.8694C-6.49534 59.4491 -9.20688 57.4551 -11.1241 54.8875C-13.0414 52.2653 -14 49.206 -14 45.7097C-14 42.2134 -13.0688 39.2634 -11.2063 36.8597C-9.34382 34.456 -6.65967 32.6259 -3.15385 31.3694C0.351982 30.113 4.54254 29.4847 9.41783 29.4847C14.2931 29.4847 18.4837 30.113 21.9895 31.3694C25.5501 32.6259 28.2617 34.4833 30.1241 36.9417C32.0414 39.3454 33 42.2681 33 45.7097C33 49.206 32.014 52.2653 30.042 54.8875C28.1247 57.4551 25.3858 59.4491 21.8252 60.8694C18.3193 62.2898 14.1836 63 9.41783 63ZM9.41783 54.6417C13.3619 54.6417 16.4843 53.8222 18.785 52.1833C21.0857 50.5444 22.236 48.2773 22.236 45.3819C22.236 42.5412 21.0857 40.3014 18.785 38.6625C16.4843 37.0236 13.3619 36.2042 9.41783 36.2042C5.47378 36.2042 2.37879 37.0236 0.132868 38.6625C-2.11305 40.3014 -3.23601 42.5412 -3.23601 45.3819C-3.23601 48.2773 -2.11305 50.5444 0.132868 52.1833C2.37879 53.8222 5.47378 54.6417 9.41783 54.6417ZM9.41783 35.0569C4.98077 35.0569 1.17366 34.4833 -2.0035 33.3361C-5.18065 32.1343 -7.64569 30.4134 -9.3986 28.1736C-11.0967 25.8792 -11.9458 23.1477 -11.9458 19.9792C-11.9458 16.7014 -11.0693 13.888 -9.31643 11.5389C-7.50874 9.13518 -4.98893 7.27778 -1.75699 5.96667C1.47494 4.65555 5.19988 4 9.41783 4C13.6906 4 17.4429 4.65555 20.6748 5.96667C23.9068 7.27778 26.4266 9.13518 28.2343 11.5389C30.042 13.888 30.9458 16.7014 30.9458 19.9792C30.9458 23.1477 30.0693 25.8792 28.3164 28.1736C26.6183 30.4134 24.1533 32.1343 20.9213 33.3361C17.6894 34.4833 13.8549 35.0569 9.41783 35.0569ZM9.41783 28.5014C12.8141 28.5014 15.4983 27.7912 17.4703 26.3708C19.4423 24.8958 20.4283 22.9292 20.4283 20.4708C20.4283 17.9032 19.4149 15.9093 17.3881 14.4889C15.3613 13.0685 12.7045 12.3583 9.41783 12.3583C6.13112 12.3583 3.50175 13.0685 1.52972 14.4889C-0.442308 15.9093 -1.42832 17.9032 -1.42832 20.4708C-1.42832 22.9292 -0.469698 24.8958 1.44755 26.3708C3.41958 27.7912 6.07634 28.5014 9.41783 28.5014Z" fill="#F8F8F8"/>
</g>
<defs>
<clipPath id="clip0_8_5495">
<path d="M0 0H38V68H10C4.47715 68 0 63.5228 0 58V0Z" fill="white"/>
</clipPath>
</defs>
</svg>
