<svg width="38" height="68" viewBox="0 0 38 68" fill="none" xmlns="http://www.w3.org/2000/svg">
<g clip-path="url(#clip0_8_5504)">
<path d="M10.0662 4C15.3327 4 19.8038 5.11991 23.4794 7.35972C27.2099 9.54491 30.0626 12.7407 32.0376 16.9472C34.0125 21.1537 35 26.3435 35 32.5167C35 39.0722 33.7931 44.6171 31.3792 49.1514C29.0203 53.6856 25.7287 57.1273 21.5045 59.4764C17.2803 61.8255 12.3703 63 6.7746 63C3.86702 63 1.0966 62.6995 -1.53667 62.0986C-4.16995 61.4977 -6.44663 60.569 -8.36673 59.3125L-4.41682 51.2819C-2.82588 52.3199 -1.09779 53.0574 0.767443 53.4944C2.63268 53.8768 4.55277 54.0681 6.52773 54.0681C11.9589 54.0681 16.2654 52.4019 19.4472 49.0694C22.6291 45.737 24.22 40.8204 24.22 34.3194C24.22 33.2815 24.1926 32.0796 24.1377 30.7139C24.0829 29.2935 23.8909 27.8731 23.5617 26.4528L26.8533 30.0583C25.9207 32.2981 24.5766 34.1829 22.8211 35.7125C21.0656 37.1875 19.0083 38.3074 16.6494 39.0722C14.2904 39.837 11.6846 40.2194 8.83184 40.2194C5.10137 40.2194 1.72749 39.5093 -1.2898 38.0889C-4.25224 36.6139 -6.61121 34.5653 -8.36673 31.9431C-10.1222 29.2662 -11 26.1523 -11 22.6014C-11 18.7773 -10.0674 15.4995 -8.20215 12.7681C-6.33691 9.98194 -3.81336 7.82407 -0.631485 6.29444C2.60525 4.76481 6.17114 4 10.0662 4ZM10.6422 12.3583C8.44782 12.3583 6.5003 12.7681 4.79964 13.5875C3.09899 14.3523 1.75492 15.4722 0.767443 16.9472C-0.165175 18.3676 -0.631485 20.0884 -0.631485 22.1097C-0.631485 25.1144 0.410852 27.4907 2.49553 29.2389C4.5802 30.987 7.37806 31.8611 10.8891 31.8611C13.1932 31.8611 15.223 31.4514 16.9785 30.6319C18.734 29.7579 20.1055 28.5833 21.093 27.1083C22.0805 25.5787 22.5742 23.8852 22.5742 22.0278C22.5742 20.225 22.1079 18.6134 21.1753 17.1931C20.2427 15.7181 18.8986 14.5435 17.1431 13.6694C15.3876 12.7954 13.2206 12.3583 10.6422 12.3583Z" fill="#F8F8F8"/>
</g>
<defs>
<clipPath id="clip0_8_5504">
<path d="M0 0H38V68H10C4.47715 68 0 63.5228 0 58V0Z" fill="white"/>
</clipPath>
</defs>
</svg>
