<svg width="125" height="107" viewBox="0 0 125 107" fill="none" xmlns="http://www.w3.org/2000/svg">
<path d="M80.8944 107C72.6713 107 65.2407 104.919 58.6028 100.758C52.0639 96.5972 46.912 90.5537 43.1472 82.6278C39.3824 74.6028 37.5 64.8935 37.5 53.5C37.5 42.1065 39.3824 32.4468 43.1472 24.5208C46.912 16.4958 52.0639 10.4028 58.6028 6.24167C65.2407 2.08056 72.6713 0 80.8944 0C89.2167 0 96.6472 2.08056 103.186 6.24167C109.725 10.4028 114.877 16.4958 118.642 24.5208C122.506 32.4468 124.438 42.1065 124.438 53.5C124.438 64.8935 122.506 74.6028 118.642 82.6278C114.877 90.5537 109.725 96.5972 103.186 100.758C96.6472 104.919 89.2167 107 80.8944 107ZM80.8944 90.2069C85.7491 90.2069 89.9597 88.919 93.5264 86.343C97.0931 83.6681 99.8671 79.606 101.849 74.1569C103.929 68.7079 104.969 61.8222 104.969 53.5C104.969 45.0787 103.929 38.1931 101.849 32.8431C99.8671 27.394 97.0931 23.3815 93.5264 20.8055C89.9597 18.1306 85.7491 16.7931 80.8944 16.7931C76.238 16.7931 72.0768 18.1306 68.4111 20.8055C64.8444 23.3815 62.0208 27.394 59.9403 32.8431C57.9588 38.1931 56.9681 45.0787 56.9681 53.5C56.9681 61.8222 57.9588 68.7079 59.9403 74.1569C62.0208 79.606 64.8444 83.6681 68.4111 86.343C72.0768 88.919 76.238 90.2069 80.8944 90.2069Z" fill="#F8F8F8"/>
<path d="M12.3196 105.514V8.91701L20.7905 17.6851H-9.6748V1.48645H31.6391V105.514H12.3196Z" fill="#F8F8F8"/>
</svg>
