<svg width="77" height="113" viewBox="0 0 77 113" fill="none" xmlns="http://www.w3.org/2000/svg">
<path d="M-5.67403 113V99.1535L38.8674 57.1366C42.6059 53.6352 45.3831 50.5582 47.1989 47.9056C49.0147 45.2531 50.1897 42.8127 50.7238 40.5845C51.3646 38.2502 51.6851 36.0751 51.6851 34.0592C51.6851 28.9662 49.9227 25.0404 46.3978 22.2817C42.8729 19.4169 37.6925 17.9845 30.8564 17.9845C25.4088 17.9845 20.442 18.9394 15.9558 20.8493C11.5764 22.7592 7.78453 25.677 4.58011 29.6028L-10 18.462C-5.62063 12.6263 0.254143 8.1169 7.62431 4.93381C15.1013 1.6446 23.4328 0 32.6188 0C40.7366 0 47.7864 1.32629 53.768 3.97887C59.8564 6.52536 64.5028 10.1859 67.7072 14.9606C71.0184 19.7352 72.674 25.4117 72.674 31.9901C72.674 35.5977 72.1934 39.2052 71.232 42.8127C70.2707 46.3141 68.4549 50.0277 65.7845 53.9535C63.1142 57.8793 59.2155 62.2826 54.0884 67.1634L15.7956 103.292L11.4696 95.493H77V113H-5.67403Z" fill="#F8F8F8"/>
</svg>
