<svg width="72" height="110" viewBox="0 0 72 110" fill="none" xmlns="http://www.w3.org/2000/svg">
<path d="M28.3981 113C20.6327 113 13.0247 111.886 5.57407 109.658C-1.7716 107.323 -7.96296 104.14 -13 100.108L-4.18519 84.0338C-0.197531 87.323 4.62963 89.9756 10.2963 91.9916C15.963 94.0075 21.892 95.0155 28.0833 95.0155C35.429 95.0155 41.1482 93.53 45.2407 90.5592C49.3333 87.4822 51.3796 83.3441 51.3796 78.1451C51.3796 73.0521 49.4907 69.0202 45.713 66.0493C41.9352 63.0784 35.8488 61.593 27.4537 61.593H17.3796V47.4282L48.8611 9.54929L51.537 17.3479H-7.64815V0H67.4352V13.8465L35.9537 51.7253L25.25 45.3592H31.3889C44.9259 45.3592 55.0525 48.4361 61.7685 54.5901C68.5895 60.638 72 68.4366 72 77.9859C72 84.246 70.4259 90.0286 67.2778 95.3338C64.1296 100.639 59.3025 104.936 52.7963 108.225C46.3951 111.408 38.2623 113 28.3981 113Z" fill="#F8F8F8"/>
</svg>
