<svg width="72" height="112" viewBox="0 0 72 112" fill="none" xmlns="http://www.w3.org/2000/svg">
<path d="M26.3463 115C18.2154 115 10.2494 113.856 2.44815 111.569C-5.24321 109.173 -11.7259 105.905 -17 101.766L-7.93518 85.2648C-3.75988 88.6413 1.29445 91.3643 7.22778 93.4338C13.271 95.5033 19.534 96.538 26.0167 96.538C33.5981 96.538 39.5315 94.9587 43.8167 91.8C48.2117 88.6413 50.4093 84.3934 50.4093 79.0564C50.4093 75.462 49.4753 72.3033 47.6074 69.5803C45.8494 66.8573 42.663 64.7878 38.0481 63.3718C33.5432 61.9559 27.3352 61.2479 19.4241 61.2479H-8.42963L-2.49629 -1H65.2426V16.8085H5.41482L16.6222 6.67887L12.1722 53.2423L0.964817 43.2761H24.2037C35.6309 43.2761 44.8056 44.8009 51.7278 47.8507C58.7599 50.7916 63.8691 54.9305 67.0555 60.2676C70.3519 65.4958 72 71.4864 72 78.2394C72 84.8836 70.3519 90.9831 67.0555 96.538C63.7593 102.093 58.7049 106.559 51.8926 109.935C45.1901 113.312 36.6747 115 26.3463 115Z" fill="#F8F8F8"/>
</svg>
