<svg width="80" height="114" viewBox="0 0 80 114" fill="none" xmlns="http://www.w3.org/2000/svg">
<path d="M36.4517 121C25.8017 121 16.6652 118.759 9.04204 114.278C1.4189 109.684 -4.41056 103.074 -8.44633 94.4472C-12.4821 85.8204 -14.5 75.1768 -14.5 62.5167C-14.5 49.0722 -12.0897 37.7005 -7.26923 28.4014C-2.33661 19.1023 4.44573 12.044 13.0778 7.22639C21.822 2.4088 31.8554 0 43.178 0C49.1196 0 54.7809 0.616201 60.1619 1.84861C65.655 3.08102 70.3074 4.98565 74.119 7.5625L66.0474 24.0319C62.7964 21.9032 59.2651 20.4468 55.4535 19.6625C51.754 18.7662 47.8304 18.3181 43.6825 18.3181C32.5841 18.3181 23.7838 21.7352 17.2818 28.5694C10.7797 35.4037 7.52862 45.487 7.52862 58.8194C7.52862 60.9481 7.58467 63.469 7.69678 66.3819C7.80888 69.1829 8.20125 72.0398 8.87388 74.9528L2.14758 67.5583C4.16547 62.9648 6.91204 59.1556 10.3873 56.1306C13.9747 52.9935 18.1786 50.6407 22.9991 49.0722C27.9317 47.5037 33.2567 46.7194 38.9741 46.7194C46.7093 46.7194 53.6038 48.2319 59.6574 51.2569C65.7111 54.1699 70.5316 58.3713 74.119 63.8611C77.7063 69.2389 79.5 75.569 79.5 82.8514C79.5 90.5819 77.5942 97.3042 73.7826 103.018C69.9711 108.732 64.8142 113.157 58.3122 116.294C51.8101 119.431 44.5233 121 36.4517 121ZM35.2746 103.858C39.7588 103.858 43.7385 103.074 47.2138 101.506C50.689 99.825 53.3795 97.4722 55.2853 94.4472C57.3032 91.4222 58.3122 87.8931 58.3122 83.8597C58.3122 77.6977 56.1822 72.8241 51.9222 69.2389C47.6622 65.6537 41.9448 63.8611 34.7701 63.8611C30.0617 63.8611 25.9138 64.7574 22.3265 66.55C18.8512 68.2306 16.0486 70.5833 13.9186 73.6083C11.9007 76.6333 10.8918 80.1065 10.8918 84.0278C10.8918 87.613 11.8447 90.9181 13.7504 93.9431C15.6562 96.968 18.4028 99.3768 21.9902 101.169C25.6896 102.962 30.1178 103.858 35.2746 103.858Z" fill="#F8F8F8"/>
</svg>
