<svg width="88" height="114" viewBox="0 0 88 114" fill="none" xmlns="http://www.w3.org/2000/svg">
<path d="M38.3287 124C28.3916 124 19.7681 122.507 12.458 119.522C5.14802 116.537 -0.505828 112.346 -4.5035 106.95C-8.50117 101.439 -10.5 95.0093 -10.5 87.6611C-10.5 80.313 -8.55827 74.113 -4.67483 69.0611C-0.791376 64.0093 4.80536 60.163 12.1154 57.5222C19.4254 54.8815 28.1632 53.5611 38.3287 53.5611C48.4942 53.5611 57.2319 54.8815 64.542 57.5222C71.9662 60.163 77.62 64.0667 81.5035 69.2333C85.5012 74.2852 87.5 80.4278 87.5 87.6611C87.5 95.0093 85.4441 101.439 81.3322 106.95C77.3345 112.346 71.6235 116.537 64.1993 119.522C56.8893 122.507 48.2657 124 38.3287 124ZM38.3287 106.433C46.5524 106.433 53.0629 104.711 57.8601 101.267C62.6573 97.8222 65.0559 93.0574 65.0559 86.9722C65.0559 81.0018 62.6573 76.2944 57.8601 72.85C53.0629 69.4056 46.5524 67.6833 38.3287 67.6833C30.1049 67.6833 23.6515 69.4056 18.9685 72.85C14.2855 76.2944 11.9441 81.0018 11.9441 86.9722C11.9441 93.0574 14.2855 97.8222 18.9685 101.267C23.6515 104.711 30.1049 106.433 38.3287 106.433ZM38.3287 65.2722C29.0769 65.2722 21.1387 64.0667 14.514 61.6556C7.88928 59.1296 2.74942 55.513 -0.905595 50.8056C-4.44639 45.9833 -6.21678 40.2426 -6.21678 33.5833C-6.21678 26.6944 -4.38928 20.7815 -0.734266 15.8444C3.03497 10.7926 8.28905 6.88888 15.028 4.13333C21.7669 1.37778 29.5338 0 38.3287 0C47.2378 0 55.0618 1.37778 61.8007 4.13333C68.5396 6.88888 73.7937 10.7926 77.5629 15.8444C81.3322 20.7815 83.2168 26.6944 83.2168 33.5833C83.2168 40.2426 81.3893 45.9833 77.7343 50.8056C74.1935 55.513 69.0536 59.1296 62.3147 61.6556C55.5758 64.0667 47.5804 65.2722 38.3287 65.2722ZM38.3287 51.4944C45.4103 51.4944 51.007 50.0019 55.1189 47.0167C59.2308 43.9167 61.2867 39.7833 61.2867 34.6167C61.2867 29.2204 59.1737 25.0296 54.9476 22.0444C50.7214 19.0593 45.1818 17.5667 38.3287 17.5667C31.4755 17.5667 25.993 19.0593 21.8811 22.0444C17.7692 25.0296 15.7133 29.2204 15.7133 34.6167C15.7133 39.7833 17.7121 43.9167 21.7098 47.0167C25.8217 50.0019 31.3613 51.4944 38.3287 51.4944Z" fill="#F8F8F8"/>
</svg>
