<svg width="85" height="114" viewBox="0 0 85 114" fill="none" xmlns="http://www.w3.org/2000/svg">
<path d="M33.0063 0C43.8828 0 53.1166 2.31574 60.7075 6.94722C68.4118 11.4657 74.3032 18.0741 78.3819 26.7722C82.4606 35.4704 84.5 46.2018 84.5 58.9667C84.5 72.5222 82.0075 83.988 77.0224 93.3639C72.1506 102.74 65.3527 109.856 56.6288 114.714C47.9049 119.571 37.7648 122 26.2084 122C20.2036 122 14.4821 121.379 9.04383 120.136C3.60555 118.894 -1.0963 116.973 -5.06172 114.375L3.09571 97.7694C6.38133 99.9157 9.95021 101.441 13.8023 102.344C17.6544 103.135 21.6199 103.531 25.6986 103.531C36.915 103.531 45.8089 100.085 52.3801 93.1944C58.9514 86.3037 62.237 76.137 62.237 62.6944C62.237 60.5481 62.1804 58.063 62.0671 55.2389C61.9538 52.3019 61.5573 49.3648 60.8775 46.4278L67.6753 53.8833C65.7493 58.5148 62.9735 62.412 59.3479 65.575C55.7224 68.625 51.4738 70.9407 46.602 72.5222C41.7302 74.1037 36.3485 74.8944 30.4571 74.8944C22.7528 74.8944 15.785 73.4259 9.55367 70.4889C3.4356 67.4389 -1.4362 63.2028 -5.06172 57.7806C-8.68724 52.2454 -10.5 45.8065 -10.5 38.4639C-10.5 30.5565 -8.57394 23.7787 -4.72183 18.1306C-0.869708 12.3694 4.34198 7.9074 10.9132 4.74444C17.5978 1.58148 24.9621 0 33.0063 0ZM34.1959 17.2833C29.664 17.2833 25.6419 18.1306 22.1297 19.825C18.6175 21.4065 15.8417 23.7222 13.8023 26.7722C11.8763 29.7093 10.9132 33.2676 10.9132 37.4472C10.9132 43.6602 13.0659 48.5741 17.3712 52.1889C21.6765 55.8037 27.4547 57.6111 34.7057 57.6111C39.4642 57.6111 43.6562 56.7639 47.2818 55.0694C50.9073 53.262 53.7397 50.8333 55.7791 47.7833C57.8184 44.6204 58.8381 41.1185 58.8381 37.2778C58.8381 33.55 57.8751 30.2176 55.949 27.2806C54.023 24.2306 51.2472 21.8019 47.6216 19.9944C43.9961 18.187 39.5209 17.2833 34.1959 17.2833Z" fill="#F8F8F8"/>
</svg>
