<svg width="16" height="16" viewBox="0 0 16 16" fill="none" xmlns="http://www.w3.org/2000/svg">
<path d="M14.5938 6.59375H9.40625V1.40625C9.40625 0.629594 8.77666 0 8 0C7.22334 0 6.59375 0.629594 6.59375 1.40625V6.59375H1.40625C0.629594 6.59375 0 7.22334 0 8C0 8.77666 0.629594 9.40625 1.40625 9.40625H6.59375V14.5938C6.59375 15.3704 7.22334 16 8 16C8.77666 16 9.40625 15.3704 9.40625 14.5938V9.40625H14.5938C15.3704 9.40625 16 8.77666 16 8C16 7.22334 15.3704 6.59375 14.5938 6.59375Z" fill="#006BE9"/>
</svg>
