<svg width="18" height="18" viewBox="0 0 18 18" fill="none" xmlns="http://www.w3.org/2000/svg">
<path d="M16.4633 0.779376L0.629531 6.61287C0.378691 6.70704 0.21952 6.95954 0.247854 7.22788C0.260985 7.35846 0.317565 7.48084 0.408529 7.57543C0.499493 7.67002 0.619574 7.73134 0.749534 7.74956L9.06226 8.9371L10.2498 17.2498C10.2873 17.5173 10.5031 17.7248 10.7706 17.7523C10.9523 17.7723 11.1273 17.7057 11.2498 17.5832C11.309 17.524 11.3557 17.4523 11.3857 17.3707L17.2191 1.5369C17.2991 1.32022 17.2458 1.07855 17.0833 0.916046C16.9208 0.753541 16.6791 0.700206 16.4633 0.779376Z" fill="#E51017"/>
</svg>
