<svg width="20" height="18" viewBox="0 0 20 18" fill="none" xmlns="http://www.w3.org/2000/svg">
<path d="M18.895 8.57063L1.38522 0.489187C1.10641 0.362578 0.773726 0.438005 0.579772 0.677754C0.484865 0.793885 0.431686 0.938511 0.428755 1.08846C0.425824 1.23841 0.473312 1.385 0.563609 1.50475L6.32163 9.18212L0.563609 16.8595C0.377736 17.106 0.38447 17.4481 0.578425 17.6865C0.709075 17.8495 0.904376 17.937 1.10237 17.937C1.198 17.937 1.29363 17.9168 1.38387 17.8751L18.8937 9.79362C19.1334 9.68317 19.2856 9.44477 19.2856 9.18212C19.2856 8.91948 19.1334 8.68107 18.895 8.57063Z" fill="white"/>
</svg>
