<svg width="14" height="13" viewBox="0 0 14 13" fill="none" xmlns="http://www.w3.org/2000/svg">
<path d="M13.4266 5.69951L1.16973 0.0425044C0.974562 -0.0461221 0.741682 0.00667671 0.605913 0.174501C0.539479 0.255793 0.502253 0.357031 0.500202 0.461996C0.49815 0.566961 0.531392 0.669577 0.594599 0.753402L4.62522 6.12756L0.594599 11.5017C0.464488 11.6743 0.469202 11.9137 0.604971 12.0806C0.696426 12.1947 0.833137 12.256 0.971733 12.256C1.03867 12.256 1.10562 12.2418 1.16879 12.2126L13.4256 6.55561C13.5935 6.47829 13.7 6.31141 13.7 6.12756C13.7 5.94371 13.5935 5.77682 13.4266 5.69951Z" fill="#E51017"/>
</svg>
