<svg width="18" height="17" viewBox="0 0 18 17" fill="none" xmlns="http://www.w3.org/2000/svg">
<g clip-path="url(#clip0_8_4768)">
<path d="M9.9439 12.8343L17.2294 5.4059C17.3436 5.28761 17.2756 5.14647 17.0594 5.06419C16.9548 5.02393 16.8244 5.00137 16.6892 5.00012C16.554 4.99888 16.4218 5.01903 16.3139 5.05733L9.39263 7.50013L2.47137 5.05733C2.24916 4.97848 1.94074 4.98133 1.72582 5.06362C1.57889 5.11905 1.49997 5.2019 1.49997 5.2859C1.49997 5.32647 1.51818 5.36704 1.55582 5.40532L8.84136 12.8337C8.94093 12.9354 9.15585 13 9.39263 13C9.62941 13 9.84433 12.9354 9.9439 12.8343Z" fill="#006BE9"/>
</g>
<defs>
<clipPath id="clip0_8_4768">
<rect width="17" height="17" fill="white" transform="translate(0.5)"/>
</clipPath>
</defs>
</svg>
