<svg width="16" height="16" viewBox="0 0 16 16" fill="none" xmlns="http://www.w3.org/2000/svg">
<g clip-path="url(#clip0_8_1509)">
<path d="M15 3.46499V5.49999H1V3.46499C1.00514 3.07197 1.16594 2.69702 1.44714 2.42239C1.72833 2.14776 2.10696 1.99585 2.5 1.99999H3.5V2.99999C3.5 3.39782 3.65804 3.77935 3.93934 4.06065C4.22064 4.34196 4.60218 4.49999 5 4.49999C5.39782 4.49999 5.77936 4.34196 6.06066 4.06065C6.34196 3.77935 6.5 3.39782 6.5 2.99999V1.99999H9.5V2.99999C9.5 3.39782 9.65804 3.77935 9.93934 4.06065C10.2206 4.34196 10.6022 4.49999 11 4.49999C11.3978 4.49999 11.7794 4.34196 12.0607 4.06065C12.342 3.77935 12.5 3.39782 12.5 2.99999V1.99999H13.5C13.893 1.99585 14.2717 2.14776 14.5529 2.42239C14.8341 2.69702 14.9949 3.07197 15 3.46499ZM1 6.49999V14.535C1.00514 14.928 1.16594 15.303 1.44714 15.5776C1.72833 15.8522 2.10696 16.0041 2.5 16H13.5C13.893 16.0041 14.2717 15.8522 14.5529 15.5776C14.8341 15.303 14.9949 14.928 15 14.535V6.49999H1ZM5.5 13.5C5.4996 13.6325 5.4468 13.7594 5.35312 13.8531C5.25943 13.9468 5.13249 13.9996 5 14H4C3.86751 13.9996 3.74057 13.9468 3.64688 13.8531C3.5532 13.7594 3.5004 13.6325 3.5 13.5V12.5C3.5004 12.3675 3.5532 12.2406 3.64688 12.1469C3.74057 12.0532 3.86751 12.0004 4 12H5C5.13249 12.0004 5.25943 12.0532 5.35312 12.1469C5.4468 12.2406 5.4996 12.3675 5.5 12.5V13.5ZM5.5 9.99999C5.4996 10.1325 5.4468 10.2594 5.35312 10.3531C5.25943 10.4468 5.13249 10.4996 5 10.5H4C3.86751 10.4996 3.74057 10.4468 3.64688 10.3531C3.5532 10.2594 3.5004 10.1325 3.5 9.99999V8.99999C3.5004 8.8675 3.5532 8.74056 3.64688 8.64687C3.74057 8.55319 3.86751 8.50039 4 8.49999H5C5.13249 8.50039 5.25943 8.55319 5.35312 8.64687C5.4468 8.74056 5.4996 8.8675 5.5 8.99999V9.99999ZM9 13.5C8.9996 13.6325 8.9468 13.7594 8.85312 13.8531C8.75943 13.9468 8.63249 13.9996 8.5 14H7.5C7.36751 13.9996 7.24057 13.9468 7.14688 13.8531C7.0532 13.7594 7.0004 13.6325 7 13.5V12.5C7.0004 12.3675 7.0532 12.2406 7.14688 12.1469C7.24057 12.0532 7.36751 12.0004 7.5 12H8.5C8.63249 12.0004 8.75943 12.0532 8.85312 12.1469C8.9468 12.2406 8.9996 12.3675 9 12.5V13.5ZM9 9.99999C8.9996 10.1325 8.9468 10.2594 8.85312 10.3531C8.75943 10.4468 8.63249 10.4996 8.5 10.5H7.5C7.36751 10.4996 7.24057 10.4468 7.14688 10.3531C7.0532 10.2594 7.0004 10.1325 7 9.99999V8.99999C7.0004 8.8675 7.0532 8.74056 7.14688 8.64687C7.24057 8.55319 7.36751 8.50039 7.5 8.49999H8.5C8.63249 8.50039 8.75943 8.55319 8.85312 8.64687C8.9468 8.74056 8.9996 8.8675 9 8.99999V9.99999ZM12.5 9.99999C12.4996 10.1325 12.4468 10.2594 12.3531 10.3531C12.2594 10.4468 12.1325 10.4996 12 10.5H11C10.8675 10.4996 10.7406 10.4468 10.6469 10.3531C10.5532 10.2594 10.5004 10.1325 10.5 9.99999V8.99999C10.5004 8.8675 10.5532 8.74056 10.6469 8.64687C10.7406 8.55319 10.8675 8.50039 11 8.49999H12C12.1325 8.50039 12.2594 8.55319 12.3531 8.64687C12.4468 8.74056 12.4996 8.8675 12.5 8.99999V9.99999Z" fill="#006BE9"/>
<path d="M5.5 2V3C5.5 3.13261 5.44732 3.25979 5.35355 3.35355C5.25979 3.44732 5.13261 3.5 5 3.5C4.86739 3.5 4.74021 3.44732 4.64645 3.35355C4.55268 3.25979 4.5 3.13261 4.5 3V2C4.5 1.86739 4.55268 1.74021 4.64645 1.64645C4.74021 1.55268 4.86739 1.5 5 1.5C5.13261 1.5 5.25979 1.55268 5.35355 1.64645C5.44732 1.74021 5.5 1.86739 5.5 2ZM11.5 2V3C11.5 3.13261 11.4473 3.25979 11.3536 3.35355C11.2598 3.44732 11.1326 3.5 11 3.5C10.8674 3.5 10.7402 3.44732 10.6464 3.35355C10.5527 3.25979 10.5 3.13261 10.5 3V2C10.5 1.86739 10.5527 1.74021 10.6464 1.64645C10.7402 1.55268 10.8674 1.5 11 1.5C11.1326 1.5 11.2598 1.55268 11.3536 1.64645C11.4473 1.74021 11.5 1.86739 11.5 2Z" fill="#006BE9"/>
</g>
<defs>
<clipPath id="clip0_8_1509">
<rect width="16" height="16" fill="white"/>
</clipPath>
</defs>
</svg>
