<svg width="14" height="15" viewBox="0 0 14 15" fill="none" xmlns="http://www.w3.org/2000/svg">
<path d="M14 1.96499V3.99999H0V1.96499C0.00514132 1.57197 0.165942 1.19702 0.447136 0.922392C0.728331 0.647758 1.10696 0.495853 1.5 0.499991H2.5V1.49999C2.5 1.89782 2.65804 2.27935 2.93934 2.56065C3.22064 2.84196 3.60218 2.99999 4 2.99999C4.39782 2.99999 4.77936 2.84196 5.06066 2.56065C5.34196 2.27935 5.5 1.89782 5.5 1.49999V0.499991H8.5V1.49999C8.5 1.89782 8.65804 2.27935 8.93934 2.56065C9.22064 2.84196 9.60218 2.99999 10 2.99999C10.3978 2.99999 10.7794 2.84196 11.0607 2.56065C11.342 2.27935 11.5 1.89782 11.5 1.49999V0.499991H12.5C12.893 0.495853 13.2717 0.647758 13.5529 0.922392C13.8341 1.19702 13.9949 1.57197 14 1.96499ZM0 4.99999V13.035C0.00514132 13.428 0.165942 13.803 0.447136 14.0776C0.728331 14.3522 1.10696 14.5041 1.5 14.5H12.5C12.893 14.5041 13.2717 14.3522 13.5529 14.0776C13.8341 13.803 13.9949 13.428 14 13.035V4.99999H0ZM4.5 12C4.4996 12.1325 4.4468 12.2594 4.35312 12.3531C4.25943 12.4468 4.13249 12.4996 4 12.5H3C2.86751 12.4996 2.74057 12.4468 2.64688 12.3531C2.5532 12.2594 2.5004 12.1325 2.5 12V11C2.5004 10.8675 2.5532 10.7406 2.64688 10.6469C2.74057 10.5532 2.86751 10.5004 3 10.5H4C4.13249 10.5004 4.25943 10.5532 4.35312 10.6469C4.4468 10.7406 4.4996 10.8675 4.5 11V12ZM4.5 8.49999C4.4996 8.63248 4.4468 8.75942 4.35312 8.85311C4.25943 8.94679 4.13249 8.99959 4 8.99999H3C2.86751 8.99959 2.74057 8.94679 2.64688 8.85311C2.5532 8.75942 2.5004 8.63248 2.5 8.49999V7.49999C2.5004 7.3675 2.5532 7.24056 2.64688 7.14687C2.74057 7.05319 2.86751 7.00039 3 6.99999H4C4.13249 7.00039 4.25943 7.05319 4.35312 7.14687C4.4468 7.24056 4.4996 7.3675 4.5 7.49999V8.49999ZM8 12C7.9996 12.1325 7.9468 12.2594 7.85312 12.3531C7.75943 12.4468 7.63249 12.4996 7.5 12.5H6.5C6.36751 12.4996 6.24057 12.4468 6.14688 12.3531C6.0532 12.2594 6.0004 12.1325 6 12V11C6.0004 10.8675 6.0532 10.7406 6.14688 10.6469C6.24057 10.5532 6.36751 10.5004 6.5 10.5H7.5C7.63249 10.5004 7.75943 10.5532 7.85312 10.6469C7.9468 10.7406 7.9996 10.8675 8 11V12ZM8 8.49999C7.9996 8.63248 7.9468 8.75942 7.85312 8.85311C7.75943 8.94679 7.63249 8.99959 7.5 8.99999H6.5C6.36751 8.99959 6.24057 8.94679 6.14688 8.85311C6.0532 8.75942 6.0004 8.63248 6 8.49999V7.49999C6.0004 7.3675 6.0532 7.24056 6.14688 7.14687C6.24057 7.05319 6.36751 7.00039 6.5 6.99999H7.5C7.63249 7.00039 7.75943 7.05319 7.85312 7.14687C7.9468 7.24056 7.9996 7.3675 8 7.49999V8.49999ZM11.5 8.49999C11.4996 8.63248 11.4468 8.75942 11.3531 8.85311C11.2594 8.94679 11.1325 8.99959 11 8.99999H10C9.86751 8.99959 9.74057 8.94679 9.64688 8.85311C9.5532 8.75942 9.5004 8.63248 9.5 8.49999V7.49999C9.5004 7.3675 9.5532 7.24056 9.64688 7.14687C9.74057 7.05319 9.86751 7.00039 10 6.99999H11C11.1325 7.00039 11.2594 7.05319 11.3531 7.14687C11.4468 7.24056 11.4996 7.3675 11.5 7.49999V8.49999Z" fill="#E51017"/>
<path d="M4.5 0.5V1.5C4.5 1.63261 4.44732 1.75979 4.35355 1.85355C4.25979 1.94732 4.13261 2 4 2C3.86739 2 3.74021 1.94732 3.64645 1.85355C3.55268 1.75979 3.5 1.63261 3.5 1.5V0.5C3.5 0.367392 3.55268 0.240215 3.64645 0.146447C3.74021 0.0526784 3.86739 0 4 0C4.13261 0 4.25979 0.0526784 4.35355 0.146447C4.44732 0.240215 4.5 0.367392 4.5 0.5ZM10.5 0.5V1.5C10.5 1.63261 10.4473 1.75979 10.3536 1.85355C10.2598 1.94732 10.1326 2 10 2C9.86739 2 9.74021 1.94732 9.64645 1.85355C9.55268 1.75979 9.5 1.63261 9.5 1.5V0.5C9.5 0.367392 9.55268 0.240215 9.64645 0.146447C9.74021 0.0526784 9.86739 0 10 0C10.1326 0 10.2598 0.0526784 10.3536 0.146447C10.4473 0.240215 10.5 0.367392 10.5 0.5Z" fill="#E51017"/>
</svg>
