<svg width="31" height="31" viewBox="0 0 31 31" fill="none" xmlns="http://www.w3.org/2000/svg">
<path d="M14.7923 12.3538L15.4994 13.0609L16.2065 12.3538L23.3135 5.24685C23.987 4.57334 25.0789 4.57334 25.7525 5.24685C26.426 5.92036 26.426 7.01231 25.7525 7.68582L18.6455 14.7928L17.9384 15.4999L18.6455 16.207L25.7525 23.314C26.426 23.9875 26.426 25.0794 25.7525 25.7529C25.0789 26.4265 23.987 26.4265 23.3135 25.7529L16.2065 18.646L15.4994 17.9389L14.7923 18.646L7.68533 25.7529C7.01182 26.4265 5.91987 26.4265 5.24636 25.7529C4.57285 25.0794 4.57285 23.9875 5.24636 23.314L12.3533 16.207L13.0604 15.4999L12.3533 14.7928L5.24636 7.68582C4.57285 7.01231 4.57285 5.92036 5.24636 5.24685C5.91987 4.57334 7.01182 4.57334 7.68533 5.24685L14.7923 12.3538Z" fill="#E51017" stroke="white" stroke-width="2"/>
</svg>
