<svg width="25" height="25" viewBox="0 0 25 25" fill="none" xmlns="http://www.w3.org/2000/svg">
<path d="M11.7928 9.35391L12.4999 10.061L13.207 9.35391L20.314 2.24694C20.9875 1.57343 22.0794 1.57343 22.7529 2.24694C23.4265 2.92045 23.4265 4.01239 22.7529 4.6859L15.646 11.7929L14.9389 12.5L15.646 13.2071L22.7529 20.3141C23.4265 20.9876 23.4265 22.0795 22.7529 22.753C22.0794 23.4265 20.9875 23.4265 20.314 22.753L13.207 15.6461L12.4999 14.939L11.7928 15.6461L4.68582 22.753C4.01231 23.4265 2.92036 23.4265 2.24685 22.753C1.57334 22.0795 1.57334 20.9876 2.24685 20.3141L9.35383 13.2071L10.0609 12.5L9.35383 11.7929L2.24685 4.6859C1.57334 4.01239 1.57334 2.92045 2.24685 2.24694C2.92036 1.57343 4.01231 1.57343 4.68582 2.24694L11.7928 9.35391Z" fill="#707A8E" stroke="white" stroke-width="2"/>
</svg>
