<svg width="18" height="18" viewBox="0 0 18 18" fill="none" xmlns="http://www.w3.org/2000/svg">
<path d="M8.46555 7.30568L8.64232 7.48245L8.8191 7.30568L11.6107 4.51412C11.931 4.19381 12.4503 4.19381 12.7706 4.51412C13.0909 4.83443 13.0909 5.35375 12.7706 5.67406L9.97904 8.46562L9.80227 8.6424L9.97904 8.81917L12.7706 11.6107C13.0909 11.931 13.0909 12.4504 12.7706 12.7707C12.4503 13.091 11.931 13.091 11.6107 12.7707L8.8191 9.97911L8.64232 9.80234L8.46555 9.97911L5.67399 12.7707C5.35368 13.091 4.83436 13.091 4.51405 12.7707C4.19374 12.4504 4.19374 11.931 4.51405 11.6107L7.30561 8.81917L7.48238 8.6424L7.30561 8.46562L4.51405 5.67406C4.19374 5.35375 4.19374 4.83443 4.51405 4.51412C4.83436 4.19381 5.35368 4.19381 5.67399 4.51412L8.46555 7.30568Z" fill="#E51017" stroke="white" stroke-width="0.5"/>
</svg>
