<svg width="15" height="15" viewBox="0 0 15 15" fill="none" xmlns="http://www.w3.org/2000/svg">
<g clip-path="url(#clip0_8_5700)">
<path d="M7.32314 5.81234L7.49991 5.98911L7.67669 5.81234L11.1155 2.37348C11.5328 1.95625 12.2092 1.95625 12.6264 2.37348C13.0437 2.7907 13.0437 3.46714 12.6264 3.88436L9.18758 7.32322L9.0108 7.5L9.18758 7.67678L12.6264 11.1156C13.0437 11.5329 13.0437 12.2093 12.6264 12.6265C12.2092 13.0437 11.5328 13.0437 11.1155 12.6265L7.67669 9.18766L7.49991 9.01089L7.32314 9.18766L3.88428 12.6265C3.46705 13.0437 2.79061 13.0437 2.37339 12.6265C1.95616 12.2093 1.95616 11.5329 2.37339 11.1156L5.81225 7.67678L5.98902 7.5L5.81225 7.32322L2.37339 3.88436C1.95616 3.46714 1.95616 2.7907 2.37339 2.37348C2.79061 1.95625 3.46705 1.95625 3.88428 2.37348L7.32314 5.81234Z" fill="#E51017" stroke="white" stroke-width="0.5"/>
</g>
<defs>
<clipPath id="clip0_8_5700">
<rect width="15" height="15" fill="white"/>
</clipPath>
</defs>
</svg>
