<svg width="38" height="74" viewBox="0 0 38 74" fill="none" xmlns="http://www.w3.org/2000/svg">
<path d="M51.4527 22.88C51.4512 23.6424 51.7561 24.373 52.2984 24.9117C52.8405 25.4501 53.5754 25.7529 54.3415 25.7553H54.3431C55.9386 25.7553 57.2487 24.4737 57.2487 22.881C57.2487 21.2948 55.9361 20.0202 54.3431 20.0202C52.7549 20.0202 51.4532 21.2974 51.4527 22.88ZM51.4527 22.88L51.9527 22.881H51.4527C51.4527 22.8806 51.4527 22.8803 51.4527 22.88ZM57.8509 26.3387C56.923 27.2554 55.6644 27.7727 54.35 27.7757C53.0631 27.7369 51.8425 27.2035 50.9465 26.292C50.0492 25.3792 49.5483 24.1579 49.5483 22.8878C49.5483 21.6176 50.0492 20.3963 50.9465 19.4835C51.8423 18.5722 53.0629 18.0401 54.3503 18.0013C55.6627 18.0028 56.9201 18.5177 57.8478 19.4317C58.7767 20.3469 59.2995 21.5873 59.3036 22.8809C59.302 24.1769 58.7802 25.4206 57.8509 26.3387ZM16.0811 44.2591C16.0811 46.9541 13.8605 49.1568 11.1206 49.1568C8.38039 49.1568 6.1571 46.9537 6.1571 44.2591C6.1571 41.5642 8.37761 39.3613 11.1191 39.3613C13.8606 39.3613 16.0811 41.5642 16.0811 44.2591ZM14.0263 44.2591C14.0263 42.6659 12.7172 41.3802 11.1206 41.3802C9.52318 41.3802 8.21191 42.6653 8.21191 44.2591C8.21191 45.8525 9.52124 47.1379 11.1191 47.1379C12.7168 47.1379 14.0263 45.8542 14.0263 44.2591ZM43.0749 44.2591C43.0749 46.954 40.8544 49.1568 38.1129 49.1568C35.3714 49.1568 33.1509 46.954 33.1509 44.2591C33.1509 41.5642 35.3714 39.3613 38.1129 39.3613C40.8544 39.3613 43.0749 41.5642 43.0749 44.2591ZM41.0201 44.2591C41.0201 42.6659 39.7125 41.3802 38.1129 41.3802C36.515 41.3802 35.2057 42.6657 35.2057 44.2591C35.2057 45.8525 36.515 47.1379 38.1129 47.1379C39.7105 47.1379 41.0201 45.8542 41.0201 44.2591ZM31.1449 10.0821H17.9939C17.7196 10.0821 17.4576 9.97433 17.2654 9.78436C17.0733 9.59458 16.9665 9.33846 16.9665 9.07267C16.9665 8.80687 17.0733 8.55075 17.2654 8.36097C17.4576 8.171 17.7196 8.06323 17.9939 8.06323H31.1449C31.4193 8.06323 31.6812 8.171 31.8735 8.36097C32.0655 8.55075 32.1723 8.80687 32.1723 9.07267C32.1723 9.33846 32.0655 9.59458 31.8735 9.78436C31.6812 9.97433 31.4193 10.0821 31.1449 10.0821Z" fill="#72A3DD" stroke="white"/>
<path d="M49.6362 39.1164C51.0664 41.1642 52.2168 42.7062 53.3549 44.1276M49.6362 39.1164L67.1764 24.3163L67.1611 24.4114M49.6362 39.1164V38.3963H49.1362L48.7248 38.6805C48.8645 38.8828 49.0016 39.0804 49.1362 39.2736V45.4258C49.1362 49.4246 46.6656 52.8539 43.1565 54.325L43.1536 54.3179L42.6906 54.5065L42.8602 54.9769C42.8666 54.9746 42.873 54.9722 42.8794 54.9699L49.4722 71.1525M49.6362 39.1164L1.05202 73.1163C1.42774 73.2658 1.84816 73.2617 2.22081 73.1048M53.3549 44.1276C53.4979 44.3051 53.6796 44.4484 53.8864 44.5469C54.0932 44.6455 54.3198 44.6966 54.5493 44.6967M53.3549 44.1276L53.7452 43.8151C53.7451 43.815 53.745 43.8149 53.7449 43.8147M53.3549 44.1276L53.7442 43.8139C53.7444 43.8142 53.7447 43.8145 53.7449 43.8147M54.5493 44.6967H54.5554M54.5493 44.6967L54.5494 44.1967L54.5533 44.1967L54.5554 44.6967M54.5493 44.6967V44.1967C54.394 44.1966 54.2409 44.162 54.1014 44.0956C53.9623 44.0293 53.8405 43.9332 53.7449 43.8147M54.5554 44.6967C54.7862 44.6957 55.0136 44.6431 55.2208 44.5427C55.4279 44.4423 55.6094 44.2968 55.7514 44.1171C59.1911 39.8303 66.1072 29.9888 67.1611 24.4114M54.5554 44.6967V44.1967H54.5542C54.7099 44.1959 54.8633 44.1603 55.0027 44.0927C55.1424 44.025 55.2641 43.9272 55.3591 43.807L55.3614 43.8041C57.07 41.6748 59.647 38.1591 61.926 34.4847C64.215 30.794 66.1586 27.0129 66.6685 24.3254M67.1611 24.4114L66.6698 24.3186C66.6694 24.3209 66.6689 24.3232 66.6685 24.3254M67.1611 24.4114L66.6674 24.3321L66.6685 24.3254M66.6685 24.3254L66.6827 24.237L66.6843 24.2267L66.6864 24.2166C67.9068 18.2239 62.4944 10.7454 54.5493 10.7454C52.6996 10.7454 50.9194 11.1543 49.2833 11.9235L48.6657 12.2139L48.575 11.5376C48.4597 10.6788 48.1537 9.85544 47.6784 9.12657C47.2032 8.39773 46.5705 7.78125 45.8252 7.32162C41.3298 4.55745 34.0092 1.27368 24.6031 1.27368H24.471C15.1272 1.30368 7.85988 4.57836 3.40711 7.32146C2.53989 7.85697 1.82661 8.60267 1.33474 9.48693C0.842859 10.3712 0.588615 11.3648 0.595848 12.3731L0.595873 12.3767L0.59586 45.4258C0.59586 49.5141 3.32025 52.9914 7.07921 54.1713L7.59746 54.334L7.39251 54.8371L0.668876 71.3397M53.7449 43.8147C52.4864 42.2429 51.2106 40.5201 49.5476 38.1122L48.6362 36.7925V38.3963V45.4258C48.6362 49.3775 46.0877 52.7498 42.5209 54.0362L42.031 54.2128L42.2275 54.6952L49.0092 71.3411M49.0092 71.3411C49.0591 71.4637 49.084 71.5946 49.0827 71.7264C49.0813 71.8582 49.0537 71.9886 49.0013 72.1102L49.4605 72.3082M49.0092 71.3411L49.0092 71.3412L49.4722 71.1525M49.0092 71.3411L49.4722 71.1525M49.4605 72.3082L49.0013 72.1102C48.9489 72.2318 48.8726 72.3424 48.7764 72.4355C48.6803 72.5287 48.5662 72.6025 48.4405 72.6525C48.3148 72.7025 48.1802 72.7276 48.0444 72.7262C47.9086 72.7249 47.7746 72.6971 47.65 72.6446C47.5253 72.5922 47.4128 72.5161 47.3186 72.4211C47.2244 72.3262 47.1504 72.2141 47.1004 72.0915L46.6374 72.2801M49.4605 72.3082C49.3818 72.4906 49.2676 72.6559 49.1243 72.7947C48.981 72.9335 48.8114 73.043 48.6253 73.1171C48.4392 73.1911 48.2401 73.2282 48.0394 73.2262C47.8388 73.2242 47.6405 73.1832 47.4559 73.1055C47.2713 73.0277 47.104 72.9148 46.9636 72.7732C46.8231 72.6316 46.7123 72.464 46.6374 72.2801M49.4605 72.3082C49.5391 72.1257 49.5806 71.9298 49.5827 71.7315C49.5847 71.5332 49.5471 71.3365 49.4722 71.1525M46.6374 72.2801L47.1004 72.0915L45.0965 67.1722L44.9696 66.8608H44.6334H5.04312H4.70691L4.58007 67.1722L2.57616 72.0914L3.03917 72.2801M46.6374 72.2801L44.6334 67.3608H5.04312L3.03917 72.2801M3.03917 72.2801L2.57611 72.0915C2.47529 72.3387 2.27842 72.5381 2.02688 72.644L2.22081 73.1048M3.03917 72.2801C2.88783 72.6514 2.59346 72.948 2.22081 73.1048M2.22081 73.1048L2.02687 72.644C1.77513 72.7499 1.49073 72.7527 1.23683 72.6517C0.984101 72.5511 0.782737 72.3545 0.676629 72.1082C0.570978 71.863 0.568216 71.5868 0.668876 71.3397M0.668876 71.3397L0.205834 71.151L0.668876 71.3397ZM5.81115 64.1534L5.53066 64.842H6.27421H43.4039H44.1474L43.8669 64.1534L42.703 61.296L42.5762 60.9846H42.24H7.43809H7.10187L6.97503 61.296L5.81115 64.1534ZM41.0104 58.9658H41.7542L41.4734 58.277L40.0957 54.8974L39.9645 54.5755L39.617 54.5864C39.5585 54.5882 39.4999 54.5924 39.4581 54.5951C39.412 54.598 39.3782 54.5997 39.3471 54.5997H10.0393H9.70308L9.57622 54.911L8.20462 58.2771L7.92399 58.9658H8.66765H41.0104ZM2.65067 29.4454V29.9454H3.15067H23.042H23.542V29.4454V16.745V16.245H23.042H3.15067H2.65067V16.745V29.4454ZM26.0969 16.245H25.5969V16.745V29.4454V29.9454H26.0969H43.7368H44.5355L44.1866 29.227C43.2707 27.341 42.2375 24.8279 42.2375 22.8748C42.2375 20.8582 42.7422 18.9132 43.8188 16.9891L44.2352 16.245H43.3825H26.0969ZM64.6422 23.9826C64.6451 23.9521 64.6496 23.9217 64.6556 23.8917L64.6559 23.8917C65.1757 21.5114 64.2851 18.7284 62.4836 16.5607C60.6724 14.3813 57.8942 12.7642 54.5493 12.7642C48.8413 12.7642 44.2923 17.3764 44.2923 22.8748C44.2923 24.0777 44.7744 25.6014 45.4881 27.218C46.2086 28.85 47.1926 30.636 48.2526 32.383C50.3732 35.8781 52.8217 39.2554 54.1432 40.9987L54.5431 41.5263L54.9412 40.9974C56.4029 39.0552 58.5791 36.0266 60.5095 32.8895C62.4282 29.7716 64.1465 26.4804 64.6348 24.0322L64.6397 24.0076L64.6422 23.9826ZM4.49826 9.03328L4.49803 9.03342C3.33928 9.74826 2.65067 11.0009 2.65067 12.3767V13.7261V14.2261H3.15067H45.7301H45.9265L46.0704 14.0925C46.0994 14.0655 46.1309 14.0385 46.1706 14.0048L46.1797 13.9971C46.2144 13.9676 46.2561 13.9322 46.2974 13.8948C46.3353 13.8612 46.3681 13.8264 46.3826 13.8114C46.3941 13.7995 46.3999 13.7937 46.4024 13.7912C46.4035 13.7901 46.404 13.7897 46.404 13.7896L46.5814 13.6403V13.4076V12.3793C46.5882 11.7122 46.4222 11.0547 46.0996 10.4695C45.7766 9.8834 45.3074 9.38957 44.7374 9.03454L44.7351 9.03311C32.3252 1.398 16.9522 1.35949 4.49826 9.03328ZM3.15067 31.9627H2.65067V32.4627V44.9242H2.64914V45.4242C2.64914 49.1973 5.619 52.2515 9.34545 52.5282L9.36394 52.5295H9.38247H39.8496H39.8681L39.8866 52.5282C43.6115 52.2515 46.5814 49.1973 46.5814 45.4258V33.7125V33.5733L46.5094 33.4541C46.3702 33.2235 46.2476 33.0099 46.1222 32.7913C46.0496 32.6648 45.976 32.5366 45.8977 32.4023L45.8966 32.4005L45.7835 32.2088L45.6385 31.9627H45.3528H3.15067Z" fill="#72A3DD" stroke="white"/>
</svg>
