<svg width="53" height="66" viewBox="0 0 53 66" fill="none" xmlns="http://www.w3.org/2000/svg">
<g clip-path="url(#clip0_8_6470)">
<path d="M32.7327 28.6204L32.7333 28.6202L63.2977 14.675L63.2987 14.6746C63.4959 14.5835 63.7292 14.6007 63.9147 14.7176C64.0987 14.8377 64.2086 15.0395 64.2086 15.2609V50.7348C64.2086 50.9863 64.0611 51.2163 63.8316 51.3204L63.831 51.3206L33.2667 65.2658L33.2651 65.2665C33.1805 65.3058 33.0931 65.3242 33 65.3242C32.8772 65.3242 32.7579 65.2908 32.6493 65.223C32.4655 65.1029 32.3558 64.9012 32.3558 64.68V29.206C32.3558 28.9545 32.5032 28.7245 32.7327 28.6204ZM33.7904 29.5534L33.6442 29.6201V29.7809V63.2876V63.6764L33.9979 63.515L62.7739 50.3874L62.9202 50.3207V50.16V16.6532V16.2644L62.5664 16.4258L33.7904 29.5534ZM13.1647 51.7088L13.1632 51.7081L6.10762 48.489L6.10707 48.4888C5.87753 48.3847 5.7301 48.1547 5.7301 47.9032V41.4735C5.7301 41.2553 5.84101 41.0491 6.02512 40.9294C6.20748 40.8109 6.43998 40.7949 6.63998 40.8872L6.64098 40.8877L13.6966 44.1068L13.6971 44.107C13.9267 44.2111 14.0741 44.4411 14.0741 44.6926V51.1223C14.0741 51.3399 13.9638 51.5455 13.7807 51.6653C13.6725 51.7328 13.5491 51.7665 13.4299 51.7665C13.3368 51.7665 13.2494 51.7481 13.1647 51.7088ZM7.01849 47.3283V47.4891L7.16478 47.5558L12.432 49.9574L12.7857 50.1186V49.7299V45.2674V45.1067L12.6394 45.04L7.3722 42.6384L7.01849 42.4771V42.8659V47.3283Z" fill="#72A3DD" stroke="white" stroke-width="0.5"/>
<path d="M32.7348 65.2665L32.7333 65.2658L2.1689 51.3207L2.16835 51.3204C1.93881 51.2163 1.79138 50.9863 1.79138 50.7348V15.2651C1.79138 15.0469 1.90229 14.8407 2.0864 14.7211C2.26876 14.6025 2.50126 14.5865 2.70126 14.6788L2.70225 14.6793L33.2666 28.6245L33.2672 28.6247C33.4967 28.7288 33.6442 28.9588 33.6442 29.2103V64.68C33.6442 64.8975 33.5339 65.1032 33.3507 65.223C33.2421 65.2908 33.1228 65.3242 33 65.3242C32.9068 65.3242 32.8195 65.3058 32.7348 65.2665ZM3.07977 50.16V50.3207L3.22601 50.3874L32.002 63.515L32.3558 63.6764V63.2876V29.7809V29.6201L32.2095 29.5534L3.43353 16.4258L3.07977 16.2644V16.6533V50.16Z" fill="#72A3DD" stroke="white" stroke-width="0.5"/>
<path d="M20.0845 32.1898L20.083 32.1891L13.3127 29.102L13.3121 29.1017C12.9877 28.9548 12.8462 28.5717 12.9935 28.2496L12.9938 28.2488C13.1407 27.9245 13.5238 27.783 13.8459 27.9302L13.8461 27.9303L20.6164 31.0174L20.617 31.0177C20.9414 31.1646 21.0829 31.5476 20.9356 31.8697L20.9354 31.8702C20.8282 32.1061 20.5954 32.2474 20.3497 32.2474C20.2602 32.2474 20.1687 32.2289 20.0845 32.1898ZM63.2996 15.8516L63.2981 15.8509L33.1042 2.07605L33.0004 2.02871L32.8966 2.07605L2.70335 15.8506C2.70325 15.8506 2.70315 15.8507 2.70304 15.8507C2.37622 15.9985 1.99727 15.8565 1.85048 15.5324L1.62274 15.6355L1.85048 15.5324C1.70245 15.2055 1.84444 14.8263 2.16871 14.6795L2.16935 14.6792L32.7334 0.734188C32.7335 0.734164 32.7335 0.734141 32.7336 0.734117C32.9019 0.657638 33.0989 0.657638 33.2673 0.734117C33.2673 0.734141 33.2674 0.734164 33.2674 0.734188L63.8315 14.6792L63.8321 14.6795C64.1565 14.8264 64.298 15.2095 64.1507 15.5316L64.1505 15.532C64.0433 15.7679 63.8105 15.9092 63.5648 15.9092C63.4753 15.9092 63.3838 15.8907 63.2996 15.8516Z" fill="#72A3DD" stroke="white" stroke-width="0.5"/>
<path d="M13.3117 19.7635L13.3123 19.7632L43.876 5.81837C43.8762 5.81832 43.8763 5.81826 43.8764 5.81821C44.2032 5.67045 44.5821 5.81245 44.7289 6.1366C44.8769 6.46349 44.735 6.84264 44.4107 6.98948L44.41 6.98977L13.8457 20.9349L13.8441 20.9356C13.76 20.9747 13.6685 20.9933 13.579 20.9933C13.3333 20.9933 13.1005 20.852 12.9933 20.6162C12.8455 20.2894 12.9875 19.9103 13.3117 19.7635ZM20.0982 22.8401L20.0983 22.8401L20.1039 22.8376L50.6464 8.90547C50.6465 8.90539 50.6467 8.90532 50.6469 8.90524C50.9737 8.75759 51.3525 8.8996 51.4992 9.2237C51.6473 9.55059 51.5053 9.92974 51.181 10.0766L51.1804 10.0769L20.616 24.022L20.616 24.022L20.6113 24.0242C20.5343 24.0613 20.4444 24.0804 20.3493 24.0804C19.9934 24.0804 19.7051 23.7921 19.7051 23.4362C19.7051 23.1693 19.8679 22.9384 20.0982 22.8401Z" fill="#72A3DD" stroke="white" stroke-width="0.5"/>
<path d="M20.3492 32.2475C19.9933 32.2475 19.705 31.9592 19.705 31.6033V23.4364C19.705 23.0805 19.9933 22.7922 20.3492 22.7922C20.7051 22.7922 20.9934 23.0805 20.9934 23.4364V31.6033C20.9934 31.9592 20.7051 32.2475 20.3492 32.2475ZM13.5789 29.1562C13.223 29.1562 12.9347 28.8678 12.9347 28.512V20.3493C12.9347 19.9934 13.223 19.7051 13.5789 19.7051C13.9348 19.7051 14.2231 19.9934 14.2231 20.3493V28.5162C14.2231 28.8671 13.9355 29.1562 13.5789 29.1562Z" fill="#72A3DD" stroke="white" stroke-width="0.5"/>
</g>
<defs>
<clipPath id="clip0_8_6470">
<rect width="53" height="66" fill="white"/>
</clipPath>
</defs>
</svg>
