<svg width="42" height="37" viewBox="0 0 42 37" fill="none" xmlns="http://www.w3.org/2000/svg">
<g clip-path="url(#clip0_8_4953)">
<g clip-path="url(#clip1_8_4953)">
<mask id="mask0_8_4953" style="mask-type:luminance" maskUnits="userSpaceOnUse" x="-40" y="-22" width="82" height="82">
<path d="M41.4999 59.1666V-21.2998H-38.8242V59.1666H41.4999Z" fill="white" stroke="white"/>
</mask>
<g mask="url(#mask0_8_4953)">
<path d="M33.7041 28.6668C33.7041 32.8491 30.3195 36.2396 26.1443 36.2396C21.9693 36.2396 18.5847 32.8491 18.5847 28.6668C18.5847 24.4843 21.9693 21.094 26.1443 21.094C30.3195 21.094 33.7041 24.4843 33.7041 28.6668Z" stroke="#72A3DD" stroke-miterlimit="10" stroke-linecap="round" stroke-linejoin="round"/>
<path d="M29.9243 28.6667C29.9243 30.758 28.2321 32.4531 26.1445 32.4531C24.0571 32.4531 22.3647 30.758 22.3647 28.6667C22.3647 26.5755 24.0571 24.8803 26.1445 24.8803C28.2321 24.8803 29.9243 26.5755 29.9243 28.6667Z" stroke="#72A3DD" stroke-miterlimit="10" stroke-linecap="round" stroke-linejoin="round"/>
<path d="M39.492 26.7946H33.471C33.6262 27.4065 33.7046 28.0354 33.7043 28.6668C33.7043 29.3458 33.6135 30.0037 33.4463 30.6299H39.492C40.2192 30.6299 40.8087 30.0394 40.8087 29.311V28.1136C40.8087 27.3851 40.2192 26.7946 39.492 26.7946Z" stroke="#72A3DD" stroke-miterlimit="10" stroke-linecap="round" stroke-linejoin="round"/>
<path d="M34.4367 16.3124C34.3189 16.567 34.2577 16.8442 34.2573 17.1248V20.3954C34.2573 21.4729 35.1375 22.3545 36.2132 22.3545H39.4336C39.3653 19.4289 37.3012 16.9253 34.4367 16.3124Z" stroke="#72A3DD" stroke-miterlimit="10" stroke-linecap="round" stroke-linejoin="round"/>
<path d="M-14.5066 6.66794L-12.8738 16.3124H0.494421V5.82692C-3.66942 5.41785 -8.88309 5.42878 -14.5066 6.66794Z" stroke="#72A3DD" stroke-miterlimit="10" stroke-linecap="round" stroke-linejoin="round"/>
<path d="M3.77905 20.5043H5.16415" stroke="#72A3DD" stroke-miterlimit="10" stroke-linecap="round" stroke-linejoin="round"/>
<path d="M16.9048 15.2961V14.3661L10.2928 8.66204C9.25946 7.77039 8.01643 7.13827 6.6975 6.83387C1.69235 5.67797 -8.32179 4.2869 -19.1557 7.9598C-20.9711 8.57539 -22.5384 9.7989 -23.568 11.4048C-23.7323 11.661 -23.6802 12.0009 -23.4507 12.201L-18.9139 16.1602C-18.8014 16.2583 -18.6572 16.3124 -18.508 16.3124H17.2027C17.0085 16.0091 16.9051 15.6564 16.9048 15.2961Z" stroke="#72A3DD" stroke-miterlimit="10" stroke-linecap="round" stroke-linejoin="round"/>
<path d="M20.4653 11.7296H18.8046C17.7599 11.7296 16.905 12.586 16.905 13.6327V15.2961C16.905 16.3428 17.7599 17.199 18.8046 17.199H20.4653C21.5101 17.199 22.365 16.3428 22.365 15.2961V13.6327C22.365 12.586 21.5101 11.7296 20.4653 11.7296Z" stroke="#72A3DD" stroke-miterlimit="10" stroke-linecap="round" stroke-linejoin="round"/>
<path d="M3.07314 30.6299H18.843C18.6716 29.9896 18.5849 29.3295 18.5849 28.6666C18.5849 28.0205 18.6663 27.3934 18.8182 26.7946H-13.6417C-13.4866 27.4065 -13.4082 28.0353 -13.4085 28.6666C-13.4085 29.3458 -13.4991 30.0037 -13.6665 30.6299H-2.08469" stroke="#72A3DD" stroke-miterlimit="10" stroke-linecap="round" stroke-linejoin="round"/>
<path d="M12.2824 5.17733C10.8908 4.11697 9.29019 3.36476 7.58659 2.9705C2.37306 1.76633 -8.57361 0.18645 -20.4244 4.20434C-23.0883 5.10751 -25.3709 6.8849 -26.8927 9.25398L-30.6438 15.0934C-31.4499 16.3483 -31.8784 17.809 -31.8784 19.3013V22.9519C-31.8784 23.6429 -31.7865 24.3309 -31.6051 24.9975L-31.1159 26.7946H-28.2945C-27.4626 23.5177 -24.498 21.0937 -20.9682 21.0937C-17.4381 21.0937 -14.4737 23.5177 -13.6417 26.7946H18.8183C19.6502 23.5177 22.6146 21.0937 26.1446 21.0937C29.6746 21.0937 32.639 23.5177 33.4709 26.7946H39.4366V22.5033C39.4366 19.4941 37.3225 16.9008 34.3791 16.2992L23.4139 14.0584C23.0491 13.9833 22.6961 13.8588 22.3648 13.6885V15.2959C22.3648 16.3426 21.5099 17.199 20.4651 17.199H18.8046C17.7597 17.199 16.9049 16.3426 16.9049 15.2959V13.6325C16.9049 12.586 17.7597 11.7296 18.8046 11.7296H19.9138L16.2178 8.54125" stroke="#72A3DD" stroke-miterlimit="10" stroke-linecap="round" stroke-linejoin="round"/>
</g>
</g>
</g>
<defs>
<clipPath id="clip0_8_4953">
<rect width="42" height="37" fill="white" transform="matrix(-1 0 0 1 42 0)"/>
</clipPath>
<clipPath id="clip1_8_4953">
<rect width="51" height="39" fill="white" transform="translate(-9 -1)"/>
</clipPath>
</defs>
</svg>
