<svg width="31" height="37" viewBox="0 0 31 37" fill="none" xmlns="http://www.w3.org/2000/svg">
<mask id="path-1-inside-1_8_5023" fill="white">
<path d="M27.8125 22.0875C29.1623 22.0875 30.2667 20.9831 30.2667 19.6333V5.72639C30.2667 4.3766 29.1623 3.27222 27.8125 3.27222H19.6319V2.45417C19.6319 2.00424 19.2638 1.63611 18.8139 1.63611C18.364 1.63611 17.9958 2.00424 17.9958 2.45417V3.27222H14.7236V2.45417C14.7236 2.00424 14.3555 1.63611 13.9056 1.63611C13.4556 1.63611 13.0875 2.00424 13.0875 2.45417V3.27222H4.08889V1.63611H4.90694C5.35688 1.63611 5.725 1.26799 5.725 0.818056C5.725 0.368125 5.35688 0 4.90694 0H-2.45556C-2.90549 0 -3.27361 0.368125 -3.27361 0.818056C-3.27361 1.26799 -2.90549 1.63611 -2.45556 1.63611H-1.6375V3.27222H-6.54583C-7.89562 3.27222 -9 4.3766 -9 5.72639V19.6333C-9 20.9831 -7.89562 22.0875 -6.54583 22.0875H-5.72778V23.7236H-8.18194C-8.63188 23.7236 -9 24.0917 -9 24.5417V31.0861C-9 31.536 -8.63188 31.9042 -8.18194 31.9042H-6.54583C-6.54583 34.6119 -4.34526 36.8125 -1.6375 36.8125C1.07026 36.8125 3.27083 34.6119 3.27083 31.9042H17.1778C17.1778 34.6119 19.3783 36.8125 22.0861 36.8125C24.7939 36.8125 26.9944 34.6119 26.9944 31.9042C26.9944 29.1964 24.7939 26.9958 22.0861 26.9958C19.951 26.9958 18.1431 28.362 17.4641 30.2681H2.98451C2.30553 28.362 0.497625 26.9958 -1.6375 26.9958C-3.77262 26.9958 -5.58053 28.362 -6.25951 30.2681H-7.36389V25.3597H28.6306V30.2681H26.9944V31.9042H29.4486C29.8985 31.9042 30.2667 31.536 30.2667 31.0861V24.5417C30.2667 24.0917 29.8985 23.7236 29.4486 23.7236H26.9944V22.0875H27.8125ZM22.0861 28.6319C23.894 28.6319 25.3583 30.0963 25.3583 31.9042C25.3583 33.7121 23.894 35.1764 22.0861 35.1764C20.2782 35.1764 18.8139 33.7121 18.8139 31.9042C18.8139 30.0963 20.2782 28.6319 22.0861 28.6319ZM-1.6375 28.6319C0.170403 28.6319 1.63472 30.0963 1.63472 31.9042C1.63472 33.7121 0.170403 35.1764 -1.6375 35.1764C-3.4454 35.1764 -4.90972 33.7121 -4.90972 31.9042C-4.90972 30.0963 -3.4454 28.6319 -1.6375 28.6319ZM17.9958 4.90833V7.3625H14.7236V4.90833H17.9958ZM14.7236 8.99861H17.9958V11.4528H14.7236V8.99861ZM-0.00138855 1.63611H2.45278V3.27222H-0.00138855V1.63611ZM-6.54583 20.4514C-6.99576 20.4514 -7.36389 20.0833 -7.36389 19.6333V5.72639C-7.36389 5.27646 -6.99576 4.90833 -6.54583 4.90833H13.0875V16.3611C13.0875 16.811 13.4556 17.1792 13.9056 17.1792C14.3555 17.1792 14.7236 16.811 14.7236 16.3611V13.0889H17.9958V16.3611C17.9958 16.811 18.364 17.1792 18.8139 17.1792C19.2638 17.1792 19.6319 16.811 19.6319 16.3611V4.90833H27.8125C28.2624 4.90833 28.6306 5.27646 28.6306 5.72639V19.6333C28.6306 20.0833 28.2624 20.4514 27.8125 20.4514H26.9944V18.8153C26.9944 18.3653 26.6263 17.9972 26.1764 17.9972C25.7265 17.9972 25.3583 18.3653 25.3583 18.8153V20.4514H-4.09167V18.8153C-4.09167 18.3653 -4.45979 17.9972 -4.90972 17.9972C-5.35965 17.9972 -5.72778 18.3653 -5.72778 18.8153V20.4514H-6.54583ZM25.3583 23.7236H-4.09167V22.0875H25.3583V23.7236Z"/>
</mask>
<path d="M27.8125 22.0875C29.1623 22.0875 30.2667 20.9831 30.2667 19.6333V5.72639C30.2667 4.3766 29.1623 3.27222 27.8125 3.27222H19.6319V2.45417C19.6319 2.00424 19.2638 1.63611 18.8139 1.63611C18.364 1.63611 17.9958 2.00424 17.9958 2.45417V3.27222H14.7236V2.45417C14.7236 2.00424 14.3555 1.63611 13.9056 1.63611C13.4556 1.63611 13.0875 2.00424 13.0875 2.45417V3.27222H4.08889V1.63611H4.90694C5.35688 1.63611 5.725 1.26799 5.725 0.818056C5.725 0.368125 5.35688 0 4.90694 0H-2.45556C-2.90549 0 -3.27361 0.368125 -3.27361 0.818056C-3.27361 1.26799 -2.90549 1.63611 -2.45556 1.63611H-1.6375V3.27222H-6.54583C-7.89562 3.27222 -9 4.3766 -9 5.72639V19.6333C-9 20.9831 -7.89562 22.0875 -6.54583 22.0875H-5.72778V23.7236H-8.18194C-8.63188 23.7236 -9 24.0917 -9 24.5417V31.0861C-9 31.536 -8.63188 31.9042 -8.18194 31.9042H-6.54583C-6.54583 34.6119 -4.34526 36.8125 -1.6375 36.8125C1.07026 36.8125 3.27083 34.6119 3.27083 31.9042H17.1778C17.1778 34.6119 19.3783 36.8125 22.0861 36.8125C24.7939 36.8125 26.9944 34.6119 26.9944 31.9042C26.9944 29.1964 24.7939 26.9958 22.0861 26.9958C19.951 26.9958 18.1431 28.362 17.4641 30.2681H2.98451C2.30553 28.362 0.497625 26.9958 -1.6375 26.9958C-3.77262 26.9958 -5.58053 28.362 -6.25951 30.2681H-7.36389V25.3597H28.6306V30.2681H26.9944V31.9042H29.4486C29.8985 31.9042 30.2667 31.536 30.2667 31.0861V24.5417C30.2667 24.0917 29.8985 23.7236 29.4486 23.7236H26.9944V22.0875H27.8125ZM22.0861 28.6319C23.894 28.6319 25.3583 30.0963 25.3583 31.9042C25.3583 33.7121 23.894 35.1764 22.0861 35.1764C20.2782 35.1764 18.8139 33.7121 18.8139 31.9042C18.8139 30.0963 20.2782 28.6319 22.0861 28.6319ZM-1.6375 28.6319C0.170403 28.6319 1.63472 30.0963 1.63472 31.9042C1.63472 33.7121 0.170403 35.1764 -1.6375 35.1764C-3.4454 35.1764 -4.90972 33.7121 -4.90972 31.9042C-4.90972 30.0963 -3.4454 28.6319 -1.6375 28.6319ZM17.9958 4.90833V7.3625H14.7236V4.90833H17.9958ZM14.7236 8.99861H17.9958V11.4528H14.7236V8.99861ZM-0.00138855 1.63611H2.45278V3.27222H-0.00138855V1.63611ZM-6.54583 20.4514C-6.99576 20.4514 -7.36389 20.0833 -7.36389 19.6333V5.72639C-7.36389 5.27646 -6.99576 4.90833 -6.54583 4.90833H13.0875V16.3611C13.0875 16.811 13.4556 17.1792 13.9056 17.1792C14.3555 17.1792 14.7236 16.811 14.7236 16.3611V13.0889H17.9958V16.3611C17.9958 16.811 18.364 17.1792 18.8139 17.1792C19.2638 17.1792 19.6319 16.811 19.6319 16.3611V4.90833H27.8125C28.2624 4.90833 28.6306 5.27646 28.6306 5.72639V19.6333C28.6306 20.0833 28.2624 20.4514 27.8125 20.4514H26.9944V18.8153C26.9944 18.3653 26.6263 17.9972 26.1764 17.9972C25.7265 17.9972 25.3583 18.3653 25.3583 18.8153V20.4514H-4.09167V18.8153C-4.09167 18.3653 -4.45979 17.9972 -4.90972 17.9972C-5.35965 17.9972 -5.72778 18.3653 -5.72778 18.8153V20.4514H-6.54583ZM25.3583 23.7236H-4.09167V22.0875H25.3583V23.7236Z" fill="#72A3DD"/>
<path d="M19.6319 3.27222H19.3319V3.57222H19.6319V3.27222ZM17.9958 3.27222V3.57222H18.2958V3.27222H17.9958ZM14.7236 3.27222H14.4236V3.57222H14.7236V3.27222ZM13.0875 3.27222V3.57222H13.3875V3.27222H13.0875ZM4.08889 3.27222H3.78889V3.57222H4.08889V3.27222ZM4.08889 1.63611V1.33611H3.78889V1.63611H4.08889ZM-1.6375 1.63611H-1.3375V1.33611H-1.6375V1.63611ZM-1.6375 3.27222V3.57222H-1.3375V3.27222H-1.6375ZM-5.72778 22.0875H-5.42778V21.7875H-5.72778V22.0875ZM-5.72778 23.7236V24.0236H-5.42778V23.7236H-5.72778ZM-6.54583 31.9042H-6.24583V31.6042H-6.54583V31.9042ZM3.27083 31.9042V31.6042H2.97083V31.9042H3.27083ZM17.1778 31.9042H17.4778V31.6042H17.1778V31.9042ZM17.4641 30.2681V30.5681H17.6757L17.7467 30.3687L17.4641 30.2681ZM2.98451 30.2681L2.70191 30.3687L2.77291 30.5681H2.98451V30.2681ZM-6.25951 30.2681V30.5681H-6.04791L-5.97691 30.3687L-6.25951 30.2681ZM-7.36389 30.2681H-7.66389V30.5681H-7.36389V30.2681ZM-7.36389 25.3597V25.0597H-7.66389V25.3597H-7.36389ZM28.6306 25.3597H28.9306V25.0597H28.6306V25.3597ZM28.6306 30.2681V30.5681H28.9306V30.2681H28.6306ZM26.9944 30.2681V29.9681H26.6944V30.2681H26.9944ZM26.9944 23.7236H26.6944V24.0236H26.9944V23.7236ZM26.9944 22.0875V21.7875H26.6944V22.0875H26.9944ZM17.9958 4.90833H18.2958V4.60833H17.9958V4.90833ZM17.9958 7.3625V7.6625H18.2958V7.3625H17.9958ZM14.7236 7.3625H14.4236V7.6625H14.7236V7.3625ZM14.7236 4.90833V4.60833H14.4236V4.90833H14.7236ZM14.7236 8.99861V8.69861H14.4236V8.99861H14.7236ZM17.9958 8.99861H18.2958V8.69861H17.9958V8.99861ZM17.9958 11.4528V11.7528H18.2958V11.4528H17.9958ZM14.7236 11.4528H14.4236V11.7528H14.7236V11.4528ZM-0.00138855 1.63611V1.33611H-0.301389V1.63611H-0.00138855ZM2.45278 1.63611H2.75278V1.33611H2.45278V1.63611ZM2.45278 3.27222V3.57222H2.75278V3.27222H2.45278ZM-0.00138855 3.27222H-0.301389V3.57222H-0.00138855V3.27222ZM13.0875 4.90833H13.3875V4.60833H13.0875V4.90833ZM14.7236 13.0889V12.7889H14.4236V13.0889H14.7236ZM17.9958 13.0889H18.2958V12.7889H17.9958V13.0889ZM19.6319 4.90833V4.60833H19.3319V4.90833H19.6319ZM26.9944 20.4514H26.6944V20.7514H26.9944V20.4514ZM25.3583 20.4514V20.7514H25.6583V20.4514H25.3583ZM-4.09167 20.4514H-4.39167V20.7514H-4.09167V20.4514ZM-5.72778 20.4514V20.7514H-5.42778V20.4514H-5.72778ZM25.3583 23.7236V24.0236H25.6583V23.7236H25.3583ZM-4.09167 23.7236H-4.39167V24.0236H-4.09167V23.7236ZM-4.09167 22.0875V21.7875H-4.39167V22.0875H-4.09167ZM25.3583 22.0875H25.6583V21.7875H25.3583V22.0875ZM27.8125 22.3875C29.328 22.3875 30.5667 21.1488 30.5667 19.6333H29.9667C29.9667 20.8174 28.9966 21.7875 27.8125 21.7875V22.3875ZM30.5667 19.6333V5.72639H29.9667V19.6333H30.5667ZM30.5667 5.72639C30.5667 4.21091 29.328 2.97222 27.8125 2.97222V3.57222C28.9966 3.57222 29.9667 4.54228 29.9667 5.72639H30.5667ZM27.8125 2.97222H19.6319V3.57222H27.8125V2.97222ZM19.9319 3.27222V2.45417H19.3319V3.27222H19.9319ZM19.9319 2.45417C19.9319 1.83855 19.4295 1.33611 18.8139 1.33611V1.93611C19.0981 1.93611 19.3319 2.16992 19.3319 2.45417H19.9319ZM18.8139 1.33611C18.1983 1.33611 17.6958 1.83855 17.6958 2.45417H18.2958C18.2958 2.16992 18.5296 1.93611 18.8139 1.93611V1.33611ZM17.6958 2.45417V3.27222H18.2958V2.45417H17.6958ZM17.9958 2.97222H14.7236V3.57222H17.9958V2.97222ZM15.0236 3.27222V2.45417H14.4236V3.27222H15.0236ZM15.0236 2.45417C15.0236 1.83855 14.5212 1.33611 13.9056 1.33611V1.93611C14.1898 1.93611 14.4236 2.16992 14.4236 2.45417H15.0236ZM13.9056 1.33611C13.2899 1.33611 12.7875 1.83855 12.7875 2.45417H13.3875C13.3875 2.16992 13.6213 1.93611 13.9056 1.93611V1.33611ZM12.7875 2.45417V3.27222H13.3875V2.45417H12.7875ZM13.0875 2.97222H4.08889V3.57222H13.0875V2.97222ZM4.38889 3.27222V1.63611H3.78889V3.27222H4.38889ZM4.08889 1.93611H4.90694V1.33611H4.08889V1.93611ZM4.90694 1.93611C5.52256 1.93611 6.025 1.43367 6.025 0.818056H5.425C5.425 1.1023 5.19119 1.33611 4.90694 1.33611V1.93611ZM6.025 0.818056C6.025 0.20244 5.52256 -0.3 4.90694 -0.3V0.3C5.19119 0.3 5.425 0.53381 5.425 0.818056H6.025ZM4.90694 -0.3H-2.45556V0.3H4.90694V-0.3ZM-2.45556 -0.3C-3.07117 -0.3 -3.57361 0.20244 -3.57361 0.818056H-2.97361C-2.97361 0.53381 -2.7398 0.3 -2.45556 0.3V-0.3ZM-3.57361 0.818056C-3.57361 1.43367 -3.07117 1.93611 -2.45556 1.93611V1.33611C-2.7398 1.33611 -2.97361 1.1023 -2.97361 0.818056H-3.57361ZM-2.45556 1.93611H-1.6375V1.33611H-2.45556V1.93611ZM-1.9375 1.63611V3.27222H-1.3375V1.63611H-1.9375ZM-1.6375 2.97222H-6.54583V3.57222H-1.6375V2.97222ZM-6.54583 2.97222C-8.06131 2.97222 -9.3 4.21091 -9.3 5.72639H-8.7C-8.7 4.54228 -7.72994 3.57222 -6.54583 3.57222V2.97222ZM-9.3 5.72639V19.6333H-8.7V5.72639H-9.3ZM-9.3 19.6333C-9.3 21.1488 -8.06131 22.3875 -6.54583 22.3875V21.7875C-7.72994 21.7875 -8.7 20.8174 -8.7 19.6333H-9.3ZM-6.54583 22.3875H-5.72778V21.7875H-6.54583V22.3875ZM-6.02778 22.0875V23.7236H-5.42778V22.0875H-6.02778ZM-5.72778 23.4236H-8.18194V24.0236H-5.72778V23.4236ZM-8.18194 23.4236C-8.79756 23.4236 -9.3 23.9261 -9.3 24.5417H-8.7C-8.7 24.2574 -8.46619 24.0236 -8.18194 24.0236V23.4236ZM-9.3 24.5417V31.0861H-8.7V24.5417H-9.3ZM-9.3 31.0861C-9.3 31.7017 -8.79756 32.2042 -8.18194 32.2042V31.6042C-8.46619 31.6042 -8.7 31.3704 -8.7 31.0861H-9.3ZM-8.18194 32.2042H-6.54583V31.6042H-8.18194V32.2042ZM-6.84583 31.9042C-6.84583 34.7776 -4.51095 37.1125 -1.6375 37.1125V36.5125C-4.17958 36.5125 -6.24583 34.4462 -6.24583 31.9042H-6.84583ZM-1.6375 37.1125C1.23595 37.1125 3.57083 34.7776 3.57083 31.9042H2.97083C2.97083 34.4462 0.904578 36.5125 -1.6375 36.5125V37.1125ZM3.27083 32.2042H17.1778V31.6042H3.27083V32.2042ZM16.8778 31.9042C16.8778 34.7776 19.2127 37.1125 22.0861 37.1125V36.5125C19.544 36.5125 17.4778 34.4462 17.4778 31.9042H16.8778ZM22.0861 37.1125C24.9596 37.1125 27.2944 34.7776 27.2944 31.9042H26.6944C26.6944 34.4462 24.6282 36.5125 22.0861 36.5125V37.1125ZM27.2944 31.9042C27.2944 29.0307 24.9596 26.6958 22.0861 26.6958V27.2958C24.6282 27.2958 26.6944 29.3621 26.6944 31.9042H27.2944ZM22.0861 26.6958C19.8189 26.6958 17.9013 28.1467 17.1815 30.1674L17.7467 30.3687C18.3849 28.5772 20.083 27.2958 22.0861 27.2958V26.6958ZM17.4641 29.9681H2.98451V30.5681H17.4641V29.9681ZM3.26712 30.1674C2.54732 28.1467 0.629664 26.6958 -1.6375 26.6958V27.2958C0.365585 27.2958 2.06374 28.5772 2.70191 30.3687L3.26712 30.1674ZM-1.6375 26.6958C-3.90466 26.6958 -5.82232 28.1467 -6.54212 30.1674L-5.97691 30.3687C-5.33874 28.5772 -3.64059 27.2958 -1.6375 27.2958V26.6958ZM-6.25951 29.9681H-7.36389V30.5681H-6.25951V29.9681ZM-7.06389 30.2681V25.3597H-7.66389V30.2681H-7.06389ZM-7.36389 25.6597H28.6306V25.0597H-7.36389V25.6597ZM28.3306 25.3597V30.2681H28.9306V25.3597H28.3306ZM28.6306 29.9681H26.9944V30.5681H28.6306V29.9681ZM26.6944 30.2681V31.9042H27.2944V30.2681H26.6944ZM26.9944 32.2042H29.4486V31.6042H26.9944V32.2042ZM29.4486 32.2042C30.0642 32.2042 30.5667 31.7017 30.5667 31.0861H29.9667C29.9667 31.3704 29.7329 31.6042 29.4486 31.6042V32.2042ZM30.5667 31.0861V24.5417H29.9667V31.0861H30.5667ZM30.5667 24.5417C30.5667 23.9261 30.0642 23.4236 29.4486 23.4236V24.0236C29.7329 24.0236 29.9667 24.2574 29.9667 24.5417H30.5667ZM29.4486 23.4236H26.9944V24.0236H29.4486V23.4236ZM27.2944 23.7236V22.0875H26.6944V23.7236H27.2944ZM26.9944 22.3875H27.8125V21.7875H26.9944V22.3875ZM22.0861 28.9319C23.7283 28.9319 25.0583 30.2619 25.0583 31.9042H25.6583C25.6583 29.9306 24.0597 28.3319 22.0861 28.3319V28.9319ZM25.0583 31.9042C25.0583 33.5464 23.7283 34.8764 22.0861 34.8764V35.4764C24.0597 35.4764 25.6583 33.8778 25.6583 31.9042H25.0583ZM22.0861 34.8764C20.4439 34.8764 19.1139 33.5464 19.1139 31.9042H18.5139C18.5139 33.8778 20.1125 35.4764 22.0861 35.4764V34.8764ZM19.1139 31.9042C19.1139 30.2619 20.4439 28.9319 22.0861 28.9319V28.3319C20.1125 28.3319 18.5139 29.9306 18.5139 31.9042H19.1139ZM-1.6375 28.9319C0.00471783 28.9319 1.33472 30.2619 1.33472 31.9042H1.93472C1.93472 29.9306 0.336088 28.3319 -1.6375 28.3319V28.9319ZM1.33472 31.9042C1.33472 33.5464 0.00471783 34.8764 -1.6375 34.8764V35.4764C0.336088 35.4764 1.93472 33.8778 1.93472 31.9042H1.33472ZM-1.6375 34.8764C-3.27972 34.8764 -4.60972 33.5464 -4.60972 31.9042H-5.20972C-5.20972 33.8778 -3.61109 35.4764 -1.6375 35.4764V34.8764ZM-4.60972 31.9042C-4.60972 30.2619 -3.27972 28.9319 -1.6375 28.9319V28.3319C-3.61109 28.3319 -5.20972 29.9306 -5.20972 31.9042H-4.60972ZM17.6958 4.90833V7.3625H18.2958V4.90833H17.6958ZM17.9958 7.0625H14.7236V7.6625H17.9958V7.0625ZM15.0236 7.3625V4.90833H14.4236V7.3625H15.0236ZM14.7236 5.20833H17.9958V4.60833H14.7236V5.20833ZM14.7236 9.29861H17.9958V8.69861H14.7236V9.29861ZM17.6958 8.99861V11.4528H18.2958V8.99861H17.6958ZM17.9958 11.1528H14.7236V11.7528H17.9958V11.1528ZM15.0236 11.4528V8.99861H14.4236V11.4528H15.0236ZM-0.00138855 1.93611H2.45278V1.33611H-0.00138855V1.93611ZM2.15278 1.63611V3.27222H2.75278V1.63611H2.15278ZM2.45278 2.97222H-0.00138855V3.57222H2.45278V2.97222ZM0.298612 3.27222V1.63611H-0.301389V3.27222H0.298612ZM-6.54583 20.1514C-6.83008 20.1514 -7.06389 19.9176 -7.06389 19.6333H-7.66389C-7.66389 20.2489 -7.16145 20.7514 -6.54583 20.7514V20.1514ZM-7.06389 19.6333V5.72639H-7.66389V19.6333H-7.06389ZM-7.06389 5.72639C-7.06389 5.44214 -6.83008 5.20833 -6.54583 5.20833V4.60833C-7.16145 4.60833 -7.66389 5.11077 -7.66389 5.72639H-7.06389ZM-6.54583 5.20833H13.0875V4.60833H-6.54583V5.20833ZM12.7875 4.90833V16.3611H13.3875V4.90833H12.7875ZM12.7875 16.3611C12.7875 16.9767 13.2899 17.4792 13.9056 17.4792V16.8792C13.6213 16.8792 13.3875 16.6454 13.3875 16.3611H12.7875ZM13.9056 17.4792C14.5212 17.4792 15.0236 16.9767 15.0236 16.3611H14.4236C14.4236 16.6454 14.1898 16.8792 13.9056 16.8792V17.4792ZM15.0236 16.3611V13.0889H14.4236V16.3611H15.0236ZM14.7236 13.3889H17.9958V12.7889H14.7236V13.3889ZM17.6958 13.0889V16.3611H18.2958V13.0889H17.6958ZM17.6958 16.3611C17.6958 16.9767 18.1983 17.4792 18.8139 17.4792V16.8792C18.5296 16.8792 18.2958 16.6454 18.2958 16.3611H17.6958ZM18.8139 17.4792C19.4295 17.4792 19.9319 16.9767 19.9319 16.3611H19.3319C19.3319 16.6454 19.0981 16.8792 18.8139 16.8792V17.4792ZM19.9319 16.3611V4.90833H19.3319V16.3611H19.9319ZM19.6319 5.20833H27.8125V4.60833H19.6319V5.20833ZM27.8125 5.20833C28.0967 5.20833 28.3306 5.44214 28.3306 5.72639H28.9306C28.9306 5.11077 28.4281 4.60833 27.8125 4.60833V5.20833ZM28.3306 5.72639V19.6333H28.9306V5.72639H28.3306ZM28.3306 19.6333C28.3306 19.9176 28.0967 20.1514 27.8125 20.1514V20.7514C28.4281 20.7514 28.9306 20.2489 28.9306 19.6333H28.3306ZM27.8125 20.1514H26.9944V20.7514H27.8125V20.1514ZM27.2944 20.4514V18.8153H26.6944V20.4514H27.2944ZM27.2944 18.8153C27.2944 18.1997 26.792 17.6972 26.1764 17.6972V18.2972C26.4606 18.2972 26.6944 18.531 26.6944 18.8153H27.2944ZM26.1764 17.6972C25.5608 17.6972 25.0583 18.1997 25.0583 18.8153H25.6583C25.6583 18.531 25.8921 18.2972 26.1764 18.2972V17.6972ZM25.0583 18.8153V20.4514H25.6583V18.8153H25.0583ZM25.3583 20.1514H-4.09167V20.7514H25.3583V20.1514ZM-3.79167 20.4514V18.8153H-4.39167V20.4514H-3.79167ZM-3.79167 18.8153C-3.79167 18.1997 -4.29411 17.6972 -4.90972 17.6972V18.2972C-4.62548 18.2972 -4.39167 18.531 -4.39167 18.8153H-3.79167ZM-4.90972 17.6972C-5.52534 17.6972 -6.02778 18.1997 -6.02778 18.8153H-5.42778C-5.42778 18.531 -5.19397 18.2972 -4.90972 18.2972V17.6972ZM-6.02778 18.8153V20.4514H-5.42778V18.8153H-6.02778ZM-5.72778 20.1514H-6.54583V20.7514H-5.72778V20.1514ZM25.3583 23.4236H-4.09167V24.0236H25.3583V23.4236ZM-3.79167 23.7236V22.0875H-4.39167V23.7236H-3.79167ZM-4.09167 22.3875H25.3583V21.7875H-4.09167V22.3875ZM25.0583 22.0875V23.7236H25.6583V22.0875H25.0583Z" fill="white" mask="url(#path-1-inside-1_8_5023)"/>
<path d="M2.57192 9.39831L2.45277 9.2425L2.33361 9.39831C1.74606 10.1667 1.12867 11.0575 0.657327 11.8682C0.421728 12.2734 0.221092 12.6612 0.0789251 13.0053C-0.0616853 13.3456 -0.1514 13.6578 -0.1514 13.9069C-0.1514 15.3396 1.02013 16.5111 2.45277 16.5111C3.8854 16.5111 5.05693 15.3396 5.05693 13.9069C5.05693 13.6559 4.96731 13.3427 4.82663 13.0019C4.68444 12.6573 4.48378 12.2698 4.24817 11.8651C3.7768 11.0554 3.15939 10.1665 2.57192 9.39831ZM6.39305 13.9069C6.39305 16.0819 4.62776 17.8472 2.45277 17.8472C0.277776 17.8472 -1.48751 16.0819 -1.48751 13.9069C-1.48751 13.4374 -1.31708 12.8627 -1.04042 12.2438C-0.765043 11.6279 -0.390594 10.9816 0.00383306 10.3727C0.791906 9.15604 1.65181 8.10067 1.93793 7.75322C2.19806 7.44742 2.71714 7.45002 2.96703 7.75252C3.25256 8.09924 4.11309 9.15521 4.9017 10.3727C5.29613 10.9816 5.67058 11.6279 5.94595 12.2438C6.22261 12.8627 6.39305 13.4374 6.39305 13.9069ZM-0.969455 31.9042C-0.969455 32.2712 -1.27042 32.5722 -1.63751 32.5722C-2.0046 32.5722 -2.30557 32.2712 -2.30557 31.9042C-2.30557 31.5371 -2.0046 31.2361 -1.63751 31.2361C-1.27042 31.2361 -0.969455 31.5371 -0.969455 31.9042Z" fill="#72A3DD" stroke="white" stroke-width="0.3"/>
<path d="M22.7542 31.9041C22.7542 32.2731 22.4551 32.5722 22.0861 32.5722C21.7172 32.5722 21.4181 32.2731 21.4181 31.9041C21.4181 31.5352 21.7172 31.2361 22.0861 31.2361C22.4551 31.2361 22.7542 31.5352 22.7542 31.9041Z" fill="#72A3DD" stroke="white" stroke-width="0.3"/>
</svg>
