<svg width="42" height="46" viewBox="0 0 42 46" fill="none" xmlns="http://www.w3.org/2000/svg">
<g clip-path="url(#clip0_8_5036)">
<path d="M9.51442 20.4076L9.51464 20.4075L30.6261 10.7753L30.6265 10.7751C30.7858 10.7016 30.9732 10.7159 31.1217 10.8096C31.2696 10.906 31.3581 11.0684 31.3581 11.2461V35.7487C31.3581 35.9508 31.2397 36.1356 31.0551 36.2193L31.0548 36.2194L9.94338 45.8517L9.94278 45.8519C9.87424 45.8838 9.80339 45.8985 9.72901 45.8985C9.63035 45.8985 9.53432 45.8716 9.44755 45.8172C9.29981 45.7208 9.21137 45.5585 9.21137 45.3809V20.8783C9.21137 20.6762 9.32976 20.4913 9.51442 20.4076ZM10.3051 21.1844L10.2466 21.2111V21.2753V44.4191V44.5747L10.3882 44.5101L30.2643 35.4426L30.3228 35.4159V35.3516V12.2078V12.0523L30.1813 12.1169L10.3051 21.1844ZM-4.00221 36.4874L-4.00281 36.4871L-8.87627 34.2636L-8.87649 34.2635C-9.06115 34.1798 -9.17954 33.9949 -9.17954 33.7928V29.3517C-9.17954 29.1765 -9.09061 29.0111 -8.94269 28.915C-8.79548 28.8193 -8.60839 28.8067 -8.44793 28.8807L-8.44753 28.8809L-3.57407 31.1044L-3.57385 31.1045C-3.3892 31.1882 -3.27081 31.3731 -3.27081 31.5752V36.0163C-3.27081 36.1912 -3.35949 36.3565 -3.50706 36.4527C-3.59363 36.5069 -3.6925 36.5339 -3.78844 36.5339C-3.86283 36.5339 -3.93367 36.5192 -4.00221 36.4874ZM-8.14426 33.3958V33.4601L-8.08575 33.4867L-4.44757 35.1455L-4.30608 35.2101V35.0546V31.9722V31.9079L-4.3646 31.8813L-8.00278 30.2225L-8.14426 30.158V30.3134V33.3958Z" fill="#72A3DD" stroke="white" stroke-width="0.2"/>
<path d="M9.51533 45.852L9.51473 45.8517L-11.5967 36.2195L-11.597 36.2194C-11.7816 36.1357 -11.9 35.9508 -11.9 35.7487V11.2491C-11.9 11.0739 -11.8111 10.9085 -11.6632 10.8123C-11.5159 10.7167 -11.3289 10.7041 -11.1684 10.7781L-11.168 10.7783L9.94347 20.4105L9.94369 20.4106C10.1283 20.4943 10.2467 20.6792 10.2467 20.8813V45.3809C10.2467 45.5559 10.1581 45.721 10.0106 45.8172C9.92379 45.8716 9.82776 45.8986 9.7291 45.8986C9.65471 45.8986 9.58387 45.8838 9.51533 45.852ZM-10.8647 35.3517V35.416L-10.8062 35.4427L9.06996 44.5102L9.21146 44.5747V44.4192V21.2754V21.2111L9.15297 21.1844L-10.7232 12.1169L-10.8647 12.0524V12.2079V35.3517Z" fill="#72A3DD" stroke="white" stroke-width="0.2"/>
<path d="M30.6264 11.7199L30.627 11.7202C30.6953 11.7519 30.7691 11.7668 30.8408 11.7668C31.0381 11.7668 31.2253 11.6533 31.3115 11.4636L31.3116 11.4634C31.4299 11.2046 31.3164 10.8966 31.0554 10.7785L31.0551 10.7783L9.94381 1.14618L30.6264 11.7199ZM30.6264 11.7199L9.77082 2.20533L9.72931 2.18639M30.6264 11.7199L9.72931 2.18639M9.72931 2.18639L9.68781 2.20533M9.72931 2.18639L9.68781 2.20533M9.68781 2.20533L-11.1675 11.7198L9.68781 2.20533ZM31.4025 11.505C31.5437 11.1962 31.4084 10.8285 31.0966 10.6874L31.4025 11.505ZM31.4025 11.505C31.2996 11.7315 31.0761 11.8668 30.8408 11.8668C30.7555 11.8668 30.6672 11.8491 30.5849 11.8109M31.4025 11.505L30.5849 11.8109M-11.5965 10.7783L-11.5968 10.7785C-11.8577 10.8966 -11.9714 11.2018 -11.8528 11.4637C-11.7347 11.7246 -11.4297 11.8383 -11.1678 11.7199L-11.5965 10.7783ZM-11.5965 10.7783L9.51482 1.14618M-11.5965 10.7783L9.51482 1.14618M30.5849 11.8109L9.72931 2.2963L30.5849 11.8109ZM9.51482 1.14618L9.51495 1.14612C9.65034 1.08463 9.80829 1.08463 9.94368 1.14612L9.51482 1.14618ZM0.777442 23.0053L0.776817 23.005L-3.89958 20.8727L-3.89982 20.8726C-4.16079 20.7544 -4.27432 20.4464 -4.156 20.1876L-4.15586 20.1873C-4.03768 19.9263 -3.72971 19.8128 -3.47089 19.9311L-3.4708 19.9312L1.2056 22.0635L1.20584 22.0636C1.4668 22.1818 1.58034 22.4897 1.46202 22.7485L1.46193 22.7487C1.37572 22.9384 1.18853 23.0519 0.991208 23.0519C0.919515 23.0519 0.845767 23.037 0.777442 23.0053Z" fill="#72A3DD" stroke="white" stroke-width="0.2"/>
<path d="M17.682 5.69036C17.9937 5.54918 18.129 5.18448 17.9879 4.87272C17.8467 4.56096 17.482 4.42567 17.1702 4.56684M17.682 5.69036L-4.24712 15.0167M17.682 5.69036L-3.42948 15.3226L17.682 5.69036ZM17.1702 4.56684L-3.94124 14.1991C-4.253 14.3402 -4.38829 14.7049 -4.24712 15.0167M17.1702 4.56684L17.2117 4.65782L17.2117 4.65783L17.2115 4.65794L17.1702 4.56684ZM-4.24712 15.0167L-4.15602 14.9754C-4.15604 14.9754 -4.15606 14.9754 -4.15608 14.9753L-4.24712 15.0167ZM0.78911 16.4145L0.789122 16.4146L0.791368 16.4135L21.8879 6.79026C21.888 6.79023 21.888 6.79019 21.8881 6.79015C22.15 6.6717 22.455 6.78545 22.5732 7.0463C22.6918 7.30827 22.5781 7.61343 22.3171 7.73158L22.3169 7.7317L1.20541 17.3639L1.2054 17.3639L1.20354 17.3648C1.13931 17.3957 1.0662 17.4108 0.991039 17.4108C0.705096 17.4108 0.473401 17.1791 0.473401 16.8931C0.473401 16.6787 0.604113 16.4935 0.78911 16.4145Z" fill="#72A3DD" stroke="white" stroke-width="0.2"/>
<path d="M0.991062 23.0519C0.705119 23.0519 0.473424 22.8202 0.473424 22.5342V16.8931C0.473424 16.6072 0.705119 16.3755 0.991062 16.3755C1.27701 16.3755 1.5087 16.6072 1.5087 16.8931V22.5342C1.5087 22.8202 1.277 23.0519 0.991062 23.0519ZM-3.68534 20.9166C-3.97128 20.9166 -4.20298 20.6849 -4.20298 20.399V14.7608C-4.20298 14.4749 -3.97128 14.2432 -3.68534 14.2432C-3.3994 14.2432 -3.1677 14.4749 -3.1677 14.7608V20.4019C-3.1677 20.6846 -3.39909 20.9166 -3.68534 20.9166Z" fill="#72A3DD" stroke="white" stroke-width="0.2"/>
</g>
<defs>
<clipPath id="clip0_8_5036">
<rect width="42" height="46" fill="white" transform="matrix(-1 0 0 1 42 0)"/>
</clipPath>
</defs>
</svg>
