<svg width="45" height="80" viewBox="0 0 45 80" fill="none" xmlns="http://www.w3.org/2000/svg">
<g clip-path="url(#clip0_8_6518)">
<path d="M58.4527 25.88C58.4512 26.6424 58.7561 27.373 59.2984 27.9117C59.8405 28.4501 60.5754 28.7529 61.3415 28.7553H61.3431C62.9386 28.7553 64.2487 27.4737 64.2487 25.881C64.2487 24.2948 62.9361 23.0202 61.3431 23.0202C59.7549 23.0202 58.4532 24.2974 58.4527 25.88ZM58.4527 25.88L58.9527 25.881H58.4527C58.4527 25.8806 58.4527 25.8803 58.4527 25.88ZM64.8509 29.3387C63.923 30.2554 62.6644 30.7727 61.35 30.7757C60.0631 30.7369 58.8425 30.2035 57.9465 29.292C57.0492 28.3792 56.5483 27.1579 56.5483 25.8878C56.5483 24.6176 57.0492 23.3963 57.9465 22.4835C58.8423 21.5722 60.0629 21.0401 61.3503 21.0013C62.6627 21.0028 63.9201 21.5177 64.8478 22.4317C65.7767 23.3469 66.2995 24.5873 66.3036 25.8809C66.302 27.1769 65.7802 28.4206 64.8509 29.3387ZM23.0811 47.2591C23.0811 49.9541 20.8605 52.1568 18.1206 52.1568C15.3804 52.1568 13.1571 49.9537 13.1571 47.2591C13.1571 44.5642 15.3776 42.3613 18.1191 42.3613C20.8606 42.3613 23.0811 44.5642 23.0811 47.2591ZM21.0263 47.2591C21.0263 45.6659 19.7172 44.3802 18.1206 44.3802C16.5232 44.3802 15.2119 45.6653 15.2119 47.2591C15.2119 48.8525 16.5212 50.1379 18.1191 50.1379C19.7168 50.1379 21.0263 48.8542 21.0263 47.2591ZM50.0749 47.2591C50.0749 49.954 47.8544 52.1568 45.1129 52.1568C42.3714 52.1568 40.1509 49.954 40.1509 47.2591C40.1509 44.5642 42.3714 42.3613 45.1129 42.3613C47.8544 42.3613 50.0749 44.5642 50.0749 47.2591ZM48.0201 47.2591C48.0201 45.6659 46.7125 44.3802 45.1129 44.3802C43.515 44.3802 42.2057 45.6657 42.2057 47.2591C42.2057 48.8525 43.515 50.1379 45.1129 50.1379C46.7105 50.1379 48.0201 48.8542 48.0201 47.2591ZM38.1449 13.0821H24.9939C24.7196 13.0821 24.4576 12.9743 24.2654 12.7844C24.0733 12.5946 23.9665 12.3385 23.9665 12.0727C23.9665 11.8069 24.0733 11.5507 24.2654 11.361C24.4576 11.171 24.7196 11.0632 24.9939 11.0632H38.1449C38.4193 11.0632 38.6812 11.171 38.8735 11.361C39.0655 11.5507 39.1723 11.8069 39.1723 12.0727C39.1723 12.3385 39.0655 12.5946 38.8735 12.7844C38.6812 12.9743 38.4193 13.0821 38.1449 13.0821Z" fill="#FF6A6E" stroke="white"/>
<path d="M56.6361 42.1164C58.0663 44.1642 59.2167 45.7062 60.3548 47.1276M56.6361 42.1164L74.1763 27.3163L74.161 27.4114M56.6361 42.1164V41.3963H56.1361L55.7247 41.6805C55.8645 41.8828 56.0015 42.0804 56.1361 42.2736V48.4258C56.1361 52.4246 53.6655 55.8539 50.1564 57.325L50.1535 57.3179L49.6905 57.5065L49.8601 57.9769C49.8665 57.9746 49.8729 57.9722 49.8793 57.9699L56.4722 74.1525M56.6361 42.1164L8.05195 76.1163C8.42768 76.2658 8.8481 76.2617 9.22075 76.1048M60.3548 47.1276C60.4979 47.3051 60.6795 47.4484 60.8863 47.5469C61.0931 47.6455 61.3197 47.6966 61.5493 47.6967M60.3548 47.1276L60.7451 46.8151C60.745 46.815 60.7449 46.8149 60.7448 46.8147M60.3548 47.1276L60.7441 46.8139C60.7444 46.8142 60.7446 46.8145 60.7448 46.8147M61.5493 47.6967H61.5554M61.5493 47.6967L61.5494 47.1967L61.5533 47.1967L61.5554 47.6967M61.5493 47.6967V47.1967C61.3939 47.1966 61.2408 47.162 61.1014 47.0956C60.9622 47.0293 60.8405 46.9332 60.7448 46.8147M61.5554 47.6967C61.7861 47.6957 62.0136 47.6431 62.2207 47.5427C62.4279 47.4423 62.6093 47.2968 62.7513 47.1171C66.191 42.8303 73.1071 32.9888 74.161 27.4114M61.5554 47.6967V47.1967H61.5541C61.7099 47.1959 61.8633 47.1603 62.0027 47.0927C62.1423 47.025 62.2641 46.9272 62.3591 46.807L62.3613 46.8041C64.07 44.6748 66.647 41.1591 68.9259 37.4847C71.215 33.794 73.1585 30.0129 73.6684 27.3254M74.161 27.4114L73.6697 27.3186C73.6693 27.3209 73.6689 27.3232 73.6684 27.3254M74.161 27.4114L73.6674 27.3321L73.6684 27.3254M73.6684 27.3254L73.6826 27.237L73.6843 27.2267L73.6864 27.2166C74.9067 21.2239 69.4943 13.7454 61.5493 13.7454C59.6995 13.7454 57.9193 14.1543 56.2832 14.9235L55.6657 15.2139L55.5749 14.5376C55.4596 13.6788 55.1536 12.8554 54.6784 12.1266C54.2032 11.3977 53.5704 10.7812 52.8251 10.3216C48.3298 7.55745 41.0092 4.27368 31.603 4.27368H31.4709C22.1272 4.30368 14.8598 7.57836 10.4071 10.3215C9.53983 10.857 8.82655 11.6027 8.33468 12.4869C7.8428 13.3712 7.58855 14.3648 7.59579 15.3731L7.59581 15.3767L7.5958 48.4258C7.5958 52.5141 10.3202 55.9914 14.0792 57.1713L14.5974 57.334L14.3924 57.8371L7.66882 74.3397M60.7448 46.8147C59.4863 45.2429 58.2105 43.5201 56.5476 41.1122L55.6361 39.7925V41.3963V48.4258C55.6361 52.3775 53.0877 55.7498 49.5209 57.0362L49.031 57.2128L49.2275 57.6952L56.0091 74.3411M56.0091 74.3411C56.059 74.4637 56.084 74.5946 56.0826 74.7264C56.0813 74.8582 56.0537 74.9886 56.0013 75.1102L56.4604 75.3082M56.0091 74.3411L56.0091 74.3412L56.4722 74.1525M56.0091 74.3411L56.4722 74.1525M56.4604 75.3082L56.0013 75.1102C55.9488 75.2318 55.8725 75.3424 55.7764 75.4355C55.6802 75.5287 55.5661 75.6025 55.4404 75.6525C55.3148 75.7025 55.1801 75.7276 55.0443 75.7262C54.9085 75.7249 54.7745 75.6971 54.6499 75.6446C54.5253 75.5922 54.4128 75.5161 54.3185 75.4211C54.2243 75.3262 54.1503 75.2141 54.1004 75.0915L53.6373 75.2801M56.4604 75.3082C56.3818 75.4906 56.2675 75.6559 56.1242 75.7947C55.9809 75.9335 55.8114 76.043 55.6252 76.1171C55.4391 76.1911 55.24 76.2282 55.0394 76.2262C54.8387 76.2242 54.6405 76.1832 54.4559 76.1055C54.2713 76.0277 54.104 75.9148 53.9635 75.7732C53.8231 75.6316 53.7122 75.464 53.6373 75.2801M56.4604 75.3082C56.5391 75.1257 56.5806 74.9298 56.5826 74.7315C56.5846 74.5332 56.5471 74.3365 56.4722 74.1525M53.6373 75.2801L54.1004 75.0915L52.0964 70.1722L51.9696 69.8608H51.6334H12.0431H11.7068L11.58 70.1722L9.5761 75.0914L10.0391 75.2801M53.6373 75.2801L51.6334 70.3608H12.0431L10.0391 75.2801M10.0391 75.2801L9.57605 75.0915C9.47523 75.3387 9.27836 75.5381 9.02682 75.644L9.22075 76.1048M10.0391 75.2801C9.88776 75.6514 9.5934 75.948 9.22075 76.1048M9.22075 76.1048L9.02681 75.644C8.77507 75.7499 8.49067 75.7527 8.23677 75.6517C7.98404 75.5511 7.78268 75.3545 7.67657 75.1082C7.57092 74.863 7.56815 74.5868 7.66882 74.3397M7.66882 74.3397L7.20577 74.151L7.66882 74.3397ZM12.8111 67.1534L12.5306 67.842H13.2741H50.4038H51.1473L50.8669 67.1534L49.703 64.296L49.5761 63.9846H49.2399H14.438H14.1018L13.975 64.296L12.8111 67.1534ZM48.0104 61.9658H48.7541L48.4734 61.277L47.0956 57.8974L46.9644 57.5755L46.617 57.5864C46.5584 57.5882 46.4998 57.5924 46.458 57.5951C46.4119 57.598 46.3781 57.5997 46.347 57.5997H17.0392H16.703L16.5762 57.911L15.2046 61.2771L14.9239 61.9658H15.6676H48.0104ZM9.65061 32.4454V32.9454H10.1506H30.042H30.542V32.4454V19.745V19.245H30.042H10.1506H9.65061V19.745V32.4454ZM33.0968 19.245H32.5968V19.745V32.4454V32.9454H33.0968H50.7368H51.5354L51.1865 32.227C50.2706 30.341 49.2374 27.8279 49.2374 25.8748C49.2374 23.8582 49.7422 21.9132 50.8188 19.9891L51.2351 19.245H50.3824H33.0968ZM71.6421 26.9826C71.645 26.9521 71.6495 26.9217 71.6555 26.8917L71.6558 26.8917C72.1757 24.5114 71.285 21.7284 69.4836 19.5607C67.6723 17.3813 64.8941 15.7642 61.5493 15.7642C55.8412 15.7642 51.2922 20.3764 51.2922 25.8748C51.2922 27.0777 51.7743 28.6014 52.4881 30.218C53.2086 31.85 54.1925 33.636 55.2526 35.383C57.3732 38.8781 59.8216 42.2554 61.1432 43.9987L61.5431 44.5263L61.9411 43.9974C63.4028 42.0552 65.579 39.0266 67.5094 35.8895C69.4281 32.7716 71.1465 29.4804 71.6348 27.0322L71.6397 27.0076L71.6421 26.9826ZM11.4982 12.0333L11.498 12.0334C10.3392 12.7483 9.65061 14.0009 9.65061 15.3767V16.7261V17.2261H10.1506H52.73H52.9264L53.0703 17.0925C53.0994 17.0655 53.1309 17.0385 53.1705 17.0048L53.1796 16.9971C53.2144 16.9676 53.2561 16.9322 53.2973 16.8948C53.3352 16.8612 53.3681 16.8264 53.3826 16.8114C53.394 16.7995 53.3998 16.7937 53.4023 16.7912C53.4035 16.7901 53.4039 16.7897 53.404 16.7896L53.5813 16.6403V16.4076V15.3793C53.5882 14.7122 53.4222 14.0547 53.0996 13.4695C52.7765 12.8834 52.3073 12.3896 51.7373 12.0345L51.735 12.0331C39.3251 4.398 23.9521 4.35949 11.4982 12.0333ZM10.1506 34.9627H9.65061V35.4627V47.9242H9.64908V48.4242C9.64908 52.1973 12.6189 55.2515 16.3454 55.5282L16.3639 55.5295H16.3824H46.8495H46.8681L46.8866 55.5282C50.6115 55.2515 53.5813 52.1973 53.5813 48.4258V36.7125V36.5733L53.5094 36.4541C53.3701 36.2235 53.2476 36.0099 53.1221 35.7913C53.0495 35.6648 52.976 35.5366 52.8976 35.4023L52.8965 35.4005L52.7835 35.2088L52.6384 34.9627H52.3528H10.1506Z" fill="#FF6A6E" stroke="white"/>
</g>
<defs>
<clipPath id="clip0_8_6518">
<rect width="44" height="80" fill="white" transform="translate(0.25)"/>
</clipPath>
</defs>
</svg>
