<svg width="76" height="101" viewBox="0 0 76 101" fill="none" xmlns="http://www.w3.org/2000/svg">
<g clip-path="url(#clip0_8_6531)">
<g clip-path="url(#clip1_8_6531)">
<path d="M82.6013 56.8908L82.6013 56.8908L82.5978 56.8923L72.283 61.2432C71.834 61.4403 71.6205 61.9487 71.8028 62.4077C72.001 62.8555 72.5095 63.0677 72.9681 62.8844L82.5539 58.8259L82.7601 58.7386L82.9258 58.8893L85.9012 61.5945L86.1602 61.83L85.9247 62.0889L78.0823 70.7144C77.7519 71.0778 77.7787 71.6421 78.1421 71.9725C78.5056 72.3029 79.0698 72.2761 79.4003 71.9127L88.0629 62.3851C88.3933 62.0217 88.3665 61.4574 88.003 61.127L83.5242 57.0547C83.2598 56.8144 82.9025 56.7598 82.6013 56.8908Z" fill="#FF6A6E" stroke="white" stroke-width="0.7"/>
<path d="M82.1273 75.6458L82.1268 75.6449C80.3641 72.2539 78.3248 68.7288 76.655 66.2331L76.6543 66.232C73.7603 61.8717 70.945 58.3663 68.2614 55.84L63.5315 51.5395L63.2077 51.2451L63.5661 50.994L85.8839 35.3508L85.8867 35.3489C86.1057 35.1985 86.2469 34.9536 86.2667 34.6785C86.2863 34.4066 86.175 34.1398 85.9847 33.9668L81.126 29.5492C80.8851 29.3302 80.5584 29.2621 80.2649 29.3613L80.2626 29.3621L50.312 39.2507L50.118 39.3148L49.9668 39.1773L39.6351 29.7835C36.8512 27.3671 33.5391 25.6939 30.0835 24.9658L30.0833 24.9658C28.4221 24.6151 26.4507 24.5586 25.4222 24.5471L25.4222 24.5471L25.4172 24.547C24.9072 24.534 24.3948 24.7705 24.039 25.1619C23.6872 25.5489 23.5081 26.0668 23.5583 26.5993C23.6675 27.6219 23.9092 29.5467 24.431 31.1797L24.4316 31.1819C25.4844 34.5529 27.4643 37.6913 30.1339 40.2334L40.4656 49.6271L40.6168 49.7646L40.5715 49.9638L33.5693 80.7175L33.5687 80.7199C33.4978 81.0215 33.5965 81.3403 33.8375 81.5593L38.6962 85.977C38.8998 86.1621 39.1593 86.236 39.4313 86.1901C39.7034 86.1443 39.9337 85.9805 40.0627 85.7482L40.064 85.7457L53.4874 62.0155L53.7032 61.6341L54.0275 61.9289L58.7573 66.2293C61.5268 68.6611 65.2836 71.1312 69.8988 73.5984L69.8989 73.5985C72.5887 75.0374 76.292 76.7332 79.789 78.1533L79.7999 78.1577L79.8105 78.1629C80.4857 78.4917 81.3237 78.3185 81.843 77.7473C82.3799 77.1568 82.4904 76.3396 82.1273 75.6458ZM60.9105 51.0765L60.9103 51.0796C60.8907 51.3514 61.002 51.6182 61.1923 51.7912L67.0323 57.101L67.0369 57.1053C69.6311 59.5516 72.367 62.9434 75.1813 67.1843L75.182 67.1854C76.7071 69.5015 78.5744 72.6785 80.2259 75.8032L80.6812 76.6647L79.7818 76.2899C76.547 74.9417 73.1924 73.4001 70.7249 72.0866L70.7244 72.0863C66.2356 69.6871 62.5994 67.2853 59.918 64.935L59.918 64.935L59.9133 64.9308L54.0733 59.6209C53.8697 59.4358 53.6102 59.3619 53.3382 59.4078C53.0662 59.4536 52.8358 59.6174 52.7069 59.8497L52.7054 59.8522L39.2677 83.5982L39.0519 83.9796L38.7276 83.6848L35.5149 80.7637L35.3637 80.6263L35.4091 80.4271L42.4113 49.6733L42.4118 49.671C42.4827 49.3693 42.384 49.0506 42.1431 48.8315L31.3019 38.9746L31.3018 38.9747L31.2954 38.9685C28.8432 36.6214 27.0408 33.7478 26.0758 30.6599L26.0755 30.6591C25.6541 29.2988 25.4255 27.7085 25.3168 26.7068L25.2742 26.314L25.6693 26.3191C26.6752 26.3322 28.3115 26.4073 29.677 26.6996C32.8426 27.3674 35.8899 28.9035 38.4429 31.1072L38.443 31.1071L38.4497 31.1132L49.2908 40.9701C49.5317 41.1892 49.8584 41.2572 50.1519 41.158L50.154 41.1573L80.1334 31.237L80.3275 31.1728L80.4788 31.3104L83.6757 34.2171L84 34.5119L83.6408 34.7629L61.309 50.3707L61.1483 50.5475C61.0072 50.7026 60.9221 50.8929 60.9105 51.0765Z" fill="#FF6A6E" stroke="white" stroke-width="0.7"/>
<path d="M66.6856 83.2488L66.4501 83.5077L66.1912 83.2723L63.2158 80.567L63.0504 80.4166L63.1173 80.2033L66.2202 70.3042L66.2201 70.3042L66.2215 70.3C66.3719 69.8406 66.1096 69.3328 65.639 69.1933L65.6389 69.1934L65.6295 69.1904C65.1701 69.0399 64.6623 69.3023 64.5228 69.7729L64.5229 69.7729L64.5211 69.7786L61.1664 80.4317L61.1664 80.4317L61.1653 80.435C61.0646 80.744 61.165 81.1098 61.4161 81.3381L65.8908 85.4066C66.2882 85.7431 66.8695 85.6943 67.1833 85.3492L75.8172 75.8533C76.1476 75.4899 76.1208 74.9256 75.7573 74.5952C75.3939 74.2647 74.8296 74.2916 74.4992 74.655L66.6856 83.2488Z" fill="#FF6A6E" stroke="white" stroke-width="0.7"/>
</g>
</g>
<defs>
<clipPath id="clip0_8_6531">
<rect width="75" height="101" fill="white" transform="translate(0.5)"/>
</clipPath>
<clipPath id="clip1_8_6531">
<rect width="85.5608" height="85.5608" fill="white" transform="matrix(-0.672724 0.739893 0.739893 0.672724 50.0588 -9)"/>
</clipPath>
</defs>
</svg>
