<svg width="48" height="70" viewBox="0 0 48 70" fill="none" xmlns="http://www.w3.org/2000/svg">
<g clip-path="url(#clip0_8_6546)">
<mask id="path-1-inside-1_8_6546" fill="white">
<path d="M66.375 41.5625C68.7812 41.5625 70.75 39.5938 70.75 37.1875V12.3958C70.75 9.98958 68.7812 8.02083 66.375 8.02083H51.7917V6.5625C51.7917 5.76042 51.1354 5.10417 50.3333 5.10417C49.5312 5.10417 48.875 5.76042 48.875 6.5625V8.02083H43.0417V6.5625C43.0417 5.76042 42.3854 5.10417 41.5833 5.10417C40.7812 5.10417 40.125 5.76042 40.125 6.5625V8.02083H24.0833V5.10417H25.5417C26.3438 5.10417 27 4.44792 27 3.64583C27 2.84375 26.3438 2.1875 25.5417 2.1875H12.4167C11.6146 2.1875 10.9583 2.84375 10.9583 3.64583C10.9583 4.44792 11.6146 5.10417 12.4167 5.10417H13.875V8.02083H5.125C2.71875 8.02083 0.75 9.98958 0.75 12.3958V37.1875C0.75 39.5938 2.71875 41.5625 5.125 41.5625H6.58333V44.4792H2.20833C1.40625 44.4792 0.75 45.1354 0.75 45.9375V57.6042C0.75 58.4062 1.40625 59.0625 2.20833 59.0625H5.125C5.125 63.8896 9.04792 67.8125 13.875 67.8125C18.7021 67.8125 22.625 63.8896 22.625 59.0625H47.4167C47.4167 63.8896 51.3396 67.8125 56.1667 67.8125C60.9938 67.8125 64.9167 63.8896 64.9167 59.0625C64.9167 54.2354 60.9938 50.3125 56.1667 50.3125C52.3604 50.3125 49.1375 52.7479 47.9271 56.1458H22.1146C20.9042 52.7479 17.6812 50.3125 13.875 50.3125C10.0688 50.3125 6.84583 52.7479 5.63542 56.1458H3.66667V47.3958H67.8333V56.1458H64.9167V59.0625H69.2917C70.0938 59.0625 70.75 58.4062 70.75 57.6042V45.9375C70.75 45.1354 70.0938 44.4792 69.2917 44.4792H64.9167V41.5625H66.375ZM56.1667 53.2292C59.3896 53.2292 62 55.8396 62 59.0625C62 62.2854 59.3896 64.8958 56.1667 64.8958C52.9438 64.8958 50.3333 62.2854 50.3333 59.0625C50.3333 55.8396 52.9438 53.2292 56.1667 53.2292ZM13.875 53.2292C17.0979 53.2292 19.7083 55.8396 19.7083 59.0625C19.7083 62.2854 17.0979 64.8958 13.875 64.8958C10.6521 64.8958 8.04167 62.2854 8.04167 59.0625C8.04167 55.8396 10.6521 53.2292 13.875 53.2292ZM48.875 10.9375V15.3125H43.0417V10.9375H48.875ZM43.0417 18.2292H48.875V22.6042H43.0417V18.2292ZM16.7917 5.10417H21.1667V8.02083H16.7917V5.10417ZM5.125 38.6458C4.32292 38.6458 3.66667 37.9896 3.66667 37.1875V12.3958C3.66667 11.5938 4.32292 10.9375 5.125 10.9375H40.125V31.3542C40.125 32.1562 40.7812 32.8125 41.5833 32.8125C42.3854 32.8125 43.0417 32.1562 43.0417 31.3542V25.5208H48.875V31.3542C48.875 32.1562 49.5312 32.8125 50.3333 32.8125C51.1354 32.8125 51.7917 32.1562 51.7917 31.3542V10.9375H66.375C67.1771 10.9375 67.8333 11.5938 67.8333 12.3958V37.1875C67.8333 37.9896 67.1771 38.6458 66.375 38.6458H64.9167V35.7292C64.9167 34.9271 64.2604 34.2708 63.4583 34.2708C62.6562 34.2708 62 34.9271 62 35.7292V38.6458H9.5V35.7292C9.5 34.9271 8.84375 34.2708 8.04167 34.2708C7.23958 34.2708 6.58333 34.9271 6.58333 35.7292V38.6458H5.125ZM62 44.4792H9.5V41.5625H62V44.4792Z"/>
</mask>
<path d="M66.375 41.5625C68.7812 41.5625 70.75 39.5938 70.75 37.1875V12.3958C70.75 9.98958 68.7812 8.02083 66.375 8.02083H51.7917V6.5625C51.7917 5.76042 51.1354 5.10417 50.3333 5.10417C49.5312 5.10417 48.875 5.76042 48.875 6.5625V8.02083H43.0417V6.5625C43.0417 5.76042 42.3854 5.10417 41.5833 5.10417C40.7812 5.10417 40.125 5.76042 40.125 6.5625V8.02083H24.0833V5.10417H25.5417C26.3438 5.10417 27 4.44792 27 3.64583C27 2.84375 26.3438 2.1875 25.5417 2.1875H12.4167C11.6146 2.1875 10.9583 2.84375 10.9583 3.64583C10.9583 4.44792 11.6146 5.10417 12.4167 5.10417H13.875V8.02083H5.125C2.71875 8.02083 0.75 9.98958 0.75 12.3958V37.1875C0.75 39.5938 2.71875 41.5625 5.125 41.5625H6.58333V44.4792H2.20833C1.40625 44.4792 0.75 45.1354 0.75 45.9375V57.6042C0.75 58.4062 1.40625 59.0625 2.20833 59.0625H5.125C5.125 63.8896 9.04792 67.8125 13.875 67.8125C18.7021 67.8125 22.625 63.8896 22.625 59.0625H47.4167C47.4167 63.8896 51.3396 67.8125 56.1667 67.8125C60.9938 67.8125 64.9167 63.8896 64.9167 59.0625C64.9167 54.2354 60.9938 50.3125 56.1667 50.3125C52.3604 50.3125 49.1375 52.7479 47.9271 56.1458H22.1146C20.9042 52.7479 17.6812 50.3125 13.875 50.3125C10.0688 50.3125 6.84583 52.7479 5.63542 56.1458H3.66667V47.3958H67.8333V56.1458H64.9167V59.0625H69.2917C70.0938 59.0625 70.75 58.4062 70.75 57.6042V45.9375C70.75 45.1354 70.0938 44.4792 69.2917 44.4792H64.9167V41.5625H66.375ZM56.1667 53.2292C59.3896 53.2292 62 55.8396 62 59.0625C62 62.2854 59.3896 64.8958 56.1667 64.8958C52.9438 64.8958 50.3333 62.2854 50.3333 59.0625C50.3333 55.8396 52.9438 53.2292 56.1667 53.2292ZM13.875 53.2292C17.0979 53.2292 19.7083 55.8396 19.7083 59.0625C19.7083 62.2854 17.0979 64.8958 13.875 64.8958C10.6521 64.8958 8.04167 62.2854 8.04167 59.0625C8.04167 55.8396 10.6521 53.2292 13.875 53.2292ZM48.875 10.9375V15.3125H43.0417V10.9375H48.875ZM43.0417 18.2292H48.875V22.6042H43.0417V18.2292ZM16.7917 5.10417H21.1667V8.02083H16.7917V5.10417ZM5.125 38.6458C4.32292 38.6458 3.66667 37.9896 3.66667 37.1875V12.3958C3.66667 11.5938 4.32292 10.9375 5.125 10.9375H40.125V31.3542C40.125 32.1562 40.7812 32.8125 41.5833 32.8125C42.3854 32.8125 43.0417 32.1562 43.0417 31.3542V25.5208H48.875V31.3542C48.875 32.1562 49.5312 32.8125 50.3333 32.8125C51.1354 32.8125 51.7917 32.1562 51.7917 31.3542V10.9375H66.375C67.1771 10.9375 67.8333 11.5938 67.8333 12.3958V37.1875C67.8333 37.9896 67.1771 38.6458 66.375 38.6458H64.9167V35.7292C64.9167 34.9271 64.2604 34.2708 63.4583 34.2708C62.6562 34.2708 62 34.9271 62 35.7292V38.6458H9.5V35.7292C9.5 34.9271 8.84375 34.2708 8.04167 34.2708C7.23958 34.2708 6.58333 34.9271 6.58333 35.7292V38.6458H5.125ZM62 44.4792H9.5V41.5625H62V44.4792Z" fill="#FF6A6E"/>
<path d="M51.7917 8.02083H50.7917V9.02083H51.7917V8.02083ZM48.875 8.02083V9.02083H49.875V8.02083H48.875ZM43.0417 8.02083H42.0417V9.02083H43.0417V8.02083ZM40.125 8.02083V9.02083H41.125V8.02083H40.125ZM24.0833 8.02083H23.0833V9.02083H24.0833V8.02083ZM24.0833 5.10417V4.10417H23.0833V5.10417H24.0833ZM13.875 5.10417H14.875V4.10417H13.875V5.10417ZM13.875 8.02083V9.02083H14.875V8.02083H13.875ZM6.58333 41.5625H7.58333V40.5625H6.58333V41.5625ZM6.58333 44.4792V45.4792H7.58333V44.4792H6.58333ZM5.125 59.0625H6.125V58.0625H5.125V59.0625ZM22.625 59.0625V58.0625H21.625V59.0625H22.625ZM47.4167 59.0625H48.4167V58.0625H47.4167V59.0625ZM47.9271 56.1458V57.1458H48.6324L48.8691 56.4814L47.9271 56.1458ZM22.1146 56.1458L21.1726 56.4814L21.4093 57.1458H22.1146V56.1458ZM5.63542 56.1458V57.1458H6.34075L6.57743 56.4814L5.63542 56.1458ZM3.66667 56.1458H2.66667V57.1458H3.66667V56.1458ZM3.66667 47.3958V46.3958H2.66667V47.3958H3.66667ZM67.8333 47.3958H68.8333V46.3958H67.8333V47.3958ZM67.8333 56.1458V57.1458H68.8333V56.1458H67.8333ZM64.9167 56.1458V55.1458H63.9167V56.1458H64.9167ZM64.9167 44.4792H63.9167V45.4792H64.9167V44.4792ZM64.9167 41.5625V40.5625H63.9167V41.5625H64.9167ZM48.875 10.9375H49.875V9.9375H48.875V10.9375ZM48.875 15.3125V16.3125H49.875V15.3125H48.875ZM43.0417 15.3125H42.0417V16.3125H43.0417V15.3125ZM43.0417 10.9375V9.9375H42.0417V10.9375H43.0417ZM43.0417 18.2292V17.2292H42.0417V18.2292H43.0417ZM48.875 18.2292H49.875V17.2292H48.875V18.2292ZM48.875 22.6042V23.6042H49.875V22.6042H48.875ZM43.0417 22.6042H42.0417V23.6042H43.0417V22.6042ZM16.7917 5.10417V4.10417H15.7917V5.10417H16.7917ZM21.1667 5.10417H22.1667V4.10417H21.1667V5.10417ZM21.1667 8.02083V9.02083H22.1667V8.02083H21.1667ZM16.7917 8.02083H15.7917V9.02083H16.7917V8.02083ZM40.125 10.9375H41.125V9.9375H40.125V10.9375ZM43.0417 25.5208V24.5208H42.0417V25.5208H43.0417ZM48.875 25.5208H49.875V24.5208H48.875V25.5208ZM51.7917 10.9375V9.9375H50.7917V10.9375H51.7917ZM64.9167 38.6458H63.9167V39.6458H64.9167V38.6458ZM62 38.6458V39.6458H63V38.6458H62ZM9.5 38.6458H8.5V39.6458H9.5V38.6458ZM6.58333 38.6458V39.6458H7.58333V38.6458H6.58333ZM62 44.4792V45.4792H63V44.4792H62ZM9.5 44.4792H8.5V45.4792H9.5V44.4792ZM9.5 41.5625V40.5625H8.5V41.5625H9.5ZM62 41.5625H63V40.5625H62V41.5625ZM66.375 42.5625C69.3335 42.5625 71.75 40.146 71.75 37.1875H69.75C69.75 39.0415 68.229 40.5625 66.375 40.5625V42.5625ZM71.75 37.1875V12.3958H69.75V37.1875H71.75ZM71.75 12.3958C71.75 9.4373 69.3335 7.02083 66.375 7.02083V9.02083C68.229 9.02083 69.75 10.5419 69.75 12.3958H71.75ZM66.375 7.02083H51.7917V9.02083H66.375V7.02083ZM52.7917 8.02083V6.5625H50.7917V8.02083H52.7917ZM52.7917 6.5625C52.7917 5.20813 51.6877 4.10417 50.3333 4.10417V6.10417C50.5831 6.10417 50.7917 6.3127 50.7917 6.5625H52.7917ZM50.3333 4.10417C48.979 4.10417 47.875 5.20813 47.875 6.5625H49.875C49.875 6.3127 50.0835 6.10417 50.3333 6.10417V4.10417ZM47.875 6.5625V8.02083H49.875V6.5625H47.875ZM48.875 7.02083H43.0417V9.02083H48.875V7.02083ZM44.0417 8.02083V6.5625H42.0417V8.02083H44.0417ZM44.0417 6.5625C44.0417 5.20813 42.9377 4.10417 41.5833 4.10417V6.10417C41.8331 6.10417 42.0417 6.3127 42.0417 6.5625H44.0417ZM41.5833 4.10417C40.229 4.10417 39.125 5.20813 39.125 6.5625H41.125C41.125 6.3127 41.3335 6.10417 41.5833 6.10417V4.10417ZM39.125 6.5625V8.02083H41.125V6.5625H39.125ZM40.125 7.02083H24.0833V9.02083H40.125V7.02083ZM25.0833 8.02083V5.10417H23.0833V8.02083H25.0833ZM24.0833 6.10417H25.5417V4.10417H24.0833V6.10417ZM25.5417 6.10417C26.896 6.10417 28 5.0002 28 3.64583H26C26 3.89563 25.7915 4.10417 25.5417 4.10417V6.10417ZM28 3.64583C28 2.29147 26.896 1.1875 25.5417 1.1875V3.1875C25.7915 3.1875 26 3.39603 26 3.64583H28ZM25.5417 1.1875H12.4167V3.1875H25.5417V1.1875ZM12.4167 1.1875C11.0623 1.1875 9.95833 2.29147 9.95833 3.64583H11.9583C11.9583 3.39603 12.1669 3.1875 12.4167 3.1875V1.1875ZM9.95833 3.64583C9.95833 5.0002 11.0623 6.10417 12.4167 6.10417V4.10417C12.1669 4.10417 11.9583 3.89563 11.9583 3.64583H9.95833ZM12.4167 6.10417H13.875V4.10417H12.4167V6.10417ZM12.875 5.10417V8.02083H14.875V5.10417H12.875ZM13.875 7.02083H5.125V9.02083H13.875V7.02083ZM5.125 7.02083C2.16647 7.02083 -0.25 9.4373 -0.25 12.3958H1.75C1.75 10.5419 3.27103 9.02083 5.125 9.02083V7.02083ZM-0.25 12.3958V37.1875H1.75V12.3958H-0.25ZM-0.25 37.1875C-0.25 40.146 2.16647 42.5625 5.125 42.5625V40.5625C3.27103 40.5625 1.75 39.0415 1.75 37.1875H-0.25ZM5.125 42.5625H6.58333V40.5625H5.125V42.5625ZM5.58333 41.5625V44.4792H7.58333V41.5625H5.58333ZM6.58333 43.4792H2.20833V45.4792H6.58333V43.4792ZM2.20833 43.4792C0.853965 43.4792 -0.25 44.5831 -0.25 45.9375H1.75C1.75 45.6877 1.95853 45.4792 2.20833 45.4792V43.4792ZM-0.25 45.9375V57.6042H1.75V45.9375H-0.25ZM-0.25 57.6042C-0.25 58.9585 0.853965 60.0625 2.20833 60.0625V58.0625C1.95853 58.0625 1.75 57.854 1.75 57.6042H-0.25ZM2.20833 60.0625H5.125V58.0625H2.20833V60.0625ZM4.125 59.0625C4.125 64.4419 8.49563 68.8125 13.875 68.8125V66.8125C9.6002 66.8125 6.125 63.3373 6.125 59.0625H4.125ZM13.875 68.8125C19.2544 68.8125 23.625 64.4419 23.625 59.0625H21.625C21.625 63.3373 18.1498 66.8125 13.875 66.8125V68.8125ZM22.625 60.0625H47.4167V58.0625H22.625V60.0625ZM46.4167 59.0625C46.4167 64.4419 50.7873 68.8125 56.1667 68.8125V66.8125C51.8919 66.8125 48.4167 63.3373 48.4167 59.0625H46.4167ZM56.1667 68.8125C61.546 68.8125 65.9167 64.4419 65.9167 59.0625H63.9167C63.9167 63.3373 60.4415 66.8125 56.1667 66.8125V68.8125ZM65.9167 59.0625C65.9167 53.6831 61.546 49.3125 56.1667 49.3125V51.3125C60.4415 51.3125 63.9167 54.7877 63.9167 59.0625H65.9167ZM56.1667 49.3125C51.9203 49.3125 48.3315 52.0304 46.9851 55.8103L48.8691 56.4814C49.9435 53.4654 52.8005 51.3125 56.1667 51.3125V49.3125ZM47.9271 55.1458H22.1146V57.1458H47.9271V55.1458ZM23.0566 55.8103C21.7101 52.0304 18.1214 49.3125 13.875 49.3125V51.3125C17.2411 51.3125 20.0982 53.4654 21.1726 56.4814L23.0566 55.8103ZM13.875 49.3125C9.62862 49.3125 6.03987 52.0304 4.6934 55.8103L6.57743 56.4814C7.6518 53.4654 10.5089 51.3125 13.875 51.3125V49.3125ZM5.63542 55.1458H3.66667V57.1458H5.63542V55.1458ZM4.66667 56.1458V47.3958H2.66667V56.1458H4.66667ZM3.66667 48.3958H67.8333V46.3958H3.66667V48.3958ZM66.8333 47.3958V56.1458H68.8333V47.3958H66.8333ZM67.8333 55.1458H64.9167V57.1458H67.8333V55.1458ZM63.9167 56.1458V59.0625H65.9167V56.1458H63.9167ZM64.9167 60.0625H69.2917V58.0625H64.9167V60.0625ZM69.2917 60.0625C70.646 60.0625 71.75 58.9585 71.75 57.6042H69.75C69.75 57.854 69.5415 58.0625 69.2917 58.0625V60.0625ZM71.75 57.6042V45.9375H69.75V57.6042H71.75ZM71.75 45.9375C71.75 44.5831 70.646 43.4792 69.2917 43.4792V45.4792C69.5415 45.4792 69.75 45.6877 69.75 45.9375H71.75ZM69.2917 43.4792H64.9167V45.4792H69.2917V43.4792ZM65.9167 44.4792V41.5625H63.9167V44.4792H65.9167ZM64.9167 42.5625H66.375V40.5625H64.9167V42.5625ZM56.1667 54.2292C58.8373 54.2292 61 56.3919 61 59.0625H63C63 55.2873 59.9419 52.2292 56.1667 52.2292V54.2292ZM61 59.0625C61 61.7331 58.8373 63.8958 56.1667 63.8958V65.8958C59.9419 65.8958 63 62.8377 63 59.0625H61ZM56.1667 63.8958C53.496 63.8958 51.3333 61.7331 51.3333 59.0625H49.3333C49.3333 62.8377 52.3915 65.8958 56.1667 65.8958V63.8958ZM51.3333 59.0625C51.3333 56.3919 53.496 54.2292 56.1667 54.2292V52.2292C52.3915 52.2292 49.3333 55.2873 49.3333 59.0625H51.3333ZM13.875 54.2292C16.5456 54.2292 18.7083 56.3919 18.7083 59.0625H20.7083C20.7083 55.2873 17.6502 52.2292 13.875 52.2292V54.2292ZM18.7083 59.0625C18.7083 61.7331 16.5456 63.8958 13.875 63.8958V65.8958C17.6502 65.8958 20.7083 62.8377 20.7083 59.0625H18.7083ZM13.875 63.8958C11.2044 63.8958 9.04167 61.7331 9.04167 59.0625H7.04167C7.04167 62.8377 10.0998 65.8958 13.875 65.8958V63.8958ZM9.04167 59.0625C9.04167 56.3919 11.2044 54.2292 13.875 54.2292V52.2292C10.0998 52.2292 7.04167 55.2873 7.04167 59.0625H9.04167ZM47.875 10.9375V15.3125H49.875V10.9375H47.875ZM48.875 14.3125H43.0417V16.3125H48.875V14.3125ZM44.0417 15.3125V10.9375H42.0417V15.3125H44.0417ZM43.0417 11.9375H48.875V9.9375H43.0417V11.9375ZM43.0417 19.2292H48.875V17.2292H43.0417V19.2292ZM47.875 18.2292V22.6042H49.875V18.2292H47.875ZM48.875 21.6042H43.0417V23.6042H48.875V21.6042ZM44.0417 22.6042V18.2292H42.0417V22.6042H44.0417ZM16.7917 6.10417H21.1667V4.10417H16.7917V6.10417ZM20.1667 5.10417V8.02083H22.1667V5.10417H20.1667ZM21.1667 7.02083H16.7917V9.02083H21.1667V7.02083ZM17.7917 8.02083V5.10417H15.7917V8.02083H17.7917ZM5.125 37.6458C4.8752 37.6458 4.66667 37.4373 4.66667 37.1875H2.66667C2.66667 38.5419 3.77063 39.6458 5.125 39.6458V37.6458ZM4.66667 37.1875V12.3958H2.66667V37.1875H4.66667ZM4.66667 12.3958C4.66667 12.146 4.8752 11.9375 5.125 11.9375V9.9375C3.77063 9.9375 2.66667 11.0415 2.66667 12.3958H4.66667ZM5.125 11.9375H40.125V9.9375H5.125V11.9375ZM39.125 10.9375V31.3542H41.125V10.9375H39.125ZM39.125 31.3542C39.125 32.7085 40.229 33.8125 41.5833 33.8125V31.8125C41.3335 31.8125 41.125 31.604 41.125 31.3542H39.125ZM41.5833 33.8125C42.9377 33.8125 44.0417 32.7085 44.0417 31.3542H42.0417C42.0417 31.604 41.8331 31.8125 41.5833 31.8125V33.8125ZM44.0417 31.3542V25.5208H42.0417V31.3542H44.0417ZM43.0417 26.5208H48.875V24.5208H43.0417V26.5208ZM47.875 25.5208V31.3542H49.875V25.5208H47.875ZM47.875 31.3542C47.875 32.7085 48.979 33.8125 50.3333 33.8125V31.8125C50.0835 31.8125 49.875 31.604 49.875 31.3542H47.875ZM50.3333 33.8125C51.6877 33.8125 52.7917 32.7085 52.7917 31.3542H50.7917C50.7917 31.604 50.5831 31.8125 50.3333 31.8125V33.8125ZM52.7917 31.3542V10.9375H50.7917V31.3542H52.7917ZM51.7917 11.9375H66.375V9.9375H51.7917V11.9375ZM66.375 11.9375C66.6248 11.9375 66.8333 12.146 66.8333 12.3958H68.8333C68.8333 11.0415 67.7294 9.9375 66.375 9.9375V11.9375ZM66.8333 12.3958V37.1875H68.8333V12.3958H66.8333ZM66.8333 37.1875C66.8333 37.4373 66.6248 37.6458 66.375 37.6458V39.6458C67.7294 39.6458 68.8333 38.5419 68.8333 37.1875H66.8333ZM66.375 37.6458H64.9167V39.6458H66.375V37.6458ZM65.9167 38.6458V35.7292H63.9167V38.6458H65.9167ZM65.9167 35.7292C65.9167 34.3748 64.8127 33.2708 63.4583 33.2708V35.2708C63.7081 35.2708 63.9167 35.4794 63.9167 35.7292H65.9167ZM63.4583 33.2708C62.104 33.2708 61 34.3748 61 35.7292H63C63 35.4794 63.2085 35.2708 63.4583 35.2708V33.2708ZM61 35.7292V38.6458H63V35.7292H61ZM62 37.6458H9.5V39.6458H62V37.6458ZM10.5 38.6458V35.7292H8.5V38.6458H10.5ZM10.5 35.7292C10.5 34.3748 9.39604 33.2708 8.04167 33.2708V35.2708C8.29147 35.2708 8.5 35.4794 8.5 35.7292H10.5ZM8.04167 33.2708C6.6873 33.2708 5.58333 34.3748 5.58333 35.7292H7.58333C7.58333 35.4794 7.79187 35.2708 8.04167 35.2708V33.2708ZM5.58333 35.7292V38.6458H7.58333V35.7292H5.58333ZM6.58333 37.6458H5.125V39.6458H6.58333V37.6458ZM62 43.4792H9.5V45.4792H62V43.4792ZM10.5 44.4792V41.5625H8.5V44.4792H10.5ZM9.5 42.5625H62V40.5625H9.5V42.5625ZM61 41.5625V44.4792H63V41.5625H61Z" fill="white" mask="url(#path-1-inside-1_8_6546)"/>
<path d="M21.5639 18.8005L21.1667 18.2812L20.7695 18.8005C19.718 20.1756 18.6114 21.7721 17.7649 23.2279C17.3419 23.9555 16.9787 24.6566 16.7199 25.2831C16.4663 25.897 16.2917 26.4881 16.2917 26.9793C16.2917 29.6617 18.4843 31.8543 21.1667 31.8543C23.8491 31.8543 26.0417 29.6617 26.0417 26.9793C26.0417 26.4849 25.8674 25.8922 25.6135 25.2771C25.3546 24.6497 24.9914 23.9489 24.5683 23.2222C23.7217 21.768 22.6151 20.1753 21.5639 18.8005ZM27.9584 26.9793C27.9584 30.7281 24.9155 33.7709 21.1667 33.7709C17.4178 33.7709 14.375 30.7281 14.375 26.9793C14.375 26.191 14.6633 25.2022 15.1518 24.1094C15.636 23.0263 16.2967 21.8852 16.9962 20.8053C18.3926 18.6496 19.9173 16.7777 20.4272 16.1585C20.7995 15.7227 21.5527 15.7312 21.9038 16.1557C22.4114 16.772 23.9387 18.6463 25.3371 20.8053C26.0367 21.8852 26.6973 23.0263 27.1816 24.1094C27.6701 25.2022 27.9584 26.191 27.9584 26.9793ZM14.8334 59.0626C14.8334 59.5885 14.401 60.0209 13.875 60.0209C13.3491 60.0209 12.9167 59.5885 12.9167 59.0626C12.9167 58.5367 13.3491 58.1043 13.875 58.1043C14.401 58.1043 14.8334 58.5367 14.8334 59.0626Z" fill="#FF6A6E" stroke="white"/>
</g>
<defs>
<clipPath id="clip0_8_6546">
<rect width="47" height="70" fill="white" transform="translate(0.75)"/>
</clipPath>
</defs>
</svg>
