<svg width="73" height="52" viewBox="0 0 73 52" fill="none" xmlns="http://www.w3.org/2000/svg">
<path d="M11.0372 40.0986C11.0372 46.1564 15.9481 51.0674 22.0062 51.0674C28.0641 51.0674 32.975 46.1564 32.975 40.0986C32.975 34.0404 28.0641 29.1297 22.0062 29.1297C15.9481 29.1297 11.0372 34.0404 11.0372 40.0986Z" stroke="#FF6A6E" stroke-miterlimit="10" stroke-linecap="round" stroke-linejoin="round"/>
<path d="M16.5216 40.0983C16.5216 43.1274 18.9769 45.5828 22.006 45.5828C25.0348 45.5828 27.4904 43.1274 27.4904 40.0983C27.4904 37.0693 25.0348 34.6139 22.006 34.6139C18.9769 34.6139 16.5216 37.0693 16.5216 40.0983Z" stroke="#FF6A6E" stroke-miterlimit="10" stroke-linecap="round" stroke-linejoin="round"/>
<path d="M2.63918 37.3867H11.3755C11.1503 38.273 11.0366 39.184 11.037 40.0984C11.037 41.082 11.1687 42.0348 11.4114 42.9419H2.63918C1.58395 42.9419 0.728644 42.0866 0.728644 41.0316V39.2972C0.728644 38.242 1.58395 37.3867 2.63918 37.3867Z" stroke="#FF6A6E" stroke-miterlimit="10" stroke-linecap="round" stroke-linejoin="round"/>
<path d="M9.97464 22.2039C10.1455 22.5727 10.2343 22.9741 10.2349 23.3806V28.1179C10.2349 29.6786 8.95768 30.9556 7.39697 30.9556H2.72423C2.82324 26.718 5.81829 23.0917 9.97464 22.2039Z" stroke="#FF6A6E" stroke-miterlimit="10" stroke-linecap="round" stroke-linejoin="round"/>
<path d="M80.9901 8.23441L78.6209 22.2039H59.2239V7.01625C65.2655 6.42374 72.8305 6.43956 80.9901 8.23441Z" stroke="#FF6A6E" stroke-miterlimit="10" stroke-linecap="round" stroke-linejoin="round"/>
<path d="M54.4579 28.2756H52.4481" stroke="#FF6A6E" stroke-miterlimit="10" stroke-linecap="round" stroke-linejoin="round"/>
<path d="M74.556 28.2756H72.5463" stroke="#FF6A6E" stroke-miterlimit="10" stroke-linecap="round" stroke-linejoin="round"/>
<path d="M35.4127 20.7319V19.3848L45.0066 11.1228C46.5059 9.83126 48.3096 8.91566 50.2233 8.47475C57.4857 6.8005 72.016 4.78562 87.7358 10.1056C90.3699 10.9973 92.644 12.7694 94.138 15.0954C94.3764 15.4666 94.3007 15.9589 93.9678 16.2488L87.3849 21.9834C87.2217 22.1256 87.0125 22.2039 86.7961 22.2039H34.9805C35.2623 21.7646 35.4122 21.2538 35.4127 20.7319Z" stroke="#FF6A6E" stroke-miterlimit="10" stroke-linecap="round" stroke-linejoin="round"/>
<path d="M30.2466 15.566H32.6562C34.172 15.566 35.4124 16.8064 35.4124 18.3224V20.7318C35.4124 22.2478 34.172 23.488 32.6562 23.488H30.2466C28.7306 23.488 27.4902 22.2478 27.4902 20.7318V18.3224C27.4902 16.8064 28.7306 15.566 30.2466 15.566Z" stroke="#FF6A6E" stroke-miterlimit="10" stroke-linecap="round" stroke-linejoin="round"/>
<path d="M55.4821 42.9419H32.6004C32.849 42.0145 32.9749 41.0584 32.9748 40.0982C32.9748 39.1623 32.8568 38.254 32.6363 37.3867H79.7351C79.5099 38.273 79.3962 39.1838 79.3966 40.0982C79.3966 41.082 79.5281 42.0348 79.771 42.9419H62.966" stroke="#FF6A6E" stroke-miterlimit="10" stroke-linecap="round" stroke-linejoin="round"/>
<path d="M42.1197 6.07536C44.139 4.53948 46.4614 3.44995 48.9333 2.87888C56.498 1.1347 72.3814 -1.15366 89.5766 4.66603C93.442 5.97422 96.7539 8.54868 98.9621 11.9802L104.405 20.4382C105.574 22.2559 106.196 24.3717 106.196 26.5331V31.8208C106.196 32.8218 106.063 33.8182 105.8 34.7838L105.09 37.3867H100.996C99.7889 32.6404 95.4874 29.1294 90.3656 29.1294C85.2437 29.1294 80.9423 32.6404 79.7351 37.3867H32.6363C31.4293 32.6404 27.128 29.1294 22.006 29.1294C16.884 29.1294 12.5827 32.6404 11.3756 37.3867H2.71955V31.171C2.71955 26.8124 5.78709 23.0561 10.0578 22.1848L25.9682 18.9391C26.4975 18.8303 27.0096 18.65 27.4904 18.4033V20.7316C27.4904 22.2476 28.7308 23.488 30.2468 23.488H32.6562C34.1722 23.488 35.4126 22.2476 35.4126 20.7316V18.3222C35.4126 16.8064 34.1722 15.566 32.6562 15.566H31.0468L36.4095 10.9478" stroke="#FF6A6E" stroke-miterlimit="10" stroke-linecap="round" stroke-linejoin="round"/>
</svg>
