<svg width="42" height="46" viewBox="0 0 42 46" fill="none" xmlns="http://www.w3.org/2000/svg">
<g clip-path="url(#clip0_8_5002)">
<g clip-path="url(#clip1_8_5002)">
<g clip-path="url(#clip2_8_5002)">
<path d="M9.58127 37.2041L9.58126 37.2041L9.58092 37.203L7.61688 31.1726C7.51023 30.8593 7.17885 30.6858 6.85899 30.7835C6.546 30.8905 6.37282 31.2219 6.47087 31.5417L8.30472 37.147L8.32462 37.2078L8.27774 37.2514L6.6088 38.8018L6.53554 38.8698L6.46748 38.7966L1.97294 33.9584C1.74663 33.7148 1.36468 33.7007 1.12107 33.9271C0.877455 34.1534 0.863389 34.5353 1.0897 34.7789L6.05431 40.1231C6.28062 40.3667 6.66257 40.3808 6.90619 40.1545L9.41847 37.8206C9.59446 37.6571 9.65344 37.4177 9.58127 37.2041Z" fill="#72A3DD" stroke="white" stroke-width="0.2"/>
<path d="M-1.03754 36.1638L-1.03728 36.1637C0.963151 35.3296 3.05362 34.3451 4.54607 33.5194L4.5464 33.5192C7.14982 32.0914 9.27001 30.6652 10.8316 29.2639L13.4853 26.7988L13.5769 26.7137L13.6398 26.8217L21.405 40.1654L21.4054 40.1662C21.4949 40.3233 21.6524 40.4323 21.8358 40.4612C22.0184 40.4899 22.2045 40.4304 22.3331 40.3109L25.0585 37.7791C25.219 37.6299 25.2849 37.4125 25.2341 37.2065L25.234 37.2058L21.0811 19.8283L21.0675 19.7716L21.1103 19.7318L26.9064 14.3474C28.4149 12.8801 29.5268 11.0758 30.1078 9.14284L30.1078 9.14281C30.388 8.21179 30.5146 7.09331 30.5702 6.51283L30.5704 6.51141C30.6055 6.19301 30.4847 5.86481 30.2633 5.62648C30.0431 5.38944 29.7328 5.25185 29.4014 5.25525C28.8185 5.26806 27.7114 5.31269 26.7539 5.53175L26.7533 5.53189C24.7829 5.96917 22.9017 6.94538 21.3274 8.34194L15.5313 13.7264L15.4886 13.7661L15.4329 13.7484L-1.5921 8.32887L-1.59275 8.32865C-1.79449 8.26289 -2.01617 8.31259 -2.17673 8.46174L-4.90207 10.9935C-5.03888 11.1206 -5.10385 11.2933 -5.08852 11.4784C-5.07319 11.6635 -4.97612 11.8286 -4.826 11.9293L-4.82534 11.9298L7.9289 20.6387L8.03232 20.7093L7.94057 20.7946L5.28687 23.2598C3.7746 24.7142 2.19633 26.7237 0.580966 29.215L0.497061 29.1606L0.580952 29.215C-0.361937 30.6683 -1.49756 32.6809 -2.46703 34.5892L-2.46683 34.5893L-2.47029 34.5951C-2.71147 34.9998 -2.64612 35.5286 -2.32026 35.8794C-1.98521 36.2401 -1.4855 36.3521 -1.03754 36.1638ZM13.8192 25.1722L13.8183 25.1721C13.6358 25.1433 13.4497 25.2029 13.3211 25.3224L10.0453 28.3655L10.044 28.3667C8.54689 29.7076 6.50872 31.086 3.98461 32.47L3.98429 32.4702C2.60744 33.2188 0.728012 34.1199 -1.11221 34.902L-1.36841 35.0109L-1.24006 34.7639C-0.32565 33.004 0.702989 31.1869 1.5599 29.8602L1.55999 29.8601C3.12595 27.4446 4.65047 25.5133 6.09783 24.1189L6.09781 24.1188L6.09915 24.1176L9.37488 21.0745C9.51169 20.9474 9.57667 20.7747 9.56133 20.5896C9.54601 20.4045 9.44893 20.2394 9.29882 20.1387L9.29815 20.1382L-3.46435 11.4204L-3.56774 11.3498L-3.476 11.2646L-1.67391 9.5905L-1.63114 9.55077L-1.57551 9.56847L15.4495 14.988L15.4502 14.9882C15.6519 15.054 15.8736 15.0043 16.0341 14.8551L22.1151 9.20603L22.1151 9.20601L22.117 9.20431C23.547 7.94265 25.2401 7.07033 27.0121 6.6767L27.0124 6.67665C27.791 6.50571 28.6922 6.45269 29.2607 6.43919L29.3736 6.43652L29.3626 6.54889C29.3074 7.11436 29.1876 8.02659 28.9604 8.77389C28.4375 10.5123 27.4341 12.1449 26.0797 13.4699L26.0797 13.4699L26.0778 13.4716L19.9968 19.1207C19.8363 19.2699 19.7704 19.4873 19.8211 19.6933L19.8213 19.694L23.9907 37.0892L24.0043 37.146L23.9615 37.1857L22.1683 38.8516L22.0765 38.9368L22.0137 38.8285L14.2636 25.4692L14.1641 25.362C14.0701 25.2609 13.9473 25.1912 13.8192 25.1722Z" fill="#72A3DD" stroke="white" stroke-width="0.2"/>
<path d="M-4.55801 26.9277L-4.62607 26.8544L-4.5528 26.7863L-2.88387 25.2359L-2.83708 25.1925L-2.77797 25.2166L2.66163 27.4403L2.66163 27.4403L2.6628 27.4408C2.96569 27.5691 3.3237 27.4208 3.44511 27.11L3.44507 27.11L3.44618 27.1074C3.57452 26.8045 3.42619 26.4465 3.11542 26.3251L3.11385 26.3245L-2.7393 23.9227L-2.74022 23.9223C-2.9471 23.835 -3.1992 23.8834 -3.36704 24.0393L-5.8782 26.3721C-6.12463 26.6165 -6.12871 27.0081 -5.91132 27.2422L-0.963209 32.5686C-0.736899 32.8122 -0.354942 32.8262 -0.11133 32.5999C0.132282 32.3736 0.146344 31.9917 -0.0799663 31.748L-4.55801 26.9277Z" fill="#72A3DD" stroke="white" stroke-width="0.2"/>
</g>
</g>
</g>
<defs>
<clipPath id="clip0_8_5002">
<rect width="42" height="46" fill="white" transform="matrix(-1 0 0 1 42 0)"/>
</clipPath>
<clipPath id="clip1_8_5002">
<rect width="42" height="50" fill="white"/>
</clipPath>
<clipPath id="clip2_8_5002">
<rect width="66.0359" height="58.823" fill="white" transform="matrix(-0.785314 -0.619098 -0.619098 0.785314 61.2759 29.8827)"/>
</clipPath>
</defs>
</svg>
