<svg width="76" height="101" viewBox="0 0 76 101" fill="none" xmlns="http://www.w3.org/2000/svg">
<path d="M82.6012 56.8908L82.6012 56.8908L82.5977 56.8923L72.2829 61.2432C71.8339 61.4403 71.6204 61.9487 71.8026 62.4077C72.0009 62.8555 72.5094 63.0677 72.968 62.8844L82.5538 58.8259L82.76 58.7386L82.9257 58.8893L85.9011 61.5945L86.16 61.83L85.9246 62.0889L78.0822 70.7144C77.7518 71.0778 77.7786 71.6421 78.142 71.9725C78.5054 72.3029 79.0697 72.2761 79.4001 71.9127L88.0627 62.3851C88.3932 62.0217 88.3663 61.4574 88.0029 61.127L83.524 57.0547C83.2597 56.8144 82.9023 56.7598 82.6012 56.8908Z" fill="#72A3DD" stroke="white" stroke-width="0.7"/>
<path d="M82.1272 75.6458L82.1268 75.6449C80.3641 72.2539 78.3248 68.7288 76.655 66.2331L76.6542 66.232C73.7603 61.8717 70.9449 58.3663 68.2613 55.84L63.5315 51.5395L63.2077 51.2451L63.566 50.994L85.8838 35.3508L85.8866 35.3489C86.1056 35.1985 86.2468 34.9536 86.2667 34.6785C86.2862 34.4066 86.1749 34.1398 85.9847 33.9668L81.126 29.5492C80.885 29.3302 80.5584 29.2621 80.2648 29.3613L80.2625 29.3621L50.3119 39.2507L50.1179 39.3148L49.9668 39.1773L39.635 29.7835C36.8512 27.3671 33.5391 25.6939 30.0834 24.9658L30.0833 24.9658C28.422 24.6151 26.4507 24.5586 25.4221 24.5471L25.4221 24.5471L25.4171 24.547C24.9071 24.534 24.3948 24.7705 24.0389 25.1619C23.6871 25.5489 23.508 26.0668 23.5583 26.5993C23.6674 27.6219 23.9092 29.5467 24.4309 31.1797L24.4316 31.1819C25.4843 34.5529 27.4642 37.6913 30.1339 40.2334L40.4656 49.6271L40.6168 49.7646L40.5714 49.9638L33.5692 80.7175L33.5687 80.7199C33.4978 81.0215 33.5965 81.3403 33.8374 81.5593L38.6961 85.977C38.8998 86.1621 39.1593 86.236 39.4313 86.1901C39.7033 86.1443 39.9337 85.9805 40.0626 85.7482L40.064 85.7457L53.4873 62.0155L53.7031 61.6341L54.0274 61.9289L58.7572 66.2293C61.5268 68.6611 65.2835 71.1312 69.8988 73.5984L69.8988 73.5985C72.5886 75.0374 76.2919 76.7332 79.7889 78.1533L79.7999 78.1577L79.8105 78.1629C80.4856 78.4917 81.3236 78.3185 81.8429 77.7473C82.3799 77.1568 82.4904 76.3396 82.1272 75.6458ZM60.9105 51.0765L60.9103 51.0796C60.8907 51.3514 61.002 51.6182 61.1922 51.7912L67.0322 57.101L67.0369 57.1053C69.631 59.5516 72.3669 62.9434 75.1813 67.1843L75.182 67.1854C76.707 69.5015 78.5743 72.6785 80.2259 75.8032L80.6811 76.6647L79.7818 76.2899C76.5469 74.9417 73.1923 73.4001 70.7248 72.0866L70.7243 72.0863C66.2355 69.6871 62.5993 67.2853 59.918 64.935L59.9179 64.935L59.9132 64.9308L54.0733 59.6209C53.8696 59.4358 53.6102 59.3619 53.3381 59.4078C53.0661 59.4536 52.8357 59.6174 52.7068 59.8497L52.7054 59.8522L39.2676 83.5982L39.0518 83.9796L38.7276 83.6848L35.5148 80.7637L35.3636 80.6263L35.409 80.4271L42.4112 49.6733L42.4117 49.671C42.4826 49.3693 42.3839 49.0506 42.143 48.8315L31.3019 38.9746L31.3018 38.9747L31.2953 38.9685C28.8432 36.6214 27.0407 33.7478 26.0757 30.6599L26.0755 30.6591C25.6541 29.2988 25.4254 27.7085 25.3168 26.7068L25.2742 26.314L25.6693 26.3191C26.6752 26.3322 28.3114 26.4073 29.677 26.6996C32.8426 27.3674 35.8898 28.9035 38.4428 31.1072L38.4429 31.1071L38.4496 31.1132L49.2907 40.9701C49.5316 41.1892 49.8583 41.2572 50.1519 41.158L50.1539 41.1573L80.1333 31.237L80.3274 31.1728L80.4787 31.3104L83.6757 34.2171L83.9999 34.5119L83.6407 34.7629L61.3089 50.3707L61.1482 50.5475C61.0072 50.7026 60.9221 50.8929 60.9105 51.0765Z" fill="#72A3DD" stroke="white" stroke-width="0.7"/>
<path d="M66.6856 83.2488L66.4501 83.5077L66.1912 83.2723L63.2158 80.567L63.0504 80.4166L63.1173 80.2033L66.2202 70.3042L66.2201 70.3042L66.2215 70.3C66.3719 69.8406 66.1096 69.3328 65.639 69.1933L65.6389 69.1934L65.6295 69.1904C65.1701 69.0399 64.6623 69.3023 64.5228 69.7729L64.5229 69.7729L64.5211 69.7786L61.1664 80.4317L61.1664 80.4317L61.1653 80.435C61.0646 80.744 61.165 81.1098 61.4161 81.3381L65.8908 85.4066C66.2882 85.7431 66.8695 85.6943 67.1833 85.3492L75.8172 75.8533C76.1476 75.4899 76.1208 74.9256 75.7573 74.5952C75.3939 74.2647 74.8296 74.2916 74.4992 74.655L66.6856 83.2488Z" fill="#72A3DD" stroke="white" stroke-width="0.7"/>
</svg>
