<svg width="48" height="66" viewBox="0 0 48 66" fill="none" xmlns="http://www.w3.org/2000/svg">
<mask id="path-1-inside-1_8_6547" fill="white">
<path d="M66.375 39.5625C68.7812 39.5625 70.75 37.5938 70.75 35.1875V10.3958C70.75 7.98958 68.7812 6.02083 66.375 6.02083H51.7917V4.5625C51.7917 3.76042 51.1354 3.10417 50.3333 3.10417C49.5312 3.10417 48.875 3.76042 48.875 4.5625V6.02083H43.0417V4.5625C43.0417 3.76042 42.3854 3.10417 41.5833 3.10417C40.7812 3.10417 40.125 3.76042 40.125 4.5625V6.02083H24.0833V3.10417H25.5417C26.3438 3.10417 27 2.44792 27 1.64583C27 0.84375 26.3438 0.1875 25.5417 0.1875H12.4167C11.6146 0.1875 10.9583 0.84375 10.9583 1.64583C10.9583 2.44792 11.6146 3.10417 12.4167 3.10417H13.875V6.02083H5.125C2.71875 6.02083 0.75 7.98958 0.75 10.3958V35.1875C0.75 37.5938 2.71875 39.5625 5.125 39.5625H6.58333V42.4792H2.20833C1.40625 42.4792 0.75 43.1354 0.75 43.9375V55.6042C0.75 56.4062 1.40625 57.0625 2.20833 57.0625H5.125C5.125 61.8896 9.04792 65.8125 13.875 65.8125C18.7021 65.8125 22.625 61.8896 22.625 57.0625H47.4167C47.4167 61.8896 51.3396 65.8125 56.1667 65.8125C60.9938 65.8125 64.9167 61.8896 64.9167 57.0625C64.9167 52.2354 60.9938 48.3125 56.1667 48.3125C52.3604 48.3125 49.1375 50.7479 47.9271 54.1458H22.1146C20.9042 50.7479 17.6812 48.3125 13.875 48.3125C10.0688 48.3125 6.84583 50.7479 5.63542 54.1458H3.66667V45.3958H67.8333V54.1458H64.9167V57.0625H69.2917C70.0938 57.0625 70.75 56.4062 70.75 55.6042V43.9375C70.75 43.1354 70.0938 42.4792 69.2917 42.4792H64.9167V39.5625H66.375ZM56.1667 51.2292C59.3896 51.2292 62 53.8396 62 57.0625C62 60.2854 59.3896 62.8958 56.1667 62.8958C52.9438 62.8958 50.3333 60.2854 50.3333 57.0625C50.3333 53.8396 52.9438 51.2292 56.1667 51.2292ZM13.875 51.2292C17.0979 51.2292 19.7083 53.8396 19.7083 57.0625C19.7083 60.2854 17.0979 62.8958 13.875 62.8958C10.6521 62.8958 8.04167 60.2854 8.04167 57.0625C8.04167 53.8396 10.6521 51.2292 13.875 51.2292ZM48.875 8.9375V13.3125H43.0417V8.9375H48.875ZM43.0417 16.2292H48.875V20.6042H43.0417V16.2292ZM16.7917 3.10417H21.1667V6.02083H16.7917V3.10417ZM5.125 36.6458C4.32292 36.6458 3.66667 35.9896 3.66667 35.1875V10.3958C3.66667 9.59375 4.32292 8.9375 5.125 8.9375H40.125V29.3542C40.125 30.1562 40.7812 30.8125 41.5833 30.8125C42.3854 30.8125 43.0417 30.1562 43.0417 29.3542V23.5208H48.875V29.3542C48.875 30.1562 49.5312 30.8125 50.3333 30.8125C51.1354 30.8125 51.7917 30.1562 51.7917 29.3542V8.9375H66.375C67.1771 8.9375 67.8333 9.59375 67.8333 10.3958V35.1875C67.8333 35.9896 67.1771 36.6458 66.375 36.6458H64.9167V33.7292C64.9167 32.9271 64.2604 32.2708 63.4583 32.2708C62.6562 32.2708 62 32.9271 62 33.7292V36.6458H9.5V33.7292C9.5 32.9271 8.84375 32.2708 8.04167 32.2708C7.23958 32.2708 6.58333 32.9271 6.58333 33.7292V36.6458H5.125ZM62 42.4792H9.5V39.5625H62V42.4792Z"/>
</mask>
<path d="M66.375 39.5625C68.7812 39.5625 70.75 37.5938 70.75 35.1875V10.3958C70.75 7.98958 68.7812 6.02083 66.375 6.02083H51.7917V4.5625C51.7917 3.76042 51.1354 3.10417 50.3333 3.10417C49.5312 3.10417 48.875 3.76042 48.875 4.5625V6.02083H43.0417V4.5625C43.0417 3.76042 42.3854 3.10417 41.5833 3.10417C40.7812 3.10417 40.125 3.76042 40.125 4.5625V6.02083H24.0833V3.10417H25.5417C26.3438 3.10417 27 2.44792 27 1.64583C27 0.84375 26.3438 0.1875 25.5417 0.1875H12.4167C11.6146 0.1875 10.9583 0.84375 10.9583 1.64583C10.9583 2.44792 11.6146 3.10417 12.4167 3.10417H13.875V6.02083H5.125C2.71875 6.02083 0.75 7.98958 0.75 10.3958V35.1875C0.75 37.5938 2.71875 39.5625 5.125 39.5625H6.58333V42.4792H2.20833C1.40625 42.4792 0.75 43.1354 0.75 43.9375V55.6042C0.75 56.4062 1.40625 57.0625 2.20833 57.0625H5.125C5.125 61.8896 9.04792 65.8125 13.875 65.8125C18.7021 65.8125 22.625 61.8896 22.625 57.0625H47.4167C47.4167 61.8896 51.3396 65.8125 56.1667 65.8125C60.9938 65.8125 64.9167 61.8896 64.9167 57.0625C64.9167 52.2354 60.9938 48.3125 56.1667 48.3125C52.3604 48.3125 49.1375 50.7479 47.9271 54.1458H22.1146C20.9042 50.7479 17.6812 48.3125 13.875 48.3125C10.0688 48.3125 6.84583 50.7479 5.63542 54.1458H3.66667V45.3958H67.8333V54.1458H64.9167V57.0625H69.2917C70.0938 57.0625 70.75 56.4062 70.75 55.6042V43.9375C70.75 43.1354 70.0938 42.4792 69.2917 42.4792H64.9167V39.5625H66.375ZM56.1667 51.2292C59.3896 51.2292 62 53.8396 62 57.0625C62 60.2854 59.3896 62.8958 56.1667 62.8958C52.9438 62.8958 50.3333 60.2854 50.3333 57.0625C50.3333 53.8396 52.9438 51.2292 56.1667 51.2292ZM13.875 51.2292C17.0979 51.2292 19.7083 53.8396 19.7083 57.0625C19.7083 60.2854 17.0979 62.8958 13.875 62.8958C10.6521 62.8958 8.04167 60.2854 8.04167 57.0625C8.04167 53.8396 10.6521 51.2292 13.875 51.2292ZM48.875 8.9375V13.3125H43.0417V8.9375H48.875ZM43.0417 16.2292H48.875V20.6042H43.0417V16.2292ZM16.7917 3.10417H21.1667V6.02083H16.7917V3.10417ZM5.125 36.6458C4.32292 36.6458 3.66667 35.9896 3.66667 35.1875V10.3958C3.66667 9.59375 4.32292 8.9375 5.125 8.9375H40.125V29.3542C40.125 30.1562 40.7812 30.8125 41.5833 30.8125C42.3854 30.8125 43.0417 30.1562 43.0417 29.3542V23.5208H48.875V29.3542C48.875 30.1562 49.5312 30.8125 50.3333 30.8125C51.1354 30.8125 51.7917 30.1562 51.7917 29.3542V8.9375H66.375C67.1771 8.9375 67.8333 9.59375 67.8333 10.3958V35.1875C67.8333 35.9896 67.1771 36.6458 66.375 36.6458H64.9167V33.7292C64.9167 32.9271 64.2604 32.2708 63.4583 32.2708C62.6562 32.2708 62 32.9271 62 33.7292V36.6458H9.5V33.7292C9.5 32.9271 8.84375 32.2708 8.04167 32.2708C7.23958 32.2708 6.58333 32.9271 6.58333 33.7292V36.6458H5.125ZM62 42.4792H9.5V39.5625H62V42.4792Z" fill="#FF6A6E"/>
<path d="M51.7917 6.02083H50.7917V7.02083H51.7917V6.02083ZM48.875 6.02083V7.02083H49.875V6.02083H48.875ZM43.0417 6.02083H42.0417V7.02083H43.0417V6.02083ZM40.125 6.02083V7.02083H41.125V6.02083H40.125ZM24.0833 6.02083H23.0833V7.02083H24.0833V6.02083ZM24.0833 3.10417V2.10417H23.0833V3.10417H24.0833ZM13.875 3.10417H14.875V2.10417H13.875V3.10417ZM13.875 6.02083V7.02083H14.875V6.02083H13.875ZM6.58333 39.5625H7.58333V38.5625H6.58333V39.5625ZM6.58333 42.4792V43.4792H7.58333V42.4792H6.58333ZM5.125 57.0625H6.125V56.0625H5.125V57.0625ZM22.625 57.0625V56.0625H21.625V57.0625H22.625ZM47.4167 57.0625H48.4167V56.0625H47.4167V57.0625ZM47.9271 54.1458V55.1458H48.6324L48.8691 54.4814L47.9271 54.1458ZM22.1146 54.1458L21.1726 54.4814L21.4093 55.1458H22.1146V54.1458ZM5.63542 54.1458V55.1458H6.34075L6.57743 54.4814L5.63542 54.1458ZM3.66667 54.1458H2.66667V55.1458H3.66667V54.1458ZM3.66667 45.3958V44.3958H2.66667V45.3958H3.66667ZM67.8333 45.3958H68.8333V44.3958H67.8333V45.3958ZM67.8333 54.1458V55.1458H68.8333V54.1458H67.8333ZM64.9167 54.1458V53.1458H63.9167V54.1458H64.9167ZM64.9167 42.4792H63.9167V43.4792H64.9167V42.4792ZM64.9167 39.5625V38.5625H63.9167V39.5625H64.9167ZM48.875 8.9375H49.875V7.9375H48.875V8.9375ZM48.875 13.3125V14.3125H49.875V13.3125H48.875ZM43.0417 13.3125H42.0417V14.3125H43.0417V13.3125ZM43.0417 8.9375V7.9375H42.0417V8.9375H43.0417ZM43.0417 16.2292V15.2292H42.0417V16.2292H43.0417ZM48.875 16.2292H49.875V15.2292H48.875V16.2292ZM48.875 20.6042V21.6042H49.875V20.6042H48.875ZM43.0417 20.6042H42.0417V21.6042H43.0417V20.6042ZM16.7917 3.10417V2.10417H15.7917V3.10417H16.7917ZM21.1667 3.10417H22.1667V2.10417H21.1667V3.10417ZM21.1667 6.02083V7.02083H22.1667V6.02083H21.1667ZM16.7917 6.02083H15.7917V7.02083H16.7917V6.02083ZM40.125 8.9375H41.125V7.9375H40.125V8.9375ZM43.0417 23.5208V22.5208H42.0417V23.5208H43.0417ZM48.875 23.5208H49.875V22.5208H48.875V23.5208ZM51.7917 8.9375V7.9375H50.7917V8.9375H51.7917ZM64.9167 36.6458H63.9167V37.6458H64.9167V36.6458ZM62 36.6458V37.6458H63V36.6458H62ZM9.5 36.6458H8.5V37.6458H9.5V36.6458ZM6.58333 36.6458V37.6458H7.58333V36.6458H6.58333ZM62 42.4792V43.4792H63V42.4792H62ZM9.5 42.4792H8.5V43.4792H9.5V42.4792ZM9.5 39.5625V38.5625H8.5V39.5625H9.5ZM62 39.5625H63V38.5625H62V39.5625ZM66.375 40.5625C69.3335 40.5625 71.75 38.146 71.75 35.1875H69.75C69.75 37.0415 68.229 38.5625 66.375 38.5625V40.5625ZM71.75 35.1875V10.3958H69.75V35.1875H71.75ZM71.75 10.3958C71.75 7.4373 69.3335 5.02083 66.375 5.02083V7.02083C68.229 7.02083 69.75 8.54187 69.75 10.3958H71.75ZM66.375 5.02083H51.7917V7.02083H66.375V5.02083ZM52.7917 6.02083V4.5625H50.7917V6.02083H52.7917ZM52.7917 4.5625C52.7917 3.20813 51.6877 2.10417 50.3333 2.10417V4.10417C50.5831 4.10417 50.7917 4.3127 50.7917 4.5625H52.7917ZM50.3333 2.10417C48.979 2.10417 47.875 3.20813 47.875 4.5625H49.875C49.875 4.3127 50.0835 4.10417 50.3333 4.10417V2.10417ZM47.875 4.5625V6.02083H49.875V4.5625H47.875ZM48.875 5.02083H43.0417V7.02083H48.875V5.02083ZM44.0417 6.02083V4.5625H42.0417V6.02083H44.0417ZM44.0417 4.5625C44.0417 3.20813 42.9377 2.10417 41.5833 2.10417V4.10417C41.8331 4.10417 42.0417 4.3127 42.0417 4.5625H44.0417ZM41.5833 2.10417C40.229 2.10417 39.125 3.20813 39.125 4.5625H41.125C41.125 4.3127 41.3335 4.10417 41.5833 4.10417V2.10417ZM39.125 4.5625V6.02083H41.125V4.5625H39.125ZM40.125 5.02083H24.0833V7.02083H40.125V5.02083ZM25.0833 6.02083V3.10417H23.0833V6.02083H25.0833ZM24.0833 4.10417H25.5417V2.10417H24.0833V4.10417ZM25.5417 4.10417C26.896 4.10417 28 3.0002 28 1.64583H26C26 1.89563 25.7915 2.10417 25.5417 2.10417V4.10417ZM28 1.64583C28 0.291465 26.896 -0.8125 25.5417 -0.8125V1.1875C25.7915 1.1875 26 1.39603 26 1.64583H28ZM25.5417 -0.8125H12.4167V1.1875H25.5417V-0.8125ZM12.4167 -0.8125C11.0623 -0.8125 9.95833 0.291465 9.95833 1.64583H11.9583C11.9583 1.39603 12.1669 1.1875 12.4167 1.1875V-0.8125ZM9.95833 1.64583C9.95833 3.0002 11.0623 4.10417 12.4167 4.10417V2.10417C12.1669 2.10417 11.9583 1.89563 11.9583 1.64583H9.95833ZM12.4167 4.10417H13.875V2.10417H12.4167V4.10417ZM12.875 3.10417V6.02083H14.875V3.10417H12.875ZM13.875 5.02083H5.125V7.02083H13.875V5.02083ZM5.125 5.02083C2.16647 5.02083 -0.25 7.4373 -0.25 10.3958H1.75C1.75 8.54187 3.27103 7.02083 5.125 7.02083V5.02083ZM-0.25 10.3958V35.1875H1.75V10.3958H-0.25ZM-0.25 35.1875C-0.25 38.146 2.16647 40.5625 5.125 40.5625V38.5625C3.27103 38.5625 1.75 37.0415 1.75 35.1875H-0.25ZM5.125 40.5625H6.58333V38.5625H5.125V40.5625ZM5.58333 39.5625V42.4792H7.58333V39.5625H5.58333ZM6.58333 41.4792H2.20833V43.4792H6.58333V41.4792ZM2.20833 41.4792C0.853965 41.4792 -0.25 42.5831 -0.25 43.9375H1.75C1.75 43.6877 1.95853 43.4792 2.20833 43.4792V41.4792ZM-0.25 43.9375V55.6042H1.75V43.9375H-0.25ZM-0.25 55.6042C-0.25 56.9585 0.853965 58.0625 2.20833 58.0625V56.0625C1.95853 56.0625 1.75 55.854 1.75 55.6042H-0.25ZM2.20833 58.0625H5.125V56.0625H2.20833V58.0625ZM4.125 57.0625C4.125 62.4419 8.49563 66.8125 13.875 66.8125V64.8125C9.6002 64.8125 6.125 61.3373 6.125 57.0625H4.125ZM13.875 66.8125C19.2544 66.8125 23.625 62.4419 23.625 57.0625H21.625C21.625 61.3373 18.1498 64.8125 13.875 64.8125V66.8125ZM22.625 58.0625H47.4167V56.0625H22.625V58.0625ZM46.4167 57.0625C46.4167 62.4419 50.7873 66.8125 56.1667 66.8125V64.8125C51.8919 64.8125 48.4167 61.3373 48.4167 57.0625H46.4167ZM56.1667 66.8125C61.546 66.8125 65.9167 62.4419 65.9167 57.0625H63.9167C63.9167 61.3373 60.4415 64.8125 56.1667 64.8125V66.8125ZM65.9167 57.0625C65.9167 51.6831 61.546 47.3125 56.1667 47.3125V49.3125C60.4415 49.3125 63.9167 52.7877 63.9167 57.0625H65.9167ZM56.1667 47.3125C51.9203 47.3125 48.3315 50.0304 46.9851 53.8103L48.8691 54.4814C49.9435 51.4654 52.8005 49.3125 56.1667 49.3125V47.3125ZM47.9271 53.1458H22.1146V55.1458H47.9271V53.1458ZM23.0566 53.8103C21.7101 50.0304 18.1214 47.3125 13.875 47.3125V49.3125C17.2411 49.3125 20.0982 51.4654 21.1726 54.4814L23.0566 53.8103ZM13.875 47.3125C9.62862 47.3125 6.03987 50.0304 4.6934 53.8103L6.57743 54.4814C7.6518 51.4654 10.5089 49.3125 13.875 49.3125V47.3125ZM5.63542 53.1458H3.66667V55.1458H5.63542V53.1458ZM4.66667 54.1458V45.3958H2.66667V54.1458H4.66667ZM3.66667 46.3958H67.8333V44.3958H3.66667V46.3958ZM66.8333 45.3958V54.1458H68.8333V45.3958H66.8333ZM67.8333 53.1458H64.9167V55.1458H67.8333V53.1458ZM63.9167 54.1458V57.0625H65.9167V54.1458H63.9167ZM64.9167 58.0625H69.2917V56.0625H64.9167V58.0625ZM69.2917 58.0625C70.646 58.0625 71.75 56.9585 71.75 55.6042H69.75C69.75 55.854 69.5415 56.0625 69.2917 56.0625V58.0625ZM71.75 55.6042V43.9375H69.75V55.6042H71.75ZM71.75 43.9375C71.75 42.5831 70.646 41.4792 69.2917 41.4792V43.4792C69.5415 43.4792 69.75 43.6877 69.75 43.9375H71.75ZM69.2917 41.4792H64.9167V43.4792H69.2917V41.4792ZM65.9167 42.4792V39.5625H63.9167V42.4792H65.9167ZM64.9167 40.5625H66.375V38.5625H64.9167V40.5625ZM56.1667 52.2292C58.8373 52.2292 61 54.3919 61 57.0625H63C63 53.2873 59.9419 50.2292 56.1667 50.2292V52.2292ZM61 57.0625C61 59.7331 58.8373 61.8958 56.1667 61.8958V63.8958C59.9419 63.8958 63 60.8377 63 57.0625H61ZM56.1667 61.8958C53.496 61.8958 51.3333 59.7331 51.3333 57.0625H49.3333C49.3333 60.8377 52.3915 63.8958 56.1667 63.8958V61.8958ZM51.3333 57.0625C51.3333 54.3919 53.496 52.2292 56.1667 52.2292V50.2292C52.3915 50.2292 49.3333 53.2873 49.3333 57.0625H51.3333ZM13.875 52.2292C16.5456 52.2292 18.7083 54.3919 18.7083 57.0625H20.7083C20.7083 53.2873 17.6502 50.2292 13.875 50.2292V52.2292ZM18.7083 57.0625C18.7083 59.7331 16.5456 61.8958 13.875 61.8958V63.8958C17.6502 63.8958 20.7083 60.8377 20.7083 57.0625H18.7083ZM13.875 61.8958C11.2044 61.8958 9.04167 59.7331 9.04167 57.0625H7.04167C7.04167 60.8377 10.0998 63.8958 13.875 63.8958V61.8958ZM9.04167 57.0625C9.04167 54.3919 11.2044 52.2292 13.875 52.2292V50.2292C10.0998 50.2292 7.04167 53.2873 7.04167 57.0625H9.04167ZM47.875 8.9375V13.3125H49.875V8.9375H47.875ZM48.875 12.3125H43.0417V14.3125H48.875V12.3125ZM44.0417 13.3125V8.9375H42.0417V13.3125H44.0417ZM43.0417 9.9375H48.875V7.9375H43.0417V9.9375ZM43.0417 17.2292H48.875V15.2292H43.0417V17.2292ZM47.875 16.2292V20.6042H49.875V16.2292H47.875ZM48.875 19.6042H43.0417V21.6042H48.875V19.6042ZM44.0417 20.6042V16.2292H42.0417V20.6042H44.0417ZM16.7917 4.10417H21.1667V2.10417H16.7917V4.10417ZM20.1667 3.10417V6.02083H22.1667V3.10417H20.1667ZM21.1667 5.02083H16.7917V7.02083H21.1667V5.02083ZM17.7917 6.02083V3.10417H15.7917V6.02083H17.7917ZM5.125 35.6458C4.8752 35.6458 4.66667 35.4373 4.66667 35.1875H2.66667C2.66667 36.5419 3.77063 37.6458 5.125 37.6458V35.6458ZM4.66667 35.1875V10.3958H2.66667V35.1875H4.66667ZM4.66667 10.3958C4.66667 10.146 4.8752 9.9375 5.125 9.9375V7.9375C3.77063 7.9375 2.66667 9.04147 2.66667 10.3958H4.66667ZM5.125 9.9375H40.125V7.9375H5.125V9.9375ZM39.125 8.9375V29.3542H41.125V8.9375H39.125ZM39.125 29.3542C39.125 30.7085 40.229 31.8125 41.5833 31.8125V29.8125C41.3335 29.8125 41.125 29.604 41.125 29.3542H39.125ZM41.5833 31.8125C42.9377 31.8125 44.0417 30.7085 44.0417 29.3542H42.0417C42.0417 29.604 41.8331 29.8125 41.5833 29.8125V31.8125ZM44.0417 29.3542V23.5208H42.0417V29.3542H44.0417ZM43.0417 24.5208H48.875V22.5208H43.0417V24.5208ZM47.875 23.5208V29.3542H49.875V23.5208H47.875ZM47.875 29.3542C47.875 30.7085 48.979 31.8125 50.3333 31.8125V29.8125C50.0835 29.8125 49.875 29.604 49.875 29.3542H47.875ZM50.3333 31.8125C51.6877 31.8125 52.7917 30.7085 52.7917 29.3542H50.7917C50.7917 29.604 50.5831 29.8125 50.3333 29.8125V31.8125ZM52.7917 29.3542V8.9375H50.7917V29.3542H52.7917ZM51.7917 9.9375H66.375V7.9375H51.7917V9.9375ZM66.375 9.9375C66.6248 9.9375 66.8333 10.146 66.8333 10.3958H68.8333C68.8333 9.04147 67.7294 7.9375 66.375 7.9375V9.9375ZM66.8333 10.3958V35.1875H68.8333V10.3958H66.8333ZM66.8333 35.1875C66.8333 35.4373 66.6248 35.6458 66.375 35.6458V37.6458C67.7294 37.6458 68.8333 36.5419 68.8333 35.1875H66.8333ZM66.375 35.6458H64.9167V37.6458H66.375V35.6458ZM65.9167 36.6458V33.7292H63.9167V36.6458H65.9167ZM65.9167 33.7292C65.9167 32.3748 64.8127 31.2708 63.4583 31.2708V33.2708C63.7081 33.2708 63.9167 33.4794 63.9167 33.7292H65.9167ZM63.4583 31.2708C62.104 31.2708 61 32.3748 61 33.7292H63C63 33.4794 63.2085 33.2708 63.4583 33.2708V31.2708ZM61 33.7292V36.6458H63V33.7292H61ZM62 35.6458H9.5V37.6458H62V35.6458ZM10.5 36.6458V33.7292H8.5V36.6458H10.5ZM10.5 33.7292C10.5 32.3748 9.39604 31.2708 8.04167 31.2708V33.2708C8.29147 33.2708 8.5 33.4794 8.5 33.7292H10.5ZM8.04167 31.2708C6.6873 31.2708 5.58333 32.3748 5.58333 33.7292H7.58333C7.58333 33.4794 7.79187 33.2708 8.04167 33.2708V31.2708ZM5.58333 33.7292V36.6458H7.58333V33.7292H5.58333ZM6.58333 35.6458H5.125V37.6458H6.58333V35.6458ZM62 41.4792H9.5V43.4792H62V41.4792ZM10.5 42.4792V39.5625H8.5V42.4792H10.5ZM9.5 40.5625H62V38.5625H9.5V40.5625ZM61 39.5625V42.4792H63V39.5625H61Z" fill="white" mask="url(#path-1-inside-1_8_6547)"/>
<path d="M21.5639 16.8005L21.1667 16.2812L20.7695 16.8005C19.718 18.1756 18.6114 19.7721 17.7649 21.2279C17.3419 21.9555 16.9787 22.6566 16.7199 23.2831C16.4663 23.897 16.2917 24.4881 16.2917 24.9793C16.2917 27.6617 18.4843 29.8543 21.1667 29.8543C23.8491 29.8543 26.0417 27.6617 26.0417 24.9793C26.0417 24.4849 25.8674 23.8922 25.6135 23.2771C25.3546 22.6497 24.9914 21.9489 24.5683 21.2222C23.7217 19.768 22.6151 18.1753 21.5639 16.8005ZM27.9584 24.9793C27.9584 28.7281 24.9155 31.7709 21.1667 31.7709C17.4178 31.7709 14.375 28.7281 14.375 24.9793C14.375 24.191 14.6633 23.2022 15.1518 22.1094C15.636 21.0263 16.2967 19.8852 16.9962 18.8053C18.3926 16.6496 19.9173 14.7777 20.4272 14.1585C20.7995 13.7227 21.5527 13.7312 21.9038 14.1557C22.4114 14.772 23.9387 16.6463 25.3371 18.8053C26.0367 19.8852 26.6973 21.0263 27.1816 22.1094C27.6701 23.2022 27.9584 24.191 27.9584 24.9793ZM14.8334 57.0626C14.8334 57.5885 14.401 58.0209 13.875 58.0209C13.3491 58.0209 12.9167 57.5885 12.9167 57.0626C12.9167 56.5367 13.3491 56.1043 13.875 56.1043C14.401 56.1043 14.8334 56.5367 14.8334 57.0626Z" fill="#FF6A6E" stroke="white"/>
</svg>
