<svg width="42" height="46" viewBox="0 0 42 46" fill="none" xmlns="http://www.w3.org/2000/svg">
<g clip-path="url(#clip0_8_5022)">
<mask id="path-1-inside-1_8_5022" fill="white">
<path d="M27.8125 27.0875C29.1623 27.0875 30.2667 25.9831 30.2667 24.6333V10.7264C30.2667 9.3766 29.1623 8.27222 27.8125 8.27222H19.6319V7.45417C19.6319 7.00424 19.2638 6.63611 18.8139 6.63611C18.364 6.63611 17.9958 7.00424 17.9958 7.45417V8.27222H14.7236V7.45417C14.7236 7.00424 14.3555 6.63611 13.9056 6.63611C13.4556 6.63611 13.0875 7.00424 13.0875 7.45417V8.27222H4.08889V6.63611H4.90694C5.35688 6.63611 5.725 6.26799 5.725 5.81806C5.725 5.36812 5.35688 5 4.90694 5H-2.45556C-2.90549 5 -3.27361 5.36812 -3.27361 5.81806C-3.27361 6.26799 -2.90549 6.63611 -2.45556 6.63611H-1.6375V8.27222H-6.54583C-7.89562 8.27222 -9 9.3766 -9 10.7264V24.6333C-9 25.9831 -7.89562 27.0875 -6.54583 27.0875H-5.72778V28.7236H-8.18194C-8.63188 28.7236 -9 29.0917 -9 29.5417V36.0861C-9 36.536 -8.63188 36.9042 -8.18194 36.9042H-6.54583C-6.54583 39.6119 -4.34526 41.8125 -1.6375 41.8125C1.07026 41.8125 3.27083 39.6119 3.27083 36.9042H17.1778C17.1778 39.6119 19.3783 41.8125 22.0861 41.8125C24.7939 41.8125 26.9944 39.6119 26.9944 36.9042C26.9944 34.1964 24.7939 31.9958 22.0861 31.9958C19.951 31.9958 18.1431 33.362 17.4641 35.2681H2.98451C2.30553 33.362 0.497625 31.9958 -1.6375 31.9958C-3.77262 31.9958 -5.58053 33.362 -6.25951 35.2681H-7.36389V30.3597H28.6306V35.2681H26.9944V36.9042H29.4486C29.8985 36.9042 30.2667 36.536 30.2667 36.0861V29.5417C30.2667 29.0917 29.8985 28.7236 29.4486 28.7236H26.9944V27.0875H27.8125ZM22.0861 33.6319C23.894 33.6319 25.3583 35.0963 25.3583 36.9042C25.3583 38.7121 23.894 40.1764 22.0861 40.1764C20.2782 40.1764 18.8139 38.7121 18.8139 36.9042C18.8139 35.0963 20.2782 33.6319 22.0861 33.6319ZM-1.6375 33.6319C0.170403 33.6319 1.63472 35.0963 1.63472 36.9042C1.63472 38.7121 0.170403 40.1764 -1.6375 40.1764C-3.4454 40.1764 -4.90972 38.7121 -4.90972 36.9042C-4.90972 35.0963 -3.4454 33.6319 -1.6375 33.6319ZM17.9958 9.90833V12.3625H14.7236V9.90833H17.9958ZM14.7236 13.9986H17.9958V16.4528H14.7236V13.9986ZM-0.00138855 6.63611H2.45278V8.27222H-0.00138855V6.63611ZM-6.54583 25.4514C-6.99576 25.4514 -7.36389 25.0833 -7.36389 24.6333V10.7264C-7.36389 10.2765 -6.99576 9.90833 -6.54583 9.90833H13.0875V21.3611C13.0875 21.811 13.4556 22.1792 13.9056 22.1792C14.3555 22.1792 14.7236 21.811 14.7236 21.3611V18.0889H17.9958V21.3611C17.9958 21.811 18.364 22.1792 18.8139 22.1792C19.2638 22.1792 19.6319 21.811 19.6319 21.3611V9.90833H27.8125C28.2624 9.90833 28.6306 10.2765 28.6306 10.7264V24.6333C28.6306 25.0833 28.2624 25.4514 27.8125 25.4514H26.9944V23.8153C26.9944 23.3653 26.6263 22.9972 26.1764 22.9972C25.7265 22.9972 25.3583 23.3653 25.3583 23.8153V25.4514H-4.09167V23.8153C-4.09167 23.3653 -4.45979 22.9972 -4.90972 22.9972C-5.35965 22.9972 -5.72778 23.3653 -5.72778 23.8153V25.4514H-6.54583ZM25.3583 28.7236H-4.09167V27.0875H25.3583V28.7236Z"/>
</mask>
<path d="M27.8125 27.0875C29.1623 27.0875 30.2667 25.9831 30.2667 24.6333V10.7264C30.2667 9.3766 29.1623 8.27222 27.8125 8.27222H19.6319V7.45417C19.6319 7.00424 19.2638 6.63611 18.8139 6.63611C18.364 6.63611 17.9958 7.00424 17.9958 7.45417V8.27222H14.7236V7.45417C14.7236 7.00424 14.3555 6.63611 13.9056 6.63611C13.4556 6.63611 13.0875 7.00424 13.0875 7.45417V8.27222H4.08889V6.63611H4.90694C5.35688 6.63611 5.725 6.26799 5.725 5.81806C5.725 5.36812 5.35688 5 4.90694 5H-2.45556C-2.90549 5 -3.27361 5.36812 -3.27361 5.81806C-3.27361 6.26799 -2.90549 6.63611 -2.45556 6.63611H-1.6375V8.27222H-6.54583C-7.89562 8.27222 -9 9.3766 -9 10.7264V24.6333C-9 25.9831 -7.89562 27.0875 -6.54583 27.0875H-5.72778V28.7236H-8.18194C-8.63188 28.7236 -9 29.0917 -9 29.5417V36.0861C-9 36.536 -8.63188 36.9042 -8.18194 36.9042H-6.54583C-6.54583 39.6119 -4.34526 41.8125 -1.6375 41.8125C1.07026 41.8125 3.27083 39.6119 3.27083 36.9042H17.1778C17.1778 39.6119 19.3783 41.8125 22.0861 41.8125C24.7939 41.8125 26.9944 39.6119 26.9944 36.9042C26.9944 34.1964 24.7939 31.9958 22.0861 31.9958C19.951 31.9958 18.1431 33.362 17.4641 35.2681H2.98451C2.30553 33.362 0.497625 31.9958 -1.6375 31.9958C-3.77262 31.9958 -5.58053 33.362 -6.25951 35.2681H-7.36389V30.3597H28.6306V35.2681H26.9944V36.9042H29.4486C29.8985 36.9042 30.2667 36.536 30.2667 36.0861V29.5417C30.2667 29.0917 29.8985 28.7236 29.4486 28.7236H26.9944V27.0875H27.8125ZM22.0861 33.6319C23.894 33.6319 25.3583 35.0963 25.3583 36.9042C25.3583 38.7121 23.894 40.1764 22.0861 40.1764C20.2782 40.1764 18.8139 38.7121 18.8139 36.9042C18.8139 35.0963 20.2782 33.6319 22.0861 33.6319ZM-1.6375 33.6319C0.170403 33.6319 1.63472 35.0963 1.63472 36.9042C1.63472 38.7121 0.170403 40.1764 -1.6375 40.1764C-3.4454 40.1764 -4.90972 38.7121 -4.90972 36.9042C-4.90972 35.0963 -3.4454 33.6319 -1.6375 33.6319ZM17.9958 9.90833V12.3625H14.7236V9.90833H17.9958ZM14.7236 13.9986H17.9958V16.4528H14.7236V13.9986ZM-0.00138855 6.63611H2.45278V8.27222H-0.00138855V6.63611ZM-6.54583 25.4514C-6.99576 25.4514 -7.36389 25.0833 -7.36389 24.6333V10.7264C-7.36389 10.2765 -6.99576 9.90833 -6.54583 9.90833H13.0875V21.3611C13.0875 21.811 13.4556 22.1792 13.9056 22.1792C14.3555 22.1792 14.7236 21.811 14.7236 21.3611V18.0889H17.9958V21.3611C17.9958 21.811 18.364 22.1792 18.8139 22.1792C19.2638 22.1792 19.6319 21.811 19.6319 21.3611V9.90833H27.8125C28.2624 9.90833 28.6306 10.2765 28.6306 10.7264V24.6333C28.6306 25.0833 28.2624 25.4514 27.8125 25.4514H26.9944V23.8153C26.9944 23.3653 26.6263 22.9972 26.1764 22.9972C25.7265 22.9972 25.3583 23.3653 25.3583 23.8153V25.4514H-4.09167V23.8153C-4.09167 23.3653 -4.45979 22.9972 -4.90972 22.9972C-5.35965 22.9972 -5.72778 23.3653 -5.72778 23.8153V25.4514H-6.54583ZM25.3583 28.7236H-4.09167V27.0875H25.3583V28.7236Z" fill="#72A3DD"/>
<path d="M19.6319 8.27222H19.3319V8.57222H19.6319V8.27222ZM17.9958 8.27222V8.57222H18.2958V8.27222H17.9958ZM14.7236 8.27222H14.4236V8.57222H14.7236V8.27222ZM13.0875 8.27222V8.57222H13.3875V8.27222H13.0875ZM4.08889 8.27222H3.78889V8.57222H4.08889V8.27222ZM4.08889 6.63611V6.33611H3.78889V6.63611H4.08889ZM-1.6375 6.63611H-1.3375V6.33611H-1.6375V6.63611ZM-1.6375 8.27222V8.57222H-1.3375V8.27222H-1.6375ZM-5.72778 27.0875H-5.42778V26.7875H-5.72778V27.0875ZM-5.72778 28.7236V29.0236H-5.42778V28.7236H-5.72778ZM-6.54583 36.9042H-6.24583V36.6042H-6.54583V36.9042ZM3.27083 36.9042V36.6042H2.97083V36.9042H3.27083ZM17.1778 36.9042H17.4778V36.6042H17.1778V36.9042ZM17.4641 35.2681V35.5681H17.6757L17.7467 35.3687L17.4641 35.2681ZM2.98451 35.2681L2.70191 35.3687L2.77291 35.5681H2.98451V35.2681ZM-6.25951 35.2681V35.5681H-6.04791L-5.97691 35.3687L-6.25951 35.2681ZM-7.36389 35.2681H-7.66389V35.5681H-7.36389V35.2681ZM-7.36389 30.3597V30.0597H-7.66389V30.3597H-7.36389ZM28.6306 30.3597H28.9306V30.0597H28.6306V30.3597ZM28.6306 35.2681V35.5681H28.9306V35.2681H28.6306ZM26.9944 35.2681V34.9681H26.6944V35.2681H26.9944ZM26.9944 28.7236H26.6944V29.0236H26.9944V28.7236ZM26.9944 27.0875V26.7875H26.6944V27.0875H26.9944ZM17.9958 9.90833H18.2958V9.60833H17.9958V9.90833ZM17.9958 12.3625V12.6625H18.2958V12.3625H17.9958ZM14.7236 12.3625H14.4236V12.6625H14.7236V12.3625ZM14.7236 9.90833V9.60833H14.4236V9.90833H14.7236ZM14.7236 13.9986V13.6986H14.4236V13.9986H14.7236ZM17.9958 13.9986H18.2958V13.6986H17.9958V13.9986ZM17.9958 16.4528V16.7528H18.2958V16.4528H17.9958ZM14.7236 16.4528H14.4236V16.7528H14.7236V16.4528ZM-0.00138855 6.63611V6.33611H-0.301389V6.63611H-0.00138855ZM2.45278 6.63611H2.75278V6.33611H2.45278V6.63611ZM2.45278 8.27222V8.57222H2.75278V8.27222H2.45278ZM-0.00138855 8.27222H-0.301389V8.57222H-0.00138855V8.27222ZM13.0875 9.90833H13.3875V9.60833H13.0875V9.90833ZM14.7236 18.0889V17.7889H14.4236V18.0889H14.7236ZM17.9958 18.0889H18.2958V17.7889H17.9958V18.0889ZM19.6319 9.90833V9.60833H19.3319V9.90833H19.6319ZM26.9944 25.4514H26.6944V25.7514H26.9944V25.4514ZM25.3583 25.4514V25.7514H25.6583V25.4514H25.3583ZM-4.09167 25.4514H-4.39167V25.7514H-4.09167V25.4514ZM-5.72778 25.4514V25.7514H-5.42778V25.4514H-5.72778ZM25.3583 28.7236V29.0236H25.6583V28.7236H25.3583ZM-4.09167 28.7236H-4.39167V29.0236H-4.09167V28.7236ZM-4.09167 27.0875V26.7875H-4.39167V27.0875H-4.09167ZM25.3583 27.0875H25.6583V26.7875H25.3583V27.0875ZM27.8125 27.3875C29.328 27.3875 30.5667 26.1488 30.5667 24.6333H29.9667C29.9667 25.8174 28.9966 26.7875 27.8125 26.7875V27.3875ZM30.5667 24.6333V10.7264H29.9667V24.6333H30.5667ZM30.5667 10.7264C30.5667 9.21091 29.328 7.97222 27.8125 7.97222V8.57222C28.9966 8.57222 29.9667 9.54228 29.9667 10.7264H30.5667ZM27.8125 7.97222H19.6319V8.57222H27.8125V7.97222ZM19.9319 8.27222V7.45417H19.3319V8.27222H19.9319ZM19.9319 7.45417C19.9319 6.83855 19.4295 6.33611 18.8139 6.33611V6.93611C19.0981 6.93611 19.3319 7.16992 19.3319 7.45417H19.9319ZM18.8139 6.33611C18.1983 6.33611 17.6958 6.83855 17.6958 7.45417H18.2958C18.2958 7.16992 18.5296 6.93611 18.8139 6.93611V6.33611ZM17.6958 7.45417V8.27222H18.2958V7.45417H17.6958ZM17.9958 7.97222H14.7236V8.57222H17.9958V7.97222ZM15.0236 8.27222V7.45417H14.4236V8.27222H15.0236ZM15.0236 7.45417C15.0236 6.83855 14.5212 6.33611 13.9056 6.33611V6.93611C14.1898 6.93611 14.4236 7.16992 14.4236 7.45417H15.0236ZM13.9056 6.33611C13.2899 6.33611 12.7875 6.83855 12.7875 7.45417H13.3875C13.3875 7.16992 13.6213 6.93611 13.9056 6.93611V6.33611ZM12.7875 7.45417V8.27222H13.3875V7.45417H12.7875ZM13.0875 7.97222H4.08889V8.57222H13.0875V7.97222ZM4.38889 8.27222V6.63611H3.78889V8.27222H4.38889ZM4.08889 6.93611H4.90694V6.33611H4.08889V6.93611ZM4.90694 6.93611C5.52256 6.93611 6.025 6.43367 6.025 5.81806H5.425C5.425 6.1023 5.19119 6.33611 4.90694 6.33611V6.93611ZM6.025 5.81806C6.025 5.20244 5.52256 4.7 4.90694 4.7V5.3C5.19119 5.3 5.425 5.53381 5.425 5.81806H6.025ZM4.90694 4.7H-2.45556V5.3H4.90694V4.7ZM-2.45556 4.7C-3.07117 4.7 -3.57361 5.20244 -3.57361 5.81806H-2.97361C-2.97361 5.53381 -2.7398 5.3 -2.45556 5.3V4.7ZM-3.57361 5.81806C-3.57361 6.43367 -3.07117 6.93611 -2.45556 6.93611V6.33611C-2.7398 6.33611 -2.97361 6.1023 -2.97361 5.81806H-3.57361ZM-2.45556 6.93611H-1.6375V6.33611H-2.45556V6.93611ZM-1.9375 6.63611V8.27222H-1.3375V6.63611H-1.9375ZM-1.6375 7.97222H-6.54583V8.57222H-1.6375V7.97222ZM-6.54583 7.97222C-8.06131 7.97222 -9.3 9.21091 -9.3 10.7264H-8.7C-8.7 9.54228 -7.72994 8.57222 -6.54583 8.57222V7.97222ZM-9.3 10.7264V24.6333H-8.7V10.7264H-9.3ZM-9.3 24.6333C-9.3 26.1488 -8.06131 27.3875 -6.54583 27.3875V26.7875C-7.72994 26.7875 -8.7 25.8174 -8.7 24.6333H-9.3ZM-6.54583 27.3875H-5.72778V26.7875H-6.54583V27.3875ZM-6.02778 27.0875V28.7236H-5.42778V27.0875H-6.02778ZM-5.72778 28.4236H-8.18194V29.0236H-5.72778V28.4236ZM-8.18194 28.4236C-8.79756 28.4236 -9.3 28.9261 -9.3 29.5417H-8.7C-8.7 29.2574 -8.46619 29.0236 -8.18194 29.0236V28.4236ZM-9.3 29.5417V36.0861H-8.7V29.5417H-9.3ZM-9.3 36.0861C-9.3 36.7017 -8.79756 37.2042 -8.18194 37.2042V36.6042C-8.46619 36.6042 -8.7 36.3704 -8.7 36.0861H-9.3ZM-8.18194 37.2042H-6.54583V36.6042H-8.18194V37.2042ZM-6.84583 36.9042C-6.84583 39.7776 -4.51095 42.1125 -1.6375 42.1125V41.5125C-4.17958 41.5125 -6.24583 39.4462 -6.24583 36.9042H-6.84583ZM-1.6375 42.1125C1.23595 42.1125 3.57083 39.7776 3.57083 36.9042H2.97083C2.97083 39.4462 0.904578 41.5125 -1.6375 41.5125V42.1125ZM3.27083 37.2042H17.1778V36.6042H3.27083V37.2042ZM16.8778 36.9042C16.8778 39.7776 19.2127 42.1125 22.0861 42.1125V41.5125C19.544 41.5125 17.4778 39.4462 17.4778 36.9042H16.8778ZM22.0861 42.1125C24.9596 42.1125 27.2944 39.7776 27.2944 36.9042H26.6944C26.6944 39.4462 24.6282 41.5125 22.0861 41.5125V42.1125ZM27.2944 36.9042C27.2944 34.0307 24.9596 31.6958 22.0861 31.6958V32.2958C24.6282 32.2958 26.6944 34.3621 26.6944 36.9042H27.2944ZM22.0861 31.6958C19.8189 31.6958 17.9013 33.1467 17.1815 35.1674L17.7467 35.3687C18.3849 33.5772 20.083 32.2958 22.0861 32.2958V31.6958ZM17.4641 34.9681H2.98451V35.5681H17.4641V34.9681ZM3.26712 35.1674C2.54732 33.1467 0.629664 31.6958 -1.6375 31.6958V32.2958C0.365585 32.2958 2.06374 33.5772 2.70191 35.3687L3.26712 35.1674ZM-1.6375 31.6958C-3.90466 31.6958 -5.82232 33.1467 -6.54212 35.1674L-5.97691 35.3687C-5.33874 33.5772 -3.64059 32.2958 -1.6375 32.2958V31.6958ZM-6.25951 34.9681H-7.36389V35.5681H-6.25951V34.9681ZM-7.06389 35.2681V30.3597H-7.66389V35.2681H-7.06389ZM-7.36389 30.6597H28.6306V30.0597H-7.36389V30.6597ZM28.3306 30.3597V35.2681H28.9306V30.3597H28.3306ZM28.6306 34.9681H26.9944V35.5681H28.6306V34.9681ZM26.6944 35.2681V36.9042H27.2944V35.2681H26.6944ZM26.9944 37.2042H29.4486V36.6042H26.9944V37.2042ZM29.4486 37.2042C30.0642 37.2042 30.5667 36.7017 30.5667 36.0861H29.9667C29.9667 36.3704 29.7329 36.6042 29.4486 36.6042V37.2042ZM30.5667 36.0861V29.5417H29.9667V36.0861H30.5667ZM30.5667 29.5417C30.5667 28.9261 30.0642 28.4236 29.4486 28.4236V29.0236C29.7329 29.0236 29.9667 29.2574 29.9667 29.5417H30.5667ZM29.4486 28.4236H26.9944V29.0236H29.4486V28.4236ZM27.2944 28.7236V27.0875H26.6944V28.7236H27.2944ZM26.9944 27.3875H27.8125V26.7875H26.9944V27.3875ZM22.0861 33.9319C23.7283 33.9319 25.0583 35.2619 25.0583 36.9042H25.6583C25.6583 34.9306 24.0597 33.3319 22.0861 33.3319V33.9319ZM25.0583 36.9042C25.0583 38.5464 23.7283 39.8764 22.0861 39.8764V40.4764C24.0597 40.4764 25.6583 38.8778 25.6583 36.9042H25.0583ZM22.0861 39.8764C20.4439 39.8764 19.1139 38.5464 19.1139 36.9042H18.5139C18.5139 38.8778 20.1125 40.4764 22.0861 40.4764V39.8764ZM19.1139 36.9042C19.1139 35.2619 20.4439 33.9319 22.0861 33.9319V33.3319C20.1125 33.3319 18.5139 34.9306 18.5139 36.9042H19.1139ZM-1.6375 33.9319C0.00471783 33.9319 1.33472 35.2619 1.33472 36.9042H1.93472C1.93472 34.9306 0.336088 33.3319 -1.6375 33.3319V33.9319ZM1.33472 36.9042C1.33472 38.5464 0.00471783 39.8764 -1.6375 39.8764V40.4764C0.336088 40.4764 1.93472 38.8778 1.93472 36.9042H1.33472ZM-1.6375 39.8764C-3.27972 39.8764 -4.60972 38.5464 -4.60972 36.9042H-5.20972C-5.20972 38.8778 -3.61109 40.4764 -1.6375 40.4764V39.8764ZM-4.60972 36.9042C-4.60972 35.2619 -3.27972 33.9319 -1.6375 33.9319V33.3319C-3.61109 33.3319 -5.20972 34.9306 -5.20972 36.9042H-4.60972ZM17.6958 9.90833V12.3625H18.2958V9.90833H17.6958ZM17.9958 12.0625H14.7236V12.6625H17.9958V12.0625ZM15.0236 12.3625V9.90833H14.4236V12.3625H15.0236ZM14.7236 10.2083H17.9958V9.60833H14.7236V10.2083ZM14.7236 14.2986H17.9958V13.6986H14.7236V14.2986ZM17.6958 13.9986V16.4528H18.2958V13.9986H17.6958ZM17.9958 16.1528H14.7236V16.7528H17.9958V16.1528ZM15.0236 16.4528V13.9986H14.4236V16.4528H15.0236ZM-0.00138855 6.93611H2.45278V6.33611H-0.00138855V6.93611ZM2.15278 6.63611V8.27222H2.75278V6.63611H2.15278ZM2.45278 7.97222H-0.00138855V8.57222H2.45278V7.97222ZM0.298612 8.27222V6.63611H-0.301389V8.27222H0.298612ZM-6.54583 25.1514C-6.83008 25.1514 -7.06389 24.9176 -7.06389 24.6333H-7.66389C-7.66389 25.2489 -7.16145 25.7514 -6.54583 25.7514V25.1514ZM-7.06389 24.6333V10.7264H-7.66389V24.6333H-7.06389ZM-7.06389 10.7264C-7.06389 10.4421 -6.83008 10.2083 -6.54583 10.2083V9.60833C-7.16145 9.60833 -7.66389 10.1108 -7.66389 10.7264H-7.06389ZM-6.54583 10.2083H13.0875V9.60833H-6.54583V10.2083ZM12.7875 9.90833V21.3611H13.3875V9.90833H12.7875ZM12.7875 21.3611C12.7875 21.9767 13.2899 22.4792 13.9056 22.4792V21.8792C13.6213 21.8792 13.3875 21.6454 13.3875 21.3611H12.7875ZM13.9056 22.4792C14.5212 22.4792 15.0236 21.9767 15.0236 21.3611H14.4236C14.4236 21.6454 14.1898 21.8792 13.9056 21.8792V22.4792ZM15.0236 21.3611V18.0889H14.4236V21.3611H15.0236ZM14.7236 18.3889H17.9958V17.7889H14.7236V18.3889ZM17.6958 18.0889V21.3611H18.2958V18.0889H17.6958ZM17.6958 21.3611C17.6958 21.9767 18.1983 22.4792 18.8139 22.4792V21.8792C18.5296 21.8792 18.2958 21.6454 18.2958 21.3611H17.6958ZM18.8139 22.4792C19.4295 22.4792 19.9319 21.9767 19.9319 21.3611H19.3319C19.3319 21.6454 19.0981 21.8792 18.8139 21.8792V22.4792ZM19.9319 21.3611V9.90833H19.3319V21.3611H19.9319ZM19.6319 10.2083H27.8125V9.60833H19.6319V10.2083ZM27.8125 10.2083C28.0967 10.2083 28.3306 10.4421 28.3306 10.7264H28.9306C28.9306 10.1108 28.4281 9.60833 27.8125 9.60833V10.2083ZM28.3306 10.7264V24.6333H28.9306V10.7264H28.3306ZM28.3306 24.6333C28.3306 24.9176 28.0967 25.1514 27.8125 25.1514V25.7514C28.4281 25.7514 28.9306 25.2489 28.9306 24.6333H28.3306ZM27.8125 25.1514H26.9944V25.7514H27.8125V25.1514ZM27.2944 25.4514V23.8153H26.6944V25.4514H27.2944ZM27.2944 23.8153C27.2944 23.1997 26.792 22.6972 26.1764 22.6972V23.2972C26.4606 23.2972 26.6944 23.531 26.6944 23.8153H27.2944ZM26.1764 22.6972C25.5608 22.6972 25.0583 23.1997 25.0583 23.8153H25.6583C25.6583 23.531 25.8921 23.2972 26.1764 23.2972V22.6972ZM25.0583 23.8153V25.4514H25.6583V23.8153H25.0583ZM25.3583 25.1514H-4.09167V25.7514H25.3583V25.1514ZM-3.79167 25.4514V23.8153H-4.39167V25.4514H-3.79167ZM-3.79167 23.8153C-3.79167 23.1997 -4.29411 22.6972 -4.90972 22.6972V23.2972C-4.62548 23.2972 -4.39167 23.531 -4.39167 23.8153H-3.79167ZM-4.90972 22.6972C-5.52534 22.6972 -6.02778 23.1997 -6.02778 23.8153H-5.42778C-5.42778 23.531 -5.19397 23.2972 -4.90972 23.2972V22.6972ZM-6.02778 23.8153V25.4514H-5.42778V23.8153H-6.02778ZM-5.72778 25.1514H-6.54583V25.7514H-5.72778V25.1514ZM25.3583 28.4236H-4.09167V29.0236H25.3583V28.4236ZM-3.79167 28.7236V27.0875H-4.39167V28.7236H-3.79167ZM-4.09167 27.3875H25.3583V26.7875H-4.09167V27.3875ZM25.0583 27.0875V28.7236H25.6583V27.0875H25.0583Z" fill="white" mask="url(#path-1-inside-1_8_5022)"/>
<path d="M2.57192 14.3983L2.45277 14.2425L2.33361 14.3983C1.74606 15.1667 1.12867 16.0575 0.657327 16.8682C0.421728 17.2734 0.221092 17.6612 0.0789251 18.0053C-0.0616853 18.3456 -0.1514 18.6578 -0.1514 18.9069C-0.1514 20.3396 1.02013 21.5111 2.45277 21.5111C3.8854 21.5111 5.05693 20.3396 5.05693 18.9069C5.05693 18.6559 4.96731 18.3427 4.82663 18.0019C4.68444 17.6573 4.48378 17.2698 4.24817 16.8651C3.7768 16.0554 3.15939 15.1665 2.57192 14.3983ZM6.39305 18.9069C6.39305 21.0819 4.62776 22.8472 2.45277 22.8472C0.277776 22.8472 -1.48751 21.0819 -1.48751 18.9069C-1.48751 18.4374 -1.31708 17.8627 -1.04042 17.2438C-0.765043 16.6279 -0.390594 15.9816 0.00383306 15.3727C0.791906 14.156 1.65181 13.1007 1.93793 12.7532C2.19806 12.4474 2.71714 12.45 2.96703 12.7525C3.25256 13.0992 4.11309 14.1552 4.9017 15.3727C5.29613 15.9816 5.67058 16.6279 5.94595 17.2438C6.22261 17.8627 6.39305 18.4374 6.39305 18.9069ZM-0.969455 36.9042C-0.969455 37.2712 -1.27042 37.5722 -1.63751 37.5722C-2.0046 37.5722 -2.30557 37.2712 -2.30557 36.9042C-2.30557 36.5371 -2.0046 36.2361 -1.63751 36.2361C-1.27042 36.2361 -0.969455 36.5371 -0.969455 36.9042Z" fill="#72A3DD" stroke="white" stroke-width="0.3"/>
<path d="M22.7542 36.9041C22.7542 37.2731 22.4551 37.5722 22.0861 37.5722C21.7172 37.5722 21.4181 37.2731 21.4181 36.9041C21.4181 36.5352 21.7172 36.2361 22.0861 36.2361C22.4551 36.2361 22.7542 36.5352 22.7542 36.9041Z" fill="#72A3DD" stroke="white" stroke-width="0.3"/>
</g>
<defs>
<clipPath id="clip0_8_5022">
<rect width="42" height="46" fill="white" transform="matrix(-1 0 0 1 42 0)"/>
</clipPath>
</defs>
</svg>
