<svg width="26" height="20" viewBox="0 0 26 20" fill="none" xmlns="http://www.w3.org/2000/svg">
<path d="M24.9167 10.939H1.08333C0.485333 10.939 0 10.4536 0 9.85565C0 9.25765 0.485333 8.77231 1.08333 8.77231H24.9167C25.5147 8.77231 26 9.25765 26 9.85565C26 10.4536 25.5147 10.939 24.9167 10.939ZM24.9167 2.63333H1.08333C0.485333 2.63333 0 2.148 0 1.55C0 0.952 0.485333 0.466667 1.08333 0.466667H24.9167C25.5147 0.466667 26 0.952 26 1.55C26 2.148 25.5147 2.63333 24.9167 2.63333ZM24.9167 19.2444H1.08333C0.485333 19.2444 0 18.759 0 18.161C0 17.563 0.485333 17.0777 1.08333 17.0777H24.9167C25.5147 17.0777 26 17.563 26 18.161C26 18.759 25.5147 19.2444 24.9167 19.2444Z" fill="#006BE9"/>
</svg>
