<svg width="25" height="24" viewBox="0 0 25 24" fill="none" xmlns="http://www.w3.org/2000/svg">
<path d="M14.9048 12.1494L13.5945 13.4641C13.0632 13.9973 12.1283 14.0088 11.5855 13.4641L10.2751 12.1494L5.56909 16.8707C5.74427 16.9518 5.93741 17.0001 6.14274 17.0001H19.0372C19.2426 17.0001 19.4356 16.9518 19.6108 16.8708L14.9048 12.1494Z" fill="#E51017"/>
<path d="M19.0371 6H6.14258C5.93725 6 5.74411 6.04834 5.56899 6.12934L10.5977 11.1748C10.5981 11.1751 10.5985 11.1752 10.5988 11.1755C10.599 11.1757 10.5992 11.176 10.5992 11.1763L12.2343 12.8168C12.408 12.9905 12.7717 12.9905 12.9454 12.8168L14.5802 11.1766C14.5802 11.1766 14.5806 11.1759 14.5809 11.1755C14.5809 11.1755 14.5816 11.1751 14.582 11.1748L19.6106 6.12931C19.4355 6.04828 19.2424 6 19.0371 6ZM4.91382 6.77037C4.82319 6.95364 4.76758 7.15708 4.76758 7.375V15.625C4.76758 15.843 4.82313 16.0464 4.91379 16.2297L9.628 11.5002L4.91382 6.77037ZM20.2658 6.77031L15.5517 11.5002L20.2658 16.2297C20.3565 16.0465 20.4121 15.843 20.4121 15.625V7.375C20.4121 7.15702 20.3565 6.95358 20.2658 6.77031Z" fill="#E51017"/>
</svg>
