<svg width="29" height="28" viewBox="0 0 29 28" fill="none" xmlns="http://www.w3.org/2000/svg">
<rect x="0.5" width="28" height="28" rx="14" fill="#006BE9"/>
<path d="M21.4266 13.6995L9.16973 8.0425C8.97456 7.95388 8.74168 8.00668 8.60591 8.1745C8.53948 8.25579 8.50225 8.35703 8.5002 8.462C8.49815 8.56696 8.53139 8.66958 8.5946 8.7534L12.6252 14.1276L8.5946 19.5017C8.46449 19.6743 8.4692 19.9137 8.60497 20.0806C8.69643 20.1947 8.83314 20.256 8.97173 20.256C9.03867 20.256 9.10562 20.2418 9.16879 20.2126L21.4256 14.5556C21.5935 14.4783 21.7 14.3114 21.7 14.1276C21.7 13.9437 21.5935 13.7768 21.4266 13.6995Z" fill="white"/>
</svg>
