<svg width="25" height="24" viewBox="0 0 25 24" fill="none" xmlns="http://www.w3.org/2000/svg">
<path d="M18.5914 14.54C18.5552 14.5113 15.9259 12.6161 15.2042 12.7521C14.8597 12.8131 14.6627 13.048 14.2675 13.5184C14.2039 13.5944 14.051 13.7764 13.9322 13.9058C13.6824 13.8243 13.4387 13.7251 13.203 13.609C11.9865 13.0167 11.0035 12.0338 10.4113 10.8172C10.295 10.5815 10.1959 10.3378 10.1145 10.088C10.2443 9.96875 10.4263 9.81593 10.504 9.75057C10.9722 9.35748 11.2076 9.1605 11.2685 8.81512C11.3935 8.09962 9.49966 5.45227 9.47979 5.42842C9.39386 5.30566 9.28172 5.20355 9.15148 5.12945C9.02125 5.05536 8.87617 5.01114 8.72674 5C7.95913 5 5.76758 7.84301 5.76758 8.32177C5.76758 8.3496 5.80777 11.178 9.29561 14.7259C12.84 18.2098 15.668 18.25 15.6958 18.25C16.175 18.25 19.0176 16.0584 19.0176 15.2908C19.0066 15.1419 18.9626 14.9973 18.8889 14.8675C18.8152 14.7376 18.7136 14.6258 18.5914 14.54Z" fill="#E51017"/>
</svg>
