<svg width="29" height="28" viewBox="0 0 29 28" fill="none" xmlns="http://www.w3.org/2000/svg">
<rect x="28.5" y="28" width="28" height="28" rx="14" transform="rotate(-180 28.5 28)" fill="#006BE9"/>
<path d="M7.57342 14.3005L19.8303 19.9575C20.0254 20.0461 20.2583 19.9933 20.3941 19.8255C20.4605 19.7442 20.4977 19.643 20.4998 19.538C20.5018 19.433 20.4686 19.3304 20.4054 19.2466L16.3748 13.8724L20.4054 8.49828C20.5355 8.32574 20.5308 8.08626 20.395 7.91938C20.3036 7.8053 20.1669 7.74402 20.0283 7.74402C19.9613 7.74402 19.8944 7.75816 19.8312 7.78738L7.57437 13.4444C7.40654 13.5217 7.3 13.6886 7.3 13.8724C7.3 14.0563 7.40654 14.2232 7.57342 14.3005Z" fill="white"/>
</svg>
