<svg width="25" height="24" viewBox="0 0 25 24" fill="none" xmlns="http://www.w3.org/2000/svg">
<g filter="url(#filter0_d_8_4504)">
<path d="M5.15744 6.78259L6.12591 6.57482C6.1343 6.57288 6.14195 6.56856 6.14796 6.56238C6.15397 6.55621 6.15808 6.54844 6.15979 6.54C6.18262 6.44047 6.2132 6.34259 6.24073 6.24447C6.40599 5.647 6.65674 5.07655 6.9852 4.55082C6.98993 4.54364 6.99249 4.53525 6.99258 4.52666C6.99266 4.51806 6.99026 4.50962 6.98567 4.50235L6.44756 3.66941C6.4292 3.64117 6.41697 3.61035 6.40991 3.57835C6.40685 3.56494 6.4085 3.55082 6.40732 3.53694C6.40591 3.52047 6.40261 3.50376 6.40426 3.48706C6.41047 3.42228 6.4388 3.36162 6.4845 3.31529L7.81532 1.98259C7.81744 1.98023 7.82003 1.97953 7.82238 1.97765L7.9092 1.89059C7.92814 1.87157 7.95303 1.85963 7.97971 1.85676C8.00639 1.85389 8.03325 1.86027 8.05579 1.87482L8.15767 1.9407C8.1612 1.94235 8.16473 1.94306 8.16779 1.9447L9.00262 2.48494C9.00803 2.4887 9.01414 2.48965 9.01979 2.49059C9.02214 2.49059 9.02426 2.492 9.02638 2.492C9.0351 2.49195 9.04365 2.4895 9.05109 2.48494C9.6625 2.10069 10.3344 1.82235 11.0384 1.66165C11.0468 1.65992 11.0545 1.6558 11.0607 1.64979C11.0668 1.64378 11.0711 1.63614 11.073 1.62776L11.2831 0.654116C11.2969 0.591308 11.3317 0.535077 11.3817 0.494667C11.4318 0.454257 11.4941 0.432073 11.5584 0.431763H13.4403C13.473 0.431763 13.5052 0.43788 13.5351 0.448469C13.5558 0.456233 13.5737 0.468469 13.5916 0.480704C13.6 0.48588 13.6094 0.488704 13.6172 0.494821C13.6254 0.50188 13.6313 0.511998 13.6391 0.519998C13.677 0.5564 13.7036 0.602965 13.7158 0.654116L13.9254 1.62776C13.9274 1.63617 13.9317 1.64384 13.9378 1.64985C13.944 1.65586 13.9518 1.65996 13.9603 1.66165C14.1414 1.70282 14.325 1.75341 14.505 1.81176C14.5111 1.81365 14.5163 1.81835 14.5219 1.82117C14.866 1.93346 15.1999 2.07475 15.52 2.24353C15.5271 2.24541 15.5341 2.24588 15.5405 2.24964C15.6791 2.32259 15.8165 2.40188 15.9497 2.48494C15.9567 2.48966 15.965 2.4922 15.9735 2.49224C15.982 2.49228 15.9903 2.48982 15.9974 2.48517L16.8304 1.94517C16.8334 1.94329 16.837 1.94282 16.8403 1.94094L16.9419 1.87506C16.9645 1.86044 16.9914 1.854 17.0182 1.85683C17.0449 1.85965 17.0699 1.87157 17.089 1.89059L17.1758 1.97717C17.1777 1.97906 17.1807 1.98023 17.1833 1.98212L18.5151 3.31459C18.5612 3.36071 18.5898 3.42144 18.596 3.48635C18.6029 3.55053 18.5877 3.61513 18.5527 3.66941L18.0127 4.50423C18.008 4.51129 18.0061 4.51929 18.0057 4.52729C18.0061 4.53552 18.0085 4.54351 18.0127 4.55059C18.1639 4.79598 18.2988 5.05104 18.4165 5.31412C18.4469 5.38047 18.4807 5.44541 18.509 5.51317C18.6466 5.84549 18.756 6.18883 18.836 6.53953C18.8377 6.54801 18.8418 6.55583 18.8478 6.56205C18.8538 6.56827 18.8615 6.57262 18.8699 6.57459L19.8429 6.78235C19.9718 6.80988 20.0657 6.92588 20.0657 7.05788V8.94164C20.0657 9.07388 19.9718 9.18965 19.8429 9.21694L18.8701 9.42494C18.8617 9.42683 18.8541 9.43109 18.848 9.43723C18.842 9.44336 18.8378 9.4511 18.836 9.45953C18.7956 9.63576 18.7483 9.80917 18.6934 9.98094C18.6826 10.0158 18.6676 10.0492 18.6563 10.0838C18.6104 10.2191 18.5633 10.3544 18.509 10.4861C18.4859 10.5421 18.4572 10.5955 18.4325 10.6506C18.3112 10.9261 18.1709 11.1928 18.0127 11.4489C18.0083 11.456 18.0064 11.4638 18.0061 11.4718C18.0061 11.4799 18.0084 11.4879 18.0127 11.4948L18.5527 12.3301C18.5878 12.3845 18.6031 12.4493 18.596 12.5136C18.5894 12.5769 18.5624 12.6381 18.5156 12.6847L17.1831 14.0176C17.1803 14.02 17.177 14.0212 17.1746 14.0231L17.089 14.1089C17.0699 14.1279 17.0449 14.1398 17.0181 14.1426C16.9914 14.1454 16.9645 14.1389 16.9419 14.1242L16.8412 14.0593C16.8377 14.0569 16.8337 14.0569 16.8304 14.0546L15.9974 13.5139C15.9902 13.5093 15.9819 13.5069 15.9733 13.5071C15.9648 13.5072 15.9565 13.5098 15.9494 13.5146C15.816 13.5979 15.6796 13.6764 15.5405 13.7499C15.5344 13.7534 15.5271 13.7541 15.52 13.7565C15.1998 13.9249 14.8659 14.066 14.5219 14.1781C14.5163 14.1812 14.5116 14.1856 14.5052 14.1875C14.3269 14.2456 14.1433 14.2958 13.9603 14.3379C13.9518 14.3395 13.944 14.3436 13.9378 14.3496C13.9316 14.3557 13.9273 14.3633 13.9254 14.3718L13.7156 15.3449C13.7109 15.3664 13.7005 15.3849 13.6918 15.4038C13.6871 15.4139 13.6852 15.4249 13.6793 15.4341C13.6723 15.4452 13.6621 15.4529 13.6539 15.4631C13.6417 15.4772 13.6311 15.4929 13.617 15.5047C13.6099 15.5104 13.601 15.5127 13.5934 15.5181C13.5746 15.5304 13.556 15.5433 13.5351 15.5511C13.5052 15.5616 13.473 15.5675 13.4403 15.5675H11.5584C11.4266 15.5675 11.3109 15.4741 11.2829 15.3449L11.073 14.3718C11.0711 14.3634 11.0669 14.3558 11.0608 14.3498C11.0547 14.3437 11.047 14.3396 11.0386 14.3379C10.3327 14.1767 9.66426 13.8993 9.05109 13.5146C9.04391 13.5098 9.0355 13.5073 9.02689 13.5072C9.01828 13.5072 9.00984 13.5097 9.00262 13.5144L8.16803 14.0544C8.1652 14.0562 8.16167 14.0567 8.15838 14.0586L8.05579 14.1245C8.03327 14.1391 8.00643 14.1455 7.97975 14.1426C7.95307 14.1398 7.92817 14.1279 7.9092 14.1089L7.82285 14.0224C7.8205 14.02 7.81744 14.0193 7.81532 14.0169L6.48473 12.6847C6.41367 12.6132 6.38779 12.5132 6.41038 12.4202C6.41731 12.3882 6.42998 12.3576 6.44779 12.3301L6.98591 11.4972C6.98779 11.4944 6.98779 11.4906 6.98897 11.4871C6.99124 11.4808 6.9921 11.4742 6.99149 11.4676C6.99088 11.461 6.98881 11.4546 6.98544 11.4489C6.63451 10.8882 6.37236 10.2766 6.20826 9.63576C6.19297 9.57694 6.17344 9.51929 6.16003 9.46C6.15842 9.45152 6.15439 9.44369 6.14841 9.43747C6.14244 9.43124 6.13478 9.42689 6.12638 9.42494L5.1572 9.21717C5.0285 9.18917 4.93462 9.07364 4.93462 8.94188V7.05788C4.93462 6.92612 5.0285 6.81012 5.15744 6.78259ZM8.72944 11.1828C9.19254 11.7315 9.7698 12.1724 10.4209 12.475C11.072 12.7775 11.7814 12.9343 12.4993 12.9344C13.2171 12.935 13.9263 12.7787 14.5773 12.4765C15.2283 12.1744 15.8054 11.7335 16.2683 11.1849C17.0209 10.2942 17.4338 9.16569 17.4339 7.99953C17.4339 5.28 15.22 3.06682 12.4993 3.06682C9.77932 3.06682 7.56638 5.28 7.56638 7.99953C7.5658 9.16478 7.97783 10.2924 8.72944 11.1828Z" fill="#006BE9"/>
</g>
<g filter="url(#filter1_i_8_4504)">
<circle cx="12.5" cy="8" r="5" fill="#006BE9" fill-opacity="0.56"/>
</g>
<circle cx="12.5" cy="8" r="4.75" stroke="white" stroke-width="0.5"/>
<path d="M11.6405 9C11.9017 9.13722 12.1991 9.20956 12.502 9.20956C12.8048 9.20956 13.1022 9.13722 13.3634 9C13.7219 9.08616 14.0611 9.2269 14.3663 9.41608C14.3683 9.41783 14.3702 9.41958 14.3741 9.42133L14.8854 9.81294C15.1395 10.0526 15.3472 10.3285 15.5 10.6294C15.4454 10.6958 15.3888 10.7605 15.3283 10.8234C14.6239 11.5717 13.5917 12 12.501 12C11.4102 12 10.38 11.5699 9.67171 10.8217C9.61122 10.757 9.55502 10.6923 9.5 10.6241C9.91171 9.81643 10.698 9.22552 11.6405 9Z" fill="white"/>
<path d="M12.5001 9C11.397 9 10.5 8.10276 10.5 6.99987C10.5 5.89724 11.397 5 12.5001 5C13.603 5 14.5 5.89724 14.5 6.99961C14.5 8.10276 13.603 9 12.5001 9Z" fill="white"/>
<defs>
<filter id="filter0_d_8_4504" x="0.93457" y="0.431763" width="23.1311" height="23.1357" filterUnits="userSpaceOnUse" color-interpolation-filters="sRGB">
<feFlood flood-opacity="0" result="BackgroundImageFix"/>
<feColorMatrix in="SourceAlpha" type="matrix" values="0 0 0 0 0 0 0 0 0 0 0 0 0 0 0 0 0 0 127 0" result="hardAlpha"/>
<feOffset dy="4"/>
<feGaussianBlur stdDeviation="2"/>
<feComposite in2="hardAlpha" operator="out"/>
<feColorMatrix type="matrix" values="0 0 0 0 0 0 0 0 0 0 0 0 0 0 0 0 0 0 0.15 0"/>
<feBlend mode="normal" in2="BackgroundImageFix" result="effect1_dropShadow_8_4504"/>
<feBlend mode="normal" in="SourceGraphic" in2="effect1_dropShadow_8_4504" result="shape"/>
</filter>
<filter id="filter1_i_8_4504" x="7.5" y="3" width="10" height="12" filterUnits="userSpaceOnUse" color-interpolation-filters="sRGB">
<feFlood flood-opacity="0" result="BackgroundImageFix"/>
<feBlend mode="normal" in="SourceGraphic" in2="BackgroundImageFix" result="shape"/>
<feColorMatrix in="SourceAlpha" type="matrix" values="0 0 0 0 0 0 0 0 0 0 0 0 0 0 0 0 0 0 127 0" result="hardAlpha"/>
<feOffset dy="2"/>
<feGaussianBlur stdDeviation="2"/>
<feComposite in2="hardAlpha" operator="arithmetic" k2="-1" k3="1"/>
<feColorMatrix type="matrix" values="0 0 0 0 0 0 0 0 0 0 0 0 0 0 0 0 0 0 0.15 0"/>
<feBlend mode="normal" in2="shape" result="effect1_innerShadow_8_4504"/>
</filter>
</defs>
</svg>
